%TF.GenerationSoftware,KiCad,Pcbnew,(5.0.0)*%
%TF.CreationDate,2018-10-06T18:40:39-06:00*%
%TF.ProjectId,Lector infrarojoV2,4C6563746F7220696E667261726F6A6F,rev?*%
%TF.SameCoordinates,Original*%
%TF.FileFunction,Copper,L2,Bot,Signal*%
%TF.FilePolarity,Positive*%
%FSLAX46Y46*%
G04 Gerber Fmt 4.6, Leading zero omitted, Abs format (unit mm)*
G04 Created by KiCad (PCBNEW (5.0.0)) date 10/06/18 18:40:39*
%MOMM*%
%LPD*%
G01*
G04 APERTURE LIST*
%ADD10R,1.800000X1.800000*%
%ADD11C,1.800000*%
%ADD12R,3.000000X3.000000*%
%ADD13C,3.000000*%
%ADD14C,1.400000*%
%ADD15O,1.400000X1.400000*%
%ADD16C,0.800000*%
%ADD17C,0.250000*%
%ADD18C,0.254000*%
G04 APERTURE END LIST*
D10*
X189100000Y-99625000D03*
D11*
X186560000Y-99625000D03*
D12*
X195900000Y-90300000D03*
D13*
X199780000Y-90300000D03*
D14*
X186450000Y-89825000D03*
D15*
X186450000Y-94905000D03*
D16*
X182000000Y-94600000D03*
X188950000Y-94525000D03*
X189200000Y-90150000D03*
X172925000Y-92975000D03*
X183200000Y-90075000D03*
D17*
X189100000Y-99625000D02*
X189100000Y-101075000D01*
X189100000Y-101075000D02*
X188300000Y-101875000D01*
X188300000Y-101875000D02*
X182875000Y-101875000D01*
X182875000Y-101875000D02*
X182000000Y-101000000D01*
X182000000Y-101000000D02*
X182000000Y-94600000D01*
X189100000Y-99625000D02*
X189100000Y-94675000D01*
X189100000Y-94675000D02*
X188950000Y-94525000D01*
X195750000Y-90150000D02*
X195900000Y-90300000D01*
X189200000Y-90150000D02*
X195750000Y-90150000D01*
X186560000Y-99625000D02*
X186560000Y-94240000D01*
X199780000Y-90300000D02*
X199780000Y-91920000D01*
X199780000Y-90300000D02*
X199780000Y-92570000D01*
X199780000Y-92570000D02*
X199525000Y-92825000D01*
X199525000Y-92825000D02*
X173075000Y-92825000D01*
X173075000Y-92825000D02*
X172925000Y-92975000D01*
X183450000Y-89825000D02*
X186450000Y-89825000D01*
X183200000Y-90075000D02*
X183450000Y-89825000D01*
D18*
G36*
X359118318Y-81676871D02*
X358152515Y-108323120D01*
X1900284Y-108672877D01*
X1821174Y-102850322D01*
X4840000Y-102850322D01*
X4840000Y-103699678D01*
X5165034Y-104484380D01*
X5765620Y-105084966D01*
X6550322Y-105410000D01*
X7399678Y-105410000D01*
X8184380Y-105084966D01*
X8619024Y-104650322D01*
X347865000Y-104650322D01*
X347865000Y-105499678D01*
X348190034Y-106284380D01*
X348790620Y-106884966D01*
X349575322Y-107210000D01*
X350424678Y-107210000D01*
X351209380Y-106884966D01*
X351809966Y-106284380D01*
X352135000Y-105499678D01*
X352135000Y-104650322D01*
X351809966Y-103865620D01*
X351209380Y-103265034D01*
X350424678Y-102940000D01*
X349575322Y-102940000D01*
X348790620Y-103265034D01*
X348190034Y-103865620D01*
X347865000Y-104650322D01*
X8619024Y-104650322D01*
X8784966Y-104484380D01*
X9110000Y-103699678D01*
X9110000Y-102850322D01*
X8784966Y-102065620D01*
X8184380Y-101465034D01*
X7399678Y-101140000D01*
X6550322Y-101140000D01*
X5765620Y-101465034D01*
X5165034Y-102065620D01*
X4840000Y-102850322D01*
X1821174Y-102850322D01*
X1684202Y-92769126D01*
X171890000Y-92769126D01*
X171890000Y-93180874D01*
X172047569Y-93561280D01*
X172338720Y-93852431D01*
X172719126Y-94010000D01*
X173130874Y-94010000D01*
X173511280Y-93852431D01*
X173778711Y-93585000D01*
X186172315Y-93585000D01*
X186142308Y-93605050D01*
X185929109Y-93647458D01*
X185487519Y-93942519D01*
X185192458Y-94384109D01*
X185088846Y-94905000D01*
X185192458Y-95425891D01*
X185487519Y-95867481D01*
X185800001Y-96076275D01*
X185800000Y-98278331D01*
X185690493Y-98323690D01*
X185258690Y-98755493D01*
X185025000Y-99319670D01*
X185025000Y-99930330D01*
X185258690Y-100494507D01*
X185690493Y-100926310D01*
X186254670Y-101160000D01*
X186865330Y-101160000D01*
X187429507Y-100926310D01*
X187605861Y-100749956D01*
X187661673Y-100884699D01*
X187840302Y-101063327D01*
X188073691Y-101160000D01*
X188814250Y-101160000D01*
X188973000Y-101001250D01*
X188973000Y-99752000D01*
X189227000Y-99752000D01*
X189227000Y-101001250D01*
X189385750Y-101160000D01*
X190126309Y-101160000D01*
X190359698Y-101063327D01*
X190538327Y-100884699D01*
X190635000Y-100651310D01*
X190635000Y-99910750D01*
X190476250Y-99752000D01*
X189227000Y-99752000D01*
X188973000Y-99752000D01*
X188953000Y-99752000D01*
X188953000Y-99498000D01*
X188973000Y-99498000D01*
X188973000Y-98248750D01*
X189227000Y-98248750D01*
X189227000Y-99498000D01*
X190476250Y-99498000D01*
X190635000Y-99339250D01*
X190635000Y-98598690D01*
X190538327Y-98365301D01*
X190359698Y-98186673D01*
X190126309Y-98090000D01*
X189385750Y-98090000D01*
X189227000Y-98248750D01*
X188973000Y-98248750D01*
X188814250Y-98090000D01*
X188073691Y-98090000D01*
X187840302Y-98186673D01*
X187661673Y-98365301D01*
X187605861Y-98500044D01*
X187429507Y-98323690D01*
X187320000Y-98278331D01*
X187320000Y-95929275D01*
X187412481Y-95867481D01*
X187707542Y-95425891D01*
X187811154Y-94905000D01*
X187707542Y-94384109D01*
X187412481Y-93942519D01*
X187164606Y-93776894D01*
X187107929Y-93692071D01*
X186947686Y-93585000D01*
X199450153Y-93585000D01*
X199525000Y-93599888D01*
X199599847Y-93585000D01*
X199599852Y-93585000D01*
X199821537Y-93540904D01*
X200072929Y-93372929D01*
X200115330Y-93309471D01*
X200264472Y-93160330D01*
X200327929Y-93117929D01*
X200495904Y-92866537D01*
X200540000Y-92644852D01*
X200540000Y-92644848D01*
X200554888Y-92570001D01*
X200540000Y-92495154D01*
X200540000Y-92296105D01*
X200989380Y-92109966D01*
X201589966Y-91509380D01*
X201915000Y-90724678D01*
X201915000Y-89875322D01*
X201589966Y-89090620D01*
X200989380Y-88490034D01*
X200204678Y-88165000D01*
X199355322Y-88165000D01*
X198570620Y-88490034D01*
X198035000Y-89025654D01*
X198035000Y-88673690D01*
X197938327Y-88440301D01*
X197759698Y-88261673D01*
X197526309Y-88165000D01*
X196185750Y-88165000D01*
X196027000Y-88323750D01*
X196027000Y-90173000D01*
X196047000Y-90173000D01*
X196047000Y-90427000D01*
X196027000Y-90427000D01*
X196027000Y-90447000D01*
X195773000Y-90447000D01*
X195773000Y-90427000D01*
X193923750Y-90427000D01*
X193765000Y-90585750D01*
X193765000Y-91926310D01*
X193822447Y-92065000D01*
X173432651Y-92065000D01*
X173130874Y-91940000D01*
X172719126Y-91940000D01*
X172338720Y-92097569D01*
X172047569Y-92388720D01*
X171890000Y-92769126D01*
X1684202Y-92769126D01*
X1644800Y-89869126D01*
X182165000Y-89869126D01*
X182165000Y-90280874D01*
X182322569Y-90661280D01*
X182613720Y-90952431D01*
X182994126Y-91110000D01*
X183405874Y-91110000D01*
X183786280Y-90952431D01*
X184077431Y-90661280D01*
X184109027Y-90585000D01*
X185322025Y-90585000D01*
X185693783Y-90956758D01*
X186184452Y-91160000D01*
X186715548Y-91160000D01*
X187206217Y-90956758D01*
X187581758Y-90581217D01*
X187785000Y-90090548D01*
X187785000Y-89559452D01*
X187581758Y-89068783D01*
X187206217Y-88693242D01*
X187159015Y-88673690D01*
X193765000Y-88673690D01*
X193765000Y-90014250D01*
X193923750Y-90173000D01*
X195773000Y-90173000D01*
X195773000Y-88323750D01*
X195614250Y-88165000D01*
X194273691Y-88165000D01*
X194040302Y-88261673D01*
X193861673Y-88440301D01*
X193765000Y-88673690D01*
X187159015Y-88673690D01*
X186715548Y-88490000D01*
X186184452Y-88490000D01*
X185693783Y-88693242D01*
X185322025Y-89065000D01*
X183524846Y-89065000D01*
X183449999Y-89050112D01*
X183436682Y-89052761D01*
X183405874Y-89040000D01*
X182994126Y-89040000D01*
X182613720Y-89197569D01*
X182322569Y-89488720D01*
X182165000Y-89869126D01*
X1644800Y-89869126D01*
X1569136Y-84300322D01*
X2965000Y-84300322D01*
X2965000Y-85149678D01*
X3290034Y-85934380D01*
X3890620Y-86534966D01*
X4675322Y-86860000D01*
X5524678Y-86860000D01*
X6309380Y-86534966D01*
X6909966Y-85934380D01*
X7235000Y-85149678D01*
X7235000Y-85025322D01*
X347865000Y-85025322D01*
X347865000Y-85874678D01*
X348190034Y-86659380D01*
X348790620Y-87259966D01*
X349575322Y-87585000D01*
X350424678Y-87585000D01*
X351209380Y-87259966D01*
X351809966Y-86659380D01*
X352135000Y-85874678D01*
X352135000Y-85025322D01*
X351809966Y-84240620D01*
X351209380Y-83640034D01*
X350424678Y-83315000D01*
X349575322Y-83315000D01*
X348790620Y-83640034D01*
X348190034Y-84240620D01*
X347865000Y-85025322D01*
X7235000Y-85025322D01*
X7235000Y-84300322D01*
X6909966Y-83515620D01*
X6309380Y-82915034D01*
X5524678Y-82590000D01*
X4675322Y-82590000D01*
X3890620Y-82915034D01*
X3290034Y-83515620D01*
X2965000Y-84300322D01*
X1569136Y-84300322D01*
X1528739Y-81327126D01*
X359118318Y-81676871D01*
X359118318Y-81676871D01*
G37*
X359118318Y-81676871D02*
X358152515Y-108323120D01*
X1900284Y-108672877D01*
X1821174Y-102850322D01*
X4840000Y-102850322D01*
X4840000Y-103699678D01*
X5165034Y-104484380D01*
X5765620Y-105084966D01*
X6550322Y-105410000D01*
X7399678Y-105410000D01*
X8184380Y-105084966D01*
X8619024Y-104650322D01*
X347865000Y-104650322D01*
X347865000Y-105499678D01*
X348190034Y-106284380D01*
X348790620Y-106884966D01*
X349575322Y-107210000D01*
X350424678Y-107210000D01*
X351209380Y-106884966D01*
X351809966Y-106284380D01*
X352135000Y-105499678D01*
X352135000Y-104650322D01*
X351809966Y-103865620D01*
X351209380Y-103265034D01*
X350424678Y-102940000D01*
X349575322Y-102940000D01*
X348790620Y-103265034D01*
X348190034Y-103865620D01*
X347865000Y-104650322D01*
X8619024Y-104650322D01*
X8784966Y-104484380D01*
X9110000Y-103699678D01*
X9110000Y-102850322D01*
X8784966Y-102065620D01*
X8184380Y-101465034D01*
X7399678Y-101140000D01*
X6550322Y-101140000D01*
X5765620Y-101465034D01*
X5165034Y-102065620D01*
X4840000Y-102850322D01*
X1821174Y-102850322D01*
X1684202Y-92769126D01*
X171890000Y-92769126D01*
X171890000Y-93180874D01*
X172047569Y-93561280D01*
X172338720Y-93852431D01*
X172719126Y-94010000D01*
X173130874Y-94010000D01*
X173511280Y-93852431D01*
X173778711Y-93585000D01*
X186172315Y-93585000D01*
X186142308Y-93605050D01*
X185929109Y-93647458D01*
X185487519Y-93942519D01*
X185192458Y-94384109D01*
X185088846Y-94905000D01*
X185192458Y-95425891D01*
X185487519Y-95867481D01*
X185800001Y-96076275D01*
X185800000Y-98278331D01*
X185690493Y-98323690D01*
X185258690Y-98755493D01*
X185025000Y-99319670D01*
X185025000Y-99930330D01*
X185258690Y-100494507D01*
X185690493Y-100926310D01*
X186254670Y-101160000D01*
X186865330Y-101160000D01*
X187429507Y-100926310D01*
X187605861Y-100749956D01*
X187661673Y-100884699D01*
X187840302Y-101063327D01*
X188073691Y-101160000D01*
X188814250Y-101160000D01*
X188973000Y-101001250D01*
X188973000Y-99752000D01*
X189227000Y-99752000D01*
X189227000Y-101001250D01*
X189385750Y-101160000D01*
X190126309Y-101160000D01*
X190359698Y-101063327D01*
X190538327Y-100884699D01*
X190635000Y-100651310D01*
X190635000Y-99910750D01*
X190476250Y-99752000D01*
X189227000Y-99752000D01*
X188973000Y-99752000D01*
X188953000Y-99752000D01*
X188953000Y-99498000D01*
X188973000Y-99498000D01*
X188973000Y-98248750D01*
X189227000Y-98248750D01*
X189227000Y-99498000D01*
X190476250Y-99498000D01*
X190635000Y-99339250D01*
X190635000Y-98598690D01*
X190538327Y-98365301D01*
X190359698Y-98186673D01*
X190126309Y-98090000D01*
X189385750Y-98090000D01*
X189227000Y-98248750D01*
X188973000Y-98248750D01*
X188814250Y-98090000D01*
X188073691Y-98090000D01*
X187840302Y-98186673D01*
X187661673Y-98365301D01*
X187605861Y-98500044D01*
X187429507Y-98323690D01*
X187320000Y-98278331D01*
X187320000Y-95929275D01*
X187412481Y-95867481D01*
X187707542Y-95425891D01*
X187811154Y-94905000D01*
X187707542Y-94384109D01*
X187412481Y-93942519D01*
X187164606Y-93776894D01*
X187107929Y-93692071D01*
X186947686Y-93585000D01*
X199450153Y-93585000D01*
X199525000Y-93599888D01*
X199599847Y-93585000D01*
X199599852Y-93585000D01*
X199821537Y-93540904D01*
X200072929Y-93372929D01*
X200115330Y-93309471D01*
X200264472Y-93160330D01*
X200327929Y-93117929D01*
X200495904Y-92866537D01*
X200540000Y-92644852D01*
X200540000Y-92644848D01*
X200554888Y-92570001D01*
X200540000Y-92495154D01*
X200540000Y-92296105D01*
X200989380Y-92109966D01*
X201589966Y-91509380D01*
X201915000Y-90724678D01*
X201915000Y-89875322D01*
X201589966Y-89090620D01*
X200989380Y-88490034D01*
X200204678Y-88165000D01*
X199355322Y-88165000D01*
X198570620Y-88490034D01*
X198035000Y-89025654D01*
X198035000Y-88673690D01*
X197938327Y-88440301D01*
X197759698Y-88261673D01*
X197526309Y-88165000D01*
X196185750Y-88165000D01*
X196027000Y-88323750D01*
X196027000Y-90173000D01*
X196047000Y-90173000D01*
X196047000Y-90427000D01*
X196027000Y-90427000D01*
X196027000Y-90447000D01*
X195773000Y-90447000D01*
X195773000Y-90427000D01*
X193923750Y-90427000D01*
X193765000Y-90585750D01*
X193765000Y-91926310D01*
X193822447Y-92065000D01*
X173432651Y-92065000D01*
X173130874Y-91940000D01*
X172719126Y-91940000D01*
X172338720Y-92097569D01*
X172047569Y-92388720D01*
X171890000Y-92769126D01*
X1684202Y-92769126D01*
X1644800Y-89869126D01*
X182165000Y-89869126D01*
X182165000Y-90280874D01*
X182322569Y-90661280D01*
X182613720Y-90952431D01*
X182994126Y-91110000D01*
X183405874Y-91110000D01*
X183786280Y-90952431D01*
X184077431Y-90661280D01*
X184109027Y-90585000D01*
X185322025Y-90585000D01*
X185693783Y-90956758D01*
X186184452Y-91160000D01*
X186715548Y-91160000D01*
X187206217Y-90956758D01*
X187581758Y-90581217D01*
X187785000Y-90090548D01*
X187785000Y-89559452D01*
X187581758Y-89068783D01*
X187206217Y-88693242D01*
X187159015Y-88673690D01*
X193765000Y-88673690D01*
X193765000Y-90014250D01*
X193923750Y-90173000D01*
X195773000Y-90173000D01*
X195773000Y-88323750D01*
X195614250Y-88165000D01*
X194273691Y-88165000D01*
X194040302Y-88261673D01*
X193861673Y-88440301D01*
X193765000Y-88673690D01*
X187159015Y-88673690D01*
X186715548Y-88490000D01*
X186184452Y-88490000D01*
X185693783Y-88693242D01*
X185322025Y-89065000D01*
X183524846Y-89065000D01*
X183449999Y-89050112D01*
X183436682Y-89052761D01*
X183405874Y-89040000D01*
X182994126Y-89040000D01*
X182613720Y-89197569D01*
X182322569Y-89488720D01*
X182165000Y-89869126D01*
X1644800Y-89869126D01*
X1569136Y-84300322D01*
X2965000Y-84300322D01*
X2965000Y-85149678D01*
X3290034Y-85934380D01*
X3890620Y-86534966D01*
X4675322Y-86860000D01*
X5524678Y-86860000D01*
X6309380Y-86534966D01*
X6909966Y-85934380D01*
X7235000Y-85149678D01*
X7235000Y-85025322D01*
X347865000Y-85025322D01*
X347865000Y-85874678D01*
X348190034Y-86659380D01*
X348790620Y-87259966D01*
X349575322Y-87585000D01*
X350424678Y-87585000D01*
X351209380Y-87259966D01*
X351809966Y-86659380D01*
X352135000Y-85874678D01*
X352135000Y-85025322D01*
X351809966Y-84240620D01*
X351209380Y-83640034D01*
X350424678Y-83315000D01*
X349575322Y-83315000D01*
X348790620Y-83640034D01*
X348190034Y-84240620D01*
X347865000Y-85025322D01*
X7235000Y-85025322D01*
X7235000Y-84300322D01*
X6909966Y-83515620D01*
X6309380Y-82915034D01*
X5524678Y-82590000D01*
X4675322Y-82590000D01*
X3890620Y-82915034D01*
X3290034Y-83515620D01*
X2965000Y-84300322D01*
X1569136Y-84300322D01*
X1528739Y-81327126D01*
X359118318Y-81676871D01*
M02*
