%TF.GenerationSoftware,KiCad,Pcbnew,(5.0.0)*%
%TF.CreationDate,2018-10-06T18:40:39-06:00*%
%TF.ProjectId,Lector infrarojoV2,4C6563746F7220696E667261726F6A6F,rev?*%
%TF.SameCoordinates,Original*%
%TF.FileFunction,Copper,L1,Top,Signal*%
%TF.FilePolarity,Positive*%
%FSLAX46Y46*%
G04 Gerber Fmt 4.6, Leading zero omitted, Abs format (unit mm)*
G04 Created by KiCad (PCBNEW (5.0.0)) date 10/06/18 18:40:39*
%MOMM*%
%LPD*%
G01*
G04 APERTURE LIST*
%ADD10R,1.800000X1.800000*%
%ADD11C,1.800000*%
%ADD12R,3.000000X3.000000*%
%ADD13C,3.000000*%
%ADD14C,1.400000*%
%ADD15O,1.400000X1.400000*%
%ADD16R,1.600000X0.550000*%
%ADD17R,0.550000X1.600000*%
%ADD18C,0.800000*%
%ADD19C,0.250000*%
%ADD20C,0.254000*%
G04 APERTURE END LIST*
D10*
X189100000Y-99625000D03*
D11*
X186560000Y-99625000D03*
D12*
X195900000Y-90300000D03*
D13*
X199780000Y-90300000D03*
D14*
X186450000Y-89825000D03*
D15*
X186450000Y-94905000D03*
D16*
X170100001Y-91250001D03*
X170100001Y-92050001D03*
X170100001Y-92850001D03*
X170100001Y-93650001D03*
X170100001Y-94450001D03*
X170100001Y-95250001D03*
X170100001Y-96050001D03*
X170100001Y-96850001D03*
D17*
X171550001Y-98300001D03*
X172350001Y-98300001D03*
X173150001Y-98300001D03*
X173950001Y-98300001D03*
X174750001Y-98300001D03*
X175550001Y-98300001D03*
X176350001Y-98300001D03*
X177150001Y-98300001D03*
D16*
X178600001Y-96850001D03*
X178600001Y-96050001D03*
X178600001Y-95250001D03*
X178600001Y-94450001D03*
X178600001Y-93650001D03*
X178600001Y-92850001D03*
X178600001Y-92050001D03*
X178600001Y-91250001D03*
D17*
X177150001Y-89800001D03*
X176350001Y-89800001D03*
X175550001Y-89800001D03*
X174750001Y-89800001D03*
X173950001Y-89800001D03*
X173150001Y-89800001D03*
X172350001Y-89800001D03*
X171550001Y-89800001D03*
D18*
X182000000Y-94600000D03*
X188950000Y-94525000D03*
X189200000Y-90150000D03*
X172925000Y-92975000D03*
X183200000Y-90075000D03*
D19*
X170100001Y-92850001D02*
X171524999Y-92850001D01*
X171524999Y-92850001D02*
X172050000Y-92325000D01*
X172050000Y-92325000D02*
X172050000Y-91600000D01*
X172050000Y-91600000D02*
X172700000Y-92250000D01*
X172700000Y-92250000D02*
X175050000Y-92250000D01*
X176450001Y-93650001D02*
X178600001Y-93650001D01*
X175050000Y-92250000D02*
X176450001Y-93650001D01*
X170100001Y-94450001D02*
X168000001Y-94450001D01*
X168000001Y-94450001D02*
X167500000Y-93950000D01*
X167500000Y-93950000D02*
X167500000Y-93075000D01*
X167724999Y-92850001D02*
X170100001Y-92850001D01*
X167500000Y-93075000D02*
X167724999Y-92850001D01*
X182000000Y-94600000D02*
X182000000Y-94425000D01*
X181225001Y-93650001D02*
X178600001Y-93650001D01*
X182000000Y-94425000D02*
X181225001Y-93650001D01*
X188950000Y-94525000D02*
X189200000Y-94275000D01*
X189200000Y-94275000D02*
X189200000Y-90150000D01*
X172925000Y-92975000D02*
X172249999Y-93650001D01*
X170100001Y-95250001D02*
X172625001Y-95250001D01*
X172125000Y-94750000D02*
X172125000Y-93650001D01*
X172625001Y-95250001D02*
X172125000Y-94750000D01*
X172249999Y-93650001D02*
X172125000Y-93650001D01*
X172125000Y-93650001D02*
X170100001Y-93650001D01*
X178600001Y-92050001D02*
X181224999Y-92050001D01*
X181224999Y-92050001D02*
X183200000Y-90075000D01*
D20*
G36*
X358395796Y-108673000D02*
X1477000Y-108673000D01*
X1477000Y-102850322D01*
X4840000Y-102850322D01*
X4840000Y-103699678D01*
X5165034Y-104484380D01*
X5765620Y-105084966D01*
X6550322Y-105410000D01*
X7399678Y-105410000D01*
X8184380Y-105084966D01*
X8619024Y-104650322D01*
X347865000Y-104650322D01*
X347865000Y-105499678D01*
X348190034Y-106284380D01*
X348790620Y-106884966D01*
X349575322Y-107210000D01*
X350424678Y-107210000D01*
X351209380Y-106884966D01*
X351809966Y-106284380D01*
X352135000Y-105499678D01*
X352135000Y-104650322D01*
X351809966Y-103865620D01*
X351209380Y-103265034D01*
X350424678Y-102940000D01*
X349575322Y-102940000D01*
X348790620Y-103265034D01*
X348190034Y-103865620D01*
X347865000Y-104650322D01*
X8619024Y-104650322D01*
X8784966Y-104484380D01*
X9110000Y-103699678D01*
X9110000Y-102850322D01*
X8784966Y-102065620D01*
X8184380Y-101465034D01*
X7399678Y-101140000D01*
X6550322Y-101140000D01*
X5765620Y-101465034D01*
X5165034Y-102065620D01*
X4840000Y-102850322D01*
X1477000Y-102850322D01*
X1477000Y-90975001D01*
X168652561Y-90975001D01*
X168652561Y-91525001D01*
X168677425Y-91650001D01*
X168652561Y-91775001D01*
X168652561Y-92325001D01*
X168673218Y-92428853D01*
X168665001Y-92448691D01*
X168665001Y-92564251D01*
X168758889Y-92658139D01*
X168842192Y-92782810D01*
X168942750Y-92850001D01*
X168842192Y-92917192D01*
X168758889Y-93041863D01*
X168665001Y-93135751D01*
X168665001Y-93251311D01*
X168673218Y-93271149D01*
X168652561Y-93375001D01*
X168652561Y-93925001D01*
X168673218Y-94028853D01*
X168665001Y-94048691D01*
X168665001Y-94164251D01*
X168758889Y-94258139D01*
X168842192Y-94382810D01*
X168942750Y-94450001D01*
X168842192Y-94517192D01*
X168758889Y-94641863D01*
X168665001Y-94735751D01*
X168665001Y-94851311D01*
X168673218Y-94871149D01*
X168652561Y-94975001D01*
X168652561Y-95525001D01*
X168677425Y-95650001D01*
X168652561Y-95775001D01*
X168652561Y-96325001D01*
X168677425Y-96450001D01*
X168652561Y-96575001D01*
X168652561Y-97125001D01*
X168701844Y-97372766D01*
X168842192Y-97582810D01*
X169052236Y-97723158D01*
X169300001Y-97772441D01*
X170627561Y-97772441D01*
X170627561Y-99100001D01*
X170676844Y-99347766D01*
X170817192Y-99557810D01*
X171027236Y-99698158D01*
X171275001Y-99747441D01*
X171825001Y-99747441D01*
X171950001Y-99722577D01*
X172075001Y-99747441D01*
X172625001Y-99747441D01*
X172750001Y-99722577D01*
X172875001Y-99747441D01*
X173425001Y-99747441D01*
X173550001Y-99722577D01*
X173675001Y-99747441D01*
X174225001Y-99747441D01*
X174350001Y-99722577D01*
X174475001Y-99747441D01*
X175025001Y-99747441D01*
X175150001Y-99722577D01*
X175275001Y-99747441D01*
X175825001Y-99747441D01*
X175950001Y-99722577D01*
X176075001Y-99747441D01*
X176625001Y-99747441D01*
X176750001Y-99722577D01*
X176875001Y-99747441D01*
X177425001Y-99747441D01*
X177672766Y-99698158D01*
X177882810Y-99557810D01*
X178023158Y-99347766D01*
X178028746Y-99319670D01*
X185025000Y-99319670D01*
X185025000Y-99930330D01*
X185258690Y-100494507D01*
X185690493Y-100926310D01*
X186254670Y-101160000D01*
X186865330Y-101160000D01*
X187429507Y-100926310D01*
X187605861Y-100749956D01*
X187661673Y-100884699D01*
X187840302Y-101063327D01*
X188073691Y-101160000D01*
X188814250Y-101160000D01*
X188973000Y-101001250D01*
X188973000Y-99752000D01*
X189227000Y-99752000D01*
X189227000Y-101001250D01*
X189385750Y-101160000D01*
X190126309Y-101160000D01*
X190359698Y-101063327D01*
X190538327Y-100884699D01*
X190635000Y-100651310D01*
X190635000Y-99910750D01*
X190476250Y-99752000D01*
X189227000Y-99752000D01*
X188973000Y-99752000D01*
X188953000Y-99752000D01*
X188953000Y-99498000D01*
X188973000Y-99498000D01*
X188973000Y-98248750D01*
X189227000Y-98248750D01*
X189227000Y-99498000D01*
X190476250Y-99498000D01*
X190635000Y-99339250D01*
X190635000Y-98598690D01*
X190538327Y-98365301D01*
X190359698Y-98186673D01*
X190126309Y-98090000D01*
X189385750Y-98090000D01*
X189227000Y-98248750D01*
X188973000Y-98248750D01*
X188814250Y-98090000D01*
X188073691Y-98090000D01*
X187840302Y-98186673D01*
X187661673Y-98365301D01*
X187605861Y-98500044D01*
X187429507Y-98323690D01*
X186865330Y-98090000D01*
X186254670Y-98090000D01*
X185690493Y-98323690D01*
X185258690Y-98755493D01*
X185025000Y-99319670D01*
X178028746Y-99319670D01*
X178072441Y-99100001D01*
X178072441Y-97772441D01*
X179400001Y-97772441D01*
X179647766Y-97723158D01*
X179857810Y-97582810D01*
X179998158Y-97372766D01*
X180047441Y-97125001D01*
X180047441Y-96575001D01*
X180022577Y-96450001D01*
X180047441Y-96325001D01*
X180047441Y-95775001D01*
X180022577Y-95650001D01*
X180047441Y-95525001D01*
X180047441Y-94975001D01*
X180033517Y-94905000D01*
X185088846Y-94905000D01*
X185192458Y-95425891D01*
X185487519Y-95867481D01*
X185929109Y-96162542D01*
X186318515Y-96240000D01*
X186581485Y-96240000D01*
X186970891Y-96162542D01*
X187412481Y-95867481D01*
X187707542Y-95425891D01*
X187811154Y-94905000D01*
X187707542Y-94384109D01*
X187412481Y-93942519D01*
X186970891Y-93647458D01*
X186581485Y-93570000D01*
X186318515Y-93570000D01*
X185929109Y-93647458D01*
X185487519Y-93942519D01*
X185192458Y-94384109D01*
X185088846Y-94905000D01*
X180033517Y-94905000D01*
X180022577Y-94850001D01*
X180047441Y-94725001D01*
X180047441Y-94175001D01*
X180026784Y-94071149D01*
X180035001Y-94051311D01*
X180035001Y-93935751D01*
X179941113Y-93841863D01*
X179857810Y-93717192D01*
X179757252Y-93650001D01*
X179857810Y-93582810D01*
X179941113Y-93458139D01*
X180035001Y-93364251D01*
X180035001Y-93248691D01*
X180026784Y-93228853D01*
X180047441Y-93125001D01*
X180047441Y-92810001D01*
X181150152Y-92810001D01*
X181224999Y-92824889D01*
X181299846Y-92810001D01*
X181299851Y-92810001D01*
X181521536Y-92765905D01*
X181772928Y-92597930D01*
X181815330Y-92534471D01*
X183239802Y-91110000D01*
X183405874Y-91110000D01*
X183786280Y-90952431D01*
X184077431Y-90661280D01*
X184235000Y-90280874D01*
X184235000Y-89869126D01*
X184106730Y-89559452D01*
X185115000Y-89559452D01*
X185115000Y-90090548D01*
X185318242Y-90581217D01*
X185693783Y-90956758D01*
X186184452Y-91160000D01*
X186715548Y-91160000D01*
X187206217Y-90956758D01*
X187577225Y-90585750D01*
X193765000Y-90585750D01*
X193765000Y-91926310D01*
X193861673Y-92159699D01*
X194040302Y-92338327D01*
X194273691Y-92435000D01*
X195614250Y-92435000D01*
X195773000Y-92276250D01*
X195773000Y-90427000D01*
X193923750Y-90427000D01*
X193765000Y-90585750D01*
X187577225Y-90585750D01*
X187581758Y-90581217D01*
X187785000Y-90090548D01*
X187785000Y-89559452D01*
X187581758Y-89068783D01*
X187206217Y-88693242D01*
X187159015Y-88673690D01*
X193765000Y-88673690D01*
X193765000Y-90014250D01*
X193923750Y-90173000D01*
X195773000Y-90173000D01*
X195773000Y-88323750D01*
X196027000Y-88323750D01*
X196027000Y-90173000D01*
X196047000Y-90173000D01*
X196047000Y-90427000D01*
X196027000Y-90427000D01*
X196027000Y-92276250D01*
X196185750Y-92435000D01*
X197526309Y-92435000D01*
X197759698Y-92338327D01*
X197938327Y-92159699D01*
X198035000Y-91926310D01*
X198035000Y-91574346D01*
X198570620Y-92109966D01*
X199355322Y-92435000D01*
X200204678Y-92435000D01*
X200989380Y-92109966D01*
X201589966Y-91509380D01*
X201915000Y-90724678D01*
X201915000Y-89875322D01*
X201589966Y-89090620D01*
X200989380Y-88490034D01*
X200204678Y-88165000D01*
X199355322Y-88165000D01*
X198570620Y-88490034D01*
X198035000Y-89025654D01*
X198035000Y-88673690D01*
X197938327Y-88440301D01*
X197759698Y-88261673D01*
X197526309Y-88165000D01*
X196185750Y-88165000D01*
X196027000Y-88323750D01*
X195773000Y-88323750D01*
X195614250Y-88165000D01*
X194273691Y-88165000D01*
X194040302Y-88261673D01*
X193861673Y-88440301D01*
X193765000Y-88673690D01*
X187159015Y-88673690D01*
X186715548Y-88490000D01*
X186184452Y-88490000D01*
X185693783Y-88693242D01*
X185318242Y-89068783D01*
X185115000Y-89559452D01*
X184106730Y-89559452D01*
X184077431Y-89488720D01*
X183786280Y-89197569D01*
X183405874Y-89040000D01*
X182994126Y-89040000D01*
X182613720Y-89197569D01*
X182322569Y-89488720D01*
X182165000Y-89869126D01*
X182165000Y-90035198D01*
X180910198Y-91290001D01*
X180047441Y-91290001D01*
X180047441Y-90975001D01*
X179998158Y-90727236D01*
X179857810Y-90517192D01*
X179647766Y-90376844D01*
X179400001Y-90327561D01*
X178072441Y-90327561D01*
X178072441Y-89000001D01*
X178023158Y-88752236D01*
X177882810Y-88542192D01*
X177672766Y-88401844D01*
X177425001Y-88352561D01*
X176875001Y-88352561D01*
X176750001Y-88377425D01*
X176625001Y-88352561D01*
X176075001Y-88352561D01*
X175950001Y-88377425D01*
X175825001Y-88352561D01*
X175275001Y-88352561D01*
X175150001Y-88377425D01*
X175025001Y-88352561D01*
X174475001Y-88352561D01*
X174350001Y-88377425D01*
X174225001Y-88352561D01*
X173675001Y-88352561D01*
X173550001Y-88377425D01*
X173425001Y-88352561D01*
X172875001Y-88352561D01*
X172750001Y-88377425D01*
X172625001Y-88352561D01*
X172075001Y-88352561D01*
X171950001Y-88377425D01*
X171825001Y-88352561D01*
X171275001Y-88352561D01*
X171027236Y-88401844D01*
X170817192Y-88542192D01*
X170676844Y-88752236D01*
X170627561Y-89000001D01*
X170627561Y-90327561D01*
X169300001Y-90327561D01*
X169052236Y-90376844D01*
X168842192Y-90517192D01*
X168701844Y-90727236D01*
X168652561Y-90975001D01*
X1477000Y-90975001D01*
X1477000Y-84300322D01*
X2965000Y-84300322D01*
X2965000Y-85149678D01*
X3290034Y-85934380D01*
X3890620Y-86534966D01*
X4675322Y-86860000D01*
X5524678Y-86860000D01*
X6309380Y-86534966D01*
X6909966Y-85934380D01*
X7235000Y-85149678D01*
X7235000Y-85025322D01*
X347865000Y-85025322D01*
X347865000Y-85874678D01*
X348190034Y-86659380D01*
X348790620Y-87259966D01*
X349575322Y-87585000D01*
X350424678Y-87585000D01*
X351209380Y-87259966D01*
X351809966Y-86659380D01*
X352135000Y-85874678D01*
X352135000Y-85025322D01*
X351809966Y-84240620D01*
X351209380Y-83640034D01*
X350424678Y-83315000D01*
X349575322Y-83315000D01*
X348790620Y-83640034D01*
X348190034Y-84240620D01*
X347865000Y-85025322D01*
X7235000Y-85025322D01*
X7235000Y-84300322D01*
X6909966Y-83515620D01*
X6309380Y-82915034D01*
X5524678Y-82590000D01*
X4675322Y-82590000D01*
X3890620Y-82915034D01*
X3290034Y-83515620D01*
X2965000Y-84300322D01*
X1477000Y-84300322D01*
X1477000Y-82051742D01*
X357925171Y-81327254D01*
X358395796Y-108673000D01*
X358395796Y-108673000D01*
G37*
X358395796Y-108673000D02*
X1477000Y-108673000D01*
X1477000Y-102850322D01*
X4840000Y-102850322D01*
X4840000Y-103699678D01*
X5165034Y-104484380D01*
X5765620Y-105084966D01*
X6550322Y-105410000D01*
X7399678Y-105410000D01*
X8184380Y-105084966D01*
X8619024Y-104650322D01*
X347865000Y-104650322D01*
X347865000Y-105499678D01*
X348190034Y-106284380D01*
X348790620Y-106884966D01*
X349575322Y-107210000D01*
X350424678Y-107210000D01*
X351209380Y-106884966D01*
X351809966Y-106284380D01*
X352135000Y-105499678D01*
X352135000Y-104650322D01*
X351809966Y-103865620D01*
X351209380Y-103265034D01*
X350424678Y-102940000D01*
X349575322Y-102940000D01*
X348790620Y-103265034D01*
X348190034Y-103865620D01*
X347865000Y-104650322D01*
X8619024Y-104650322D01*
X8784966Y-104484380D01*
X9110000Y-103699678D01*
X9110000Y-102850322D01*
X8784966Y-102065620D01*
X8184380Y-101465034D01*
X7399678Y-101140000D01*
X6550322Y-101140000D01*
X5765620Y-101465034D01*
X5165034Y-102065620D01*
X4840000Y-102850322D01*
X1477000Y-102850322D01*
X1477000Y-90975001D01*
X168652561Y-90975001D01*
X168652561Y-91525001D01*
X168677425Y-91650001D01*
X168652561Y-91775001D01*
X168652561Y-92325001D01*
X168673218Y-92428853D01*
X168665001Y-92448691D01*
X168665001Y-92564251D01*
X168758889Y-92658139D01*
X168842192Y-92782810D01*
X168942750Y-92850001D01*
X168842192Y-92917192D01*
X168758889Y-93041863D01*
X168665001Y-93135751D01*
X168665001Y-93251311D01*
X168673218Y-93271149D01*
X168652561Y-93375001D01*
X168652561Y-93925001D01*
X168673218Y-94028853D01*
X168665001Y-94048691D01*
X168665001Y-94164251D01*
X168758889Y-94258139D01*
X168842192Y-94382810D01*
X168942750Y-94450001D01*
X168842192Y-94517192D01*
X168758889Y-94641863D01*
X168665001Y-94735751D01*
X168665001Y-94851311D01*
X168673218Y-94871149D01*
X168652561Y-94975001D01*
X168652561Y-95525001D01*
X168677425Y-95650001D01*
X168652561Y-95775001D01*
X168652561Y-96325001D01*
X168677425Y-96450001D01*
X168652561Y-96575001D01*
X168652561Y-97125001D01*
X168701844Y-97372766D01*
X168842192Y-97582810D01*
X169052236Y-97723158D01*
X169300001Y-97772441D01*
X170627561Y-97772441D01*
X170627561Y-99100001D01*
X170676844Y-99347766D01*
X170817192Y-99557810D01*
X171027236Y-99698158D01*
X171275001Y-99747441D01*
X171825001Y-99747441D01*
X171950001Y-99722577D01*
X172075001Y-99747441D01*
X172625001Y-99747441D01*
X172750001Y-99722577D01*
X172875001Y-99747441D01*
X173425001Y-99747441D01*
X173550001Y-99722577D01*
X173675001Y-99747441D01*
X174225001Y-99747441D01*
X174350001Y-99722577D01*
X174475001Y-99747441D01*
X175025001Y-99747441D01*
X175150001Y-99722577D01*
X175275001Y-99747441D01*
X175825001Y-99747441D01*
X175950001Y-99722577D01*
X176075001Y-99747441D01*
X176625001Y-99747441D01*
X176750001Y-99722577D01*
X176875001Y-99747441D01*
X177425001Y-99747441D01*
X177672766Y-99698158D01*
X177882810Y-99557810D01*
X178023158Y-99347766D01*
X178028746Y-99319670D01*
X185025000Y-99319670D01*
X185025000Y-99930330D01*
X185258690Y-100494507D01*
X185690493Y-100926310D01*
X186254670Y-101160000D01*
X186865330Y-101160000D01*
X187429507Y-100926310D01*
X187605861Y-100749956D01*
X187661673Y-100884699D01*
X187840302Y-101063327D01*
X188073691Y-101160000D01*
X188814250Y-101160000D01*
X188973000Y-101001250D01*
X188973000Y-99752000D01*
X189227000Y-99752000D01*
X189227000Y-101001250D01*
X189385750Y-101160000D01*
X190126309Y-101160000D01*
X190359698Y-101063327D01*
X190538327Y-100884699D01*
X190635000Y-100651310D01*
X190635000Y-99910750D01*
X190476250Y-99752000D01*
X189227000Y-99752000D01*
X188973000Y-99752000D01*
X188953000Y-99752000D01*
X188953000Y-99498000D01*
X188973000Y-99498000D01*
X188973000Y-98248750D01*
X189227000Y-98248750D01*
X189227000Y-99498000D01*
X190476250Y-99498000D01*
X190635000Y-99339250D01*
X190635000Y-98598690D01*
X190538327Y-98365301D01*
X190359698Y-98186673D01*
X190126309Y-98090000D01*
X189385750Y-98090000D01*
X189227000Y-98248750D01*
X188973000Y-98248750D01*
X188814250Y-98090000D01*
X188073691Y-98090000D01*
X187840302Y-98186673D01*
X187661673Y-98365301D01*
X187605861Y-98500044D01*
X187429507Y-98323690D01*
X186865330Y-98090000D01*
X186254670Y-98090000D01*
X185690493Y-98323690D01*
X185258690Y-98755493D01*
X185025000Y-99319670D01*
X178028746Y-99319670D01*
X178072441Y-99100001D01*
X178072441Y-97772441D01*
X179400001Y-97772441D01*
X179647766Y-97723158D01*
X179857810Y-97582810D01*
X179998158Y-97372766D01*
X180047441Y-97125001D01*
X180047441Y-96575001D01*
X180022577Y-96450001D01*
X180047441Y-96325001D01*
X180047441Y-95775001D01*
X180022577Y-95650001D01*
X180047441Y-95525001D01*
X180047441Y-94975001D01*
X180033517Y-94905000D01*
X185088846Y-94905000D01*
X185192458Y-95425891D01*
X185487519Y-95867481D01*
X185929109Y-96162542D01*
X186318515Y-96240000D01*
X186581485Y-96240000D01*
X186970891Y-96162542D01*
X187412481Y-95867481D01*
X187707542Y-95425891D01*
X187811154Y-94905000D01*
X187707542Y-94384109D01*
X187412481Y-93942519D01*
X186970891Y-93647458D01*
X186581485Y-93570000D01*
X186318515Y-93570000D01*
X185929109Y-93647458D01*
X185487519Y-93942519D01*
X185192458Y-94384109D01*
X185088846Y-94905000D01*
X180033517Y-94905000D01*
X180022577Y-94850001D01*
X180047441Y-94725001D01*
X180047441Y-94175001D01*
X180026784Y-94071149D01*
X180035001Y-94051311D01*
X180035001Y-93935751D01*
X179941113Y-93841863D01*
X179857810Y-93717192D01*
X179757252Y-93650001D01*
X179857810Y-93582810D01*
X179941113Y-93458139D01*
X180035001Y-93364251D01*
X180035001Y-93248691D01*
X180026784Y-93228853D01*
X180047441Y-93125001D01*
X180047441Y-92810001D01*
X181150152Y-92810001D01*
X181224999Y-92824889D01*
X181299846Y-92810001D01*
X181299851Y-92810001D01*
X181521536Y-92765905D01*
X181772928Y-92597930D01*
X181815330Y-92534471D01*
X183239802Y-91110000D01*
X183405874Y-91110000D01*
X183786280Y-90952431D01*
X184077431Y-90661280D01*
X184235000Y-90280874D01*
X184235000Y-89869126D01*
X184106730Y-89559452D01*
X185115000Y-89559452D01*
X185115000Y-90090548D01*
X185318242Y-90581217D01*
X185693783Y-90956758D01*
X186184452Y-91160000D01*
X186715548Y-91160000D01*
X187206217Y-90956758D01*
X187577225Y-90585750D01*
X193765000Y-90585750D01*
X193765000Y-91926310D01*
X193861673Y-92159699D01*
X194040302Y-92338327D01*
X194273691Y-92435000D01*
X195614250Y-92435000D01*
X195773000Y-92276250D01*
X195773000Y-90427000D01*
X193923750Y-90427000D01*
X193765000Y-90585750D01*
X187577225Y-90585750D01*
X187581758Y-90581217D01*
X187785000Y-90090548D01*
X187785000Y-89559452D01*
X187581758Y-89068783D01*
X187206217Y-88693242D01*
X187159015Y-88673690D01*
X193765000Y-88673690D01*
X193765000Y-90014250D01*
X193923750Y-90173000D01*
X195773000Y-90173000D01*
X195773000Y-88323750D01*
X196027000Y-88323750D01*
X196027000Y-90173000D01*
X196047000Y-90173000D01*
X196047000Y-90427000D01*
X196027000Y-90427000D01*
X196027000Y-92276250D01*
X196185750Y-92435000D01*
X197526309Y-92435000D01*
X197759698Y-92338327D01*
X197938327Y-92159699D01*
X198035000Y-91926310D01*
X198035000Y-91574346D01*
X198570620Y-92109966D01*
X199355322Y-92435000D01*
X200204678Y-92435000D01*
X200989380Y-92109966D01*
X201589966Y-91509380D01*
X201915000Y-90724678D01*
X201915000Y-89875322D01*
X201589966Y-89090620D01*
X200989380Y-88490034D01*
X200204678Y-88165000D01*
X199355322Y-88165000D01*
X198570620Y-88490034D01*
X198035000Y-89025654D01*
X198035000Y-88673690D01*
X197938327Y-88440301D01*
X197759698Y-88261673D01*
X197526309Y-88165000D01*
X196185750Y-88165000D01*
X196027000Y-88323750D01*
X195773000Y-88323750D01*
X195614250Y-88165000D01*
X194273691Y-88165000D01*
X194040302Y-88261673D01*
X193861673Y-88440301D01*
X193765000Y-88673690D01*
X187159015Y-88673690D01*
X186715548Y-88490000D01*
X186184452Y-88490000D01*
X185693783Y-88693242D01*
X185318242Y-89068783D01*
X185115000Y-89559452D01*
X184106730Y-89559452D01*
X184077431Y-89488720D01*
X183786280Y-89197569D01*
X183405874Y-89040000D01*
X182994126Y-89040000D01*
X182613720Y-89197569D01*
X182322569Y-89488720D01*
X182165000Y-89869126D01*
X182165000Y-90035198D01*
X180910198Y-91290001D01*
X180047441Y-91290001D01*
X180047441Y-90975001D01*
X179998158Y-90727236D01*
X179857810Y-90517192D01*
X179647766Y-90376844D01*
X179400001Y-90327561D01*
X178072441Y-90327561D01*
X178072441Y-89000001D01*
X178023158Y-88752236D01*
X177882810Y-88542192D01*
X177672766Y-88401844D01*
X177425001Y-88352561D01*
X176875001Y-88352561D01*
X176750001Y-88377425D01*
X176625001Y-88352561D01*
X176075001Y-88352561D01*
X175950001Y-88377425D01*
X175825001Y-88352561D01*
X175275001Y-88352561D01*
X175150001Y-88377425D01*
X175025001Y-88352561D01*
X174475001Y-88352561D01*
X174350001Y-88377425D01*
X174225001Y-88352561D01*
X173675001Y-88352561D01*
X173550001Y-88377425D01*
X173425001Y-88352561D01*
X172875001Y-88352561D01*
X172750001Y-88377425D01*
X172625001Y-88352561D01*
X172075001Y-88352561D01*
X171950001Y-88377425D01*
X171825001Y-88352561D01*
X171275001Y-88352561D01*
X171027236Y-88401844D01*
X170817192Y-88542192D01*
X170676844Y-88752236D01*
X170627561Y-89000001D01*
X170627561Y-90327561D01*
X169300001Y-90327561D01*
X169052236Y-90376844D01*
X168842192Y-90517192D01*
X168701844Y-90727236D01*
X168652561Y-90975001D01*
X1477000Y-90975001D01*
X1477000Y-84300322D01*
X2965000Y-84300322D01*
X2965000Y-85149678D01*
X3290034Y-85934380D01*
X3890620Y-86534966D01*
X4675322Y-86860000D01*
X5524678Y-86860000D01*
X6309380Y-86534966D01*
X6909966Y-85934380D01*
X7235000Y-85149678D01*
X7235000Y-85025322D01*
X347865000Y-85025322D01*
X347865000Y-85874678D01*
X348190034Y-86659380D01*
X348790620Y-87259966D01*
X349575322Y-87585000D01*
X350424678Y-87585000D01*
X351209380Y-87259966D01*
X351809966Y-86659380D01*
X352135000Y-85874678D01*
X352135000Y-85025322D01*
X351809966Y-84240620D01*
X351209380Y-83640034D01*
X350424678Y-83315000D01*
X349575322Y-83315000D01*
X348790620Y-83640034D01*
X348190034Y-84240620D01*
X347865000Y-85025322D01*
X7235000Y-85025322D01*
X7235000Y-84300322D01*
X6909966Y-83515620D01*
X6309380Y-82915034D01*
X5524678Y-82590000D01*
X4675322Y-82590000D01*
X3890620Y-82915034D01*
X3290034Y-83515620D01*
X2965000Y-84300322D01*
X1477000Y-84300322D01*
X1477000Y-82051742D01*
X357925171Y-81327254D01*
X358395796Y-108673000D01*
G36*
X176875001Y-91247441D02*
X177152561Y-91247441D01*
X177152561Y-91525001D01*
X177177425Y-91650001D01*
X177152561Y-91775001D01*
X177152561Y-92325001D01*
X177177425Y-92450001D01*
X177152561Y-92575001D01*
X177152561Y-93125001D01*
X177173218Y-93228853D01*
X177165001Y-93248691D01*
X177165001Y-93364251D01*
X177258889Y-93458139D01*
X177342192Y-93582810D01*
X177442750Y-93650001D01*
X177342192Y-93717192D01*
X177258889Y-93841863D01*
X177165001Y-93935751D01*
X177165001Y-94051311D01*
X177173218Y-94071149D01*
X177152561Y-94175001D01*
X177152561Y-94725001D01*
X177177425Y-94850001D01*
X177152561Y-94975001D01*
X177152561Y-95525001D01*
X177177425Y-95650001D01*
X177152561Y-95775001D01*
X177152561Y-96325001D01*
X177177425Y-96450001D01*
X177152561Y-96575001D01*
X177152561Y-96852561D01*
X176875001Y-96852561D01*
X176750001Y-96877425D01*
X176625001Y-96852561D01*
X176075001Y-96852561D01*
X175950001Y-96877425D01*
X175825001Y-96852561D01*
X175275001Y-96852561D01*
X175150001Y-96877425D01*
X175025001Y-96852561D01*
X174475001Y-96852561D01*
X174350001Y-96877425D01*
X174225001Y-96852561D01*
X173675001Y-96852561D01*
X173550001Y-96877425D01*
X173425001Y-96852561D01*
X172875001Y-96852561D01*
X172750001Y-96877425D01*
X172625001Y-96852561D01*
X172075001Y-96852561D01*
X171950001Y-96877425D01*
X171825001Y-96852561D01*
X171547441Y-96852561D01*
X171547441Y-96575001D01*
X171522577Y-96450001D01*
X171547441Y-96325001D01*
X171547441Y-96010001D01*
X172550153Y-96010001D01*
X172625000Y-96024889D01*
X172699847Y-96010001D01*
X172699853Y-96010001D01*
X172921538Y-95965905D01*
X173172930Y-95797930D01*
X173340905Y-95546538D01*
X173399890Y-95250001D01*
X173340905Y-94953464D01*
X173172930Y-94702072D01*
X173109473Y-94659672D01*
X172885000Y-94435199D01*
X172885000Y-94089801D01*
X172964801Y-94010000D01*
X173130874Y-94010000D01*
X173511280Y-93852431D01*
X173802431Y-93561280D01*
X173960000Y-93180874D01*
X173960000Y-92769126D01*
X173802431Y-92388720D01*
X173511280Y-92097569D01*
X173130874Y-91940000D01*
X172719126Y-91940000D01*
X172338720Y-92097569D01*
X172047569Y-92388720D01*
X171890000Y-92769126D01*
X171890000Y-92890001D01*
X171317116Y-92890001D01*
X171257252Y-92850001D01*
X171357810Y-92782810D01*
X171441113Y-92658139D01*
X171535001Y-92564251D01*
X171535001Y-92448691D01*
X171526784Y-92428853D01*
X171547441Y-92325001D01*
X171547441Y-91775001D01*
X171522577Y-91650001D01*
X171547441Y-91525001D01*
X171547441Y-91247441D01*
X171825001Y-91247441D01*
X171950001Y-91222577D01*
X172075001Y-91247441D01*
X172625001Y-91247441D01*
X172750001Y-91222577D01*
X172875001Y-91247441D01*
X173425001Y-91247441D01*
X173550001Y-91222577D01*
X173675001Y-91247441D01*
X174225001Y-91247441D01*
X174350001Y-91222577D01*
X174475001Y-91247441D01*
X175025001Y-91247441D01*
X175150001Y-91222577D01*
X175275001Y-91247441D01*
X175825001Y-91247441D01*
X175950001Y-91222577D01*
X176075001Y-91247441D01*
X176625001Y-91247441D01*
X176750001Y-91222577D01*
X176875001Y-91247441D01*
X176875001Y-91247441D01*
G37*
X176875001Y-91247441D02*
X177152561Y-91247441D01*
X177152561Y-91525001D01*
X177177425Y-91650001D01*
X177152561Y-91775001D01*
X177152561Y-92325001D01*
X177177425Y-92450001D01*
X177152561Y-92575001D01*
X177152561Y-93125001D01*
X177173218Y-93228853D01*
X177165001Y-93248691D01*
X177165001Y-93364251D01*
X177258889Y-93458139D01*
X177342192Y-93582810D01*
X177442750Y-93650001D01*
X177342192Y-93717192D01*
X177258889Y-93841863D01*
X177165001Y-93935751D01*
X177165001Y-94051311D01*
X177173218Y-94071149D01*
X177152561Y-94175001D01*
X177152561Y-94725001D01*
X177177425Y-94850001D01*
X177152561Y-94975001D01*
X177152561Y-95525001D01*
X177177425Y-95650001D01*
X177152561Y-95775001D01*
X177152561Y-96325001D01*
X177177425Y-96450001D01*
X177152561Y-96575001D01*
X177152561Y-96852561D01*
X176875001Y-96852561D01*
X176750001Y-96877425D01*
X176625001Y-96852561D01*
X176075001Y-96852561D01*
X175950001Y-96877425D01*
X175825001Y-96852561D01*
X175275001Y-96852561D01*
X175150001Y-96877425D01*
X175025001Y-96852561D01*
X174475001Y-96852561D01*
X174350001Y-96877425D01*
X174225001Y-96852561D01*
X173675001Y-96852561D01*
X173550001Y-96877425D01*
X173425001Y-96852561D01*
X172875001Y-96852561D01*
X172750001Y-96877425D01*
X172625001Y-96852561D01*
X172075001Y-96852561D01*
X171950001Y-96877425D01*
X171825001Y-96852561D01*
X171547441Y-96852561D01*
X171547441Y-96575001D01*
X171522577Y-96450001D01*
X171547441Y-96325001D01*
X171547441Y-96010001D01*
X172550153Y-96010001D01*
X172625000Y-96024889D01*
X172699847Y-96010001D01*
X172699853Y-96010001D01*
X172921538Y-95965905D01*
X173172930Y-95797930D01*
X173340905Y-95546538D01*
X173399890Y-95250001D01*
X173340905Y-94953464D01*
X173172930Y-94702072D01*
X173109473Y-94659672D01*
X172885000Y-94435199D01*
X172885000Y-94089801D01*
X172964801Y-94010000D01*
X173130874Y-94010000D01*
X173511280Y-93852431D01*
X173802431Y-93561280D01*
X173960000Y-93180874D01*
X173960000Y-92769126D01*
X173802431Y-92388720D01*
X173511280Y-92097569D01*
X173130874Y-91940000D01*
X172719126Y-91940000D01*
X172338720Y-92097569D01*
X172047569Y-92388720D01*
X171890000Y-92769126D01*
X171890000Y-92890001D01*
X171317116Y-92890001D01*
X171257252Y-92850001D01*
X171357810Y-92782810D01*
X171441113Y-92658139D01*
X171535001Y-92564251D01*
X171535001Y-92448691D01*
X171526784Y-92428853D01*
X171547441Y-92325001D01*
X171547441Y-91775001D01*
X171522577Y-91650001D01*
X171547441Y-91525001D01*
X171547441Y-91247441D01*
X171825001Y-91247441D01*
X171950001Y-91222577D01*
X172075001Y-91247441D01*
X172625001Y-91247441D01*
X172750001Y-91222577D01*
X172875001Y-91247441D01*
X173425001Y-91247441D01*
X173550001Y-91222577D01*
X173675001Y-91247441D01*
X174225001Y-91247441D01*
X174350001Y-91222577D01*
X174475001Y-91247441D01*
X175025001Y-91247441D01*
X175150001Y-91222577D01*
X175275001Y-91247441D01*
X175825001Y-91247441D01*
X175950001Y-91222577D01*
X176075001Y-91247441D01*
X176625001Y-91247441D01*
X176750001Y-91222577D01*
X176875001Y-91247441D01*
M02*
