%TF.GenerationSoftware,KiCad,Pcbnew,(5.0.0)*%
%TF.CreationDate,2018-10-06T18:40:40-06:00*%
%TF.ProjectId,Lector infrarojoV2,4C6563746F7220696E667261726F6A6F,rev?*%
%TF.SameCoordinates,Original*%
%TF.FileFunction,Soldermask,Top*%
%TF.FilePolarity,Negative*%
%FSLAX46Y46*%
G04 Gerber Fmt 4.6, Leading zero omitted, Abs format (unit mm)*
G04 Created by KiCad (PCBNEW (5.0.0)) date 10/06/18 18:40:40*
%MOMM*%
%LPD*%
G01*
G04 APERTURE LIST*
%ADD10C,3.400000*%
%ADD11R,2.200000X2.200000*%
%ADD12C,2.200000*%
%ADD13R,3.400000X3.400000*%
%ADD14C,1.800000*%
%ADD15O,1.800000X1.800000*%
%ADD16R,2.000000X0.950000*%
%ADD17R,0.950000X2.000000*%
G04 APERTURE END LIST*
D10*
X5100000Y-84725000D03*
X6975000Y-103275000D03*
X350000000Y-85450000D03*
X350000000Y-105075000D03*
D11*
X189100000Y-99625000D03*
D12*
X186560000Y-99625000D03*
D13*
X195900000Y-90300000D03*
D10*
X199780000Y-90300000D03*
D14*
X186450000Y-89825000D03*
D15*
X186450000Y-94905000D03*
D16*
X170100001Y-91250001D03*
X170100001Y-92050001D03*
X170100001Y-92850001D03*
X170100001Y-93650001D03*
X170100001Y-94450001D03*
X170100001Y-95250001D03*
X170100001Y-96050001D03*
X170100001Y-96850001D03*
D17*
X171550001Y-98300001D03*
X172350001Y-98300001D03*
X173150001Y-98300001D03*
X173950001Y-98300001D03*
X174750001Y-98300001D03*
X175550001Y-98300001D03*
X176350001Y-98300001D03*
X177150001Y-98300001D03*
D16*
X178600001Y-96850001D03*
X178600001Y-96050001D03*
X178600001Y-95250001D03*
X178600001Y-94450001D03*
X178600001Y-93650001D03*
X178600001Y-92850001D03*
X178600001Y-92050001D03*
X178600001Y-91250001D03*
D17*
X177150001Y-89800001D03*
X176350001Y-89800001D03*
X175550001Y-89800001D03*
X174750001Y-89800001D03*
X173950001Y-89800001D03*
X173150001Y-89800001D03*
X172350001Y-89800001D03*
X171550001Y-89800001D03*
M02*
