G04 #@! TF.GenerationSoftware,KiCad,Pcbnew,(5.0.0)*
G04 #@! TF.CreationDate,2018-10-04T10:38:30-06:00*
G04 #@! TF.ProjectId,Medidor_lata,4D656469646F725F6C6174612E6B6963,rev?*
G04 #@! TF.SameCoordinates,Original*
G04 #@! TF.FileFunction,Legend,Top*
G04 #@! TF.FilePolarity,Positive*
%FSLAX46Y46*%
G04 Gerber Fmt 4.6, Leading zero omitted, Abs format (unit mm)*
G04 Created by KiCad (PCBNEW (5.0.0)) date 10/04/18 10:38:30*
%MOMM*%
%LPD*%
G01*
G04 APERTURE LIST*
%ADD10C,0.200000*%
%ADD11C,0.120000*%
%ADD12C,0.150000*%
%ADD13C,0.170000*%
G04 APERTURE END LIST*
D10*
X128500000Y-108200000D02*
X164200000Y-108200000D01*
X128500000Y-82700000D02*
X128500000Y-108100000D01*
X164200000Y-82700000D02*
X128500000Y-82700000D01*
X164200000Y-108200000D02*
X164200000Y-82700000D01*
D11*
G04 #@! TO.C,D2*
X134743335Y-88862792D02*
G75*
G03X131511000Y-88705884I-1672335J-1078608D01*
G01*
X134743335Y-91020008D02*
G75*
G02X131511000Y-91176916I-1672335J1078608D01*
G01*
X134112130Y-88861563D02*
G75*
G03X132030039Y-88861400I-1041130J-1079837D01*
G01*
X134112130Y-91021237D02*
G75*
G02X132030039Y-91021400I-1041130J1079837D01*
G01*
X131511000Y-88705400D02*
X131511000Y-88861400D01*
X131511000Y-91021400D02*
X131511000Y-91177400D01*
G04 #@! TO.C,C2*
X154253000Y-97616778D02*
X154253000Y-97099622D01*
X152833000Y-97616778D02*
X152833000Y-97099622D01*
G04 #@! TO.C,C1*
X156389000Y-97667578D02*
X156389000Y-97150422D01*
X157809000Y-97667578D02*
X157809000Y-97150422D01*
D10*
G04 #@! TO.C,Sw4*
X138220000Y-91523400D02*
X138220000Y-84803400D01*
X144080000Y-88163400D02*
G75*
G03X144080000Y-88163400I-2500000J0D01*
G01*
X138220000Y-84803400D02*
X144940000Y-84803400D01*
X144940000Y-84803400D02*
X144940000Y-91523400D01*
X144940000Y-91523400D02*
X138220000Y-91523400D01*
X141590000Y-84813400D02*
X141130000Y-85253400D01*
X141130000Y-85253400D02*
X141940000Y-85243400D01*
X141940000Y-85243400D02*
X141560000Y-84833400D01*
G04 #@! TO.C,Sw3*
X141889000Y-92685600D02*
X141509000Y-92275600D01*
X141079000Y-92695600D02*
X141889000Y-92685600D01*
X141539000Y-92255600D02*
X141079000Y-92695600D01*
X144889000Y-98965600D02*
X138169000Y-98965600D01*
X144889000Y-92245600D02*
X144889000Y-98965600D01*
X138169000Y-92245600D02*
X144889000Y-92245600D01*
X144029000Y-95605600D02*
G75*
G03X144029000Y-95605600I-2500000J0D01*
G01*
X138169000Y-98965600D02*
X138169000Y-92245600D01*
G04 #@! TO.C,Sw2*
X138118000Y-106484000D02*
X138118000Y-99764000D01*
X143978000Y-103124000D02*
G75*
G03X143978000Y-103124000I-2500000J0D01*
G01*
X138118000Y-99764000D02*
X144838000Y-99764000D01*
X144838000Y-99764000D02*
X144838000Y-106484000D01*
X144838000Y-106484000D02*
X138118000Y-106484000D01*
X141488000Y-99774000D02*
X141028000Y-100214000D01*
X141028000Y-100214000D02*
X141838000Y-100204000D01*
X141838000Y-100204000D02*
X141458000Y-99794000D01*
D11*
G04 #@! TO.C,D1*
X134743335Y-93891992D02*
G75*
G03X131511000Y-93735084I-1672335J-1078608D01*
G01*
X134743335Y-96049208D02*
G75*
G02X131511000Y-96206116I-1672335J1078608D01*
G01*
X134112130Y-93890763D02*
G75*
G03X132030039Y-93890600I-1041130J-1079837D01*
G01*
X134112130Y-96050437D02*
G75*
G02X132030039Y-96050600I-1041130J1079837D01*
G01*
X131511000Y-93734600D02*
X131511000Y-93890600D01*
X131511000Y-96050600D02*
X131511000Y-96206600D01*
G04 #@! TO.C,R1*
X154706422Y-101982000D02*
X155223578Y-101982000D01*
X154706422Y-103402000D02*
X155223578Y-103402000D01*
G04 #@! TO.C,R2*
X154706422Y-101091000D02*
X155223578Y-101091000D01*
X154706422Y-99671000D02*
X155223578Y-99671000D01*
G04 #@! TO.C,Y1*
X157422000Y-95296600D02*
X152722000Y-95296600D01*
X157422000Y-91596600D02*
X152722000Y-91596600D01*
X157422000Y-91596600D02*
G75*
G02X157422000Y-95296600I0J-1850000D01*
G01*
X152722000Y-91596600D02*
G75*
G03X152722000Y-95296600I0J-1850000D01*
G01*
G04 #@! TO.C,D2*
D12*
X132180504Y-92679780D02*
X132180504Y-91679780D01*
X132418600Y-91679780D01*
X132561457Y-91727400D01*
X132656695Y-91822638D01*
X132704314Y-91917876D01*
X132751933Y-92108352D01*
X132751933Y-92251209D01*
X132704314Y-92441685D01*
X132656695Y-92536923D01*
X132561457Y-92632161D01*
X132418600Y-92679780D01*
X132180504Y-92679780D01*
X133132885Y-91775019D02*
X133180504Y-91727400D01*
X133275742Y-91679780D01*
X133513838Y-91679780D01*
X133609076Y-91727400D01*
X133656695Y-91775019D01*
X133704314Y-91870257D01*
X133704314Y-91965495D01*
X133656695Y-92108352D01*
X133085266Y-92679780D01*
X133704314Y-92679780D01*
G04 #@! TO.C,C2*
X152250142Y-97524866D02*
X152297761Y-97572485D01*
X152345380Y-97715342D01*
X152345380Y-97810580D01*
X152297761Y-97953438D01*
X152202523Y-98048676D01*
X152107285Y-98096295D01*
X151916809Y-98143914D01*
X151773952Y-98143914D01*
X151583476Y-98096295D01*
X151488238Y-98048676D01*
X151393000Y-97953438D01*
X151345380Y-97810580D01*
X151345380Y-97715342D01*
X151393000Y-97572485D01*
X151440619Y-97524866D01*
X151440619Y-97143914D02*
X151393000Y-97096295D01*
X151345380Y-97001057D01*
X151345380Y-96762961D01*
X151393000Y-96667723D01*
X151440619Y-96620104D01*
X151535857Y-96572485D01*
X151631095Y-96572485D01*
X151773952Y-96620104D01*
X152345380Y-97191533D01*
X152345380Y-96572485D01*
G04 #@! TO.C,C1*
X155806142Y-97575666D02*
X155853761Y-97623285D01*
X155901380Y-97766142D01*
X155901380Y-97861380D01*
X155853761Y-98004238D01*
X155758523Y-98099476D01*
X155663285Y-98147095D01*
X155472809Y-98194714D01*
X155329952Y-98194714D01*
X155139476Y-98147095D01*
X155044238Y-98099476D01*
X154949000Y-98004238D01*
X154901380Y-97861380D01*
X154901380Y-97766142D01*
X154949000Y-97623285D01*
X154996619Y-97575666D01*
X155901380Y-96623285D02*
X155901380Y-97194714D01*
X155901380Y-96909000D02*
X154901380Y-96909000D01*
X155044238Y-97004238D01*
X155139476Y-97099476D01*
X155187095Y-97194714D01*
G04 #@! TO.C,Sw4*
D13*
X140243485Y-88390361D02*
X140386342Y-88437980D01*
X140624438Y-88437980D01*
X140719676Y-88390361D01*
X140767295Y-88342742D01*
X140814914Y-88247504D01*
X140814914Y-88152266D01*
X140767295Y-88057028D01*
X140719676Y-88009409D01*
X140624438Y-87961790D01*
X140433961Y-87914171D01*
X140338723Y-87866552D01*
X140291104Y-87818933D01*
X140243485Y-87723695D01*
X140243485Y-87628457D01*
X140291104Y-87533219D01*
X140338723Y-87485600D01*
X140433961Y-87437980D01*
X140672057Y-87437980D01*
X140814914Y-87485600D01*
X141148247Y-87771314D02*
X141338723Y-88437980D01*
X141529200Y-87961790D01*
X141719676Y-88437980D01*
X141910152Y-87771314D01*
X142719676Y-87771314D02*
X142719676Y-88437980D01*
X142481580Y-87390361D02*
X142243485Y-88104647D01*
X142862533Y-88104647D01*
G04 #@! TO.C,Sw3*
X140294085Y-96213561D02*
X140436942Y-96261180D01*
X140675038Y-96261180D01*
X140770276Y-96213561D01*
X140817895Y-96165942D01*
X140865514Y-96070704D01*
X140865514Y-95975466D01*
X140817895Y-95880228D01*
X140770276Y-95832609D01*
X140675038Y-95784990D01*
X140484561Y-95737371D01*
X140389323Y-95689752D01*
X140341704Y-95642133D01*
X140294085Y-95546895D01*
X140294085Y-95451657D01*
X140341704Y-95356419D01*
X140389323Y-95308800D01*
X140484561Y-95261180D01*
X140722657Y-95261180D01*
X140865514Y-95308800D01*
X141198847Y-95594514D02*
X141389323Y-96261180D01*
X141579800Y-95784990D01*
X141770276Y-96261180D01*
X141960752Y-95594514D01*
X142246466Y-95261180D02*
X142865514Y-95261180D01*
X142532180Y-95642133D01*
X142675038Y-95642133D01*
X142770276Y-95689752D01*
X142817895Y-95737371D01*
X142865514Y-95832609D01*
X142865514Y-96070704D01*
X142817895Y-96165942D01*
X142770276Y-96213561D01*
X142675038Y-96261180D01*
X142389323Y-96261180D01*
X142294085Y-96213561D01*
X142246466Y-96165942D01*
G04 #@! TO.C,Sw2*
X140116085Y-103554161D02*
X140258942Y-103601780D01*
X140497038Y-103601780D01*
X140592276Y-103554161D01*
X140639895Y-103506542D01*
X140687514Y-103411304D01*
X140687514Y-103316066D01*
X140639895Y-103220828D01*
X140592276Y-103173209D01*
X140497038Y-103125590D01*
X140306561Y-103077971D01*
X140211323Y-103030352D01*
X140163704Y-102982733D01*
X140116085Y-102887495D01*
X140116085Y-102792257D01*
X140163704Y-102697019D01*
X140211323Y-102649400D01*
X140306561Y-102601780D01*
X140544657Y-102601780D01*
X140687514Y-102649400D01*
X141020847Y-102935114D02*
X141211323Y-103601780D01*
X141401800Y-103125590D01*
X141592276Y-103601780D01*
X141782752Y-102935114D01*
X142116085Y-102697019D02*
X142163704Y-102649400D01*
X142258942Y-102601780D01*
X142497038Y-102601780D01*
X142592276Y-102649400D01*
X142639895Y-102697019D01*
X142687514Y-102792257D01*
X142687514Y-102887495D01*
X142639895Y-103030352D01*
X142068466Y-103601780D01*
X142687514Y-103601780D01*
G04 #@! TO.C,D1*
D12*
X132561504Y-97480380D02*
X132561504Y-96480380D01*
X132799600Y-96480380D01*
X132942457Y-96528000D01*
X133037695Y-96623238D01*
X133085314Y-96718476D01*
X133132933Y-96908952D01*
X133132933Y-97051809D01*
X133085314Y-97242285D01*
X133037695Y-97337523D01*
X132942457Y-97432761D01*
X132799600Y-97480380D01*
X132561504Y-97480380D01*
X134085314Y-97480380D02*
X133513885Y-97480380D01*
X133799600Y-97480380D02*
X133799600Y-96480380D01*
X133704361Y-96623238D01*
X133609123Y-96718476D01*
X133513885Y-96766095D01*
G04 #@! TO.C,R1*
X157770133Y-102991980D02*
X157436800Y-102515790D01*
X157198704Y-102991980D02*
X157198704Y-101991980D01*
X157579657Y-101991980D01*
X157674895Y-102039600D01*
X157722514Y-102087219D01*
X157770133Y-102182457D01*
X157770133Y-102325314D01*
X157722514Y-102420552D01*
X157674895Y-102468171D01*
X157579657Y-102515790D01*
X157198704Y-102515790D01*
X158722514Y-102991980D02*
X158151085Y-102991980D01*
X158436800Y-102991980D02*
X158436800Y-101991980D01*
X158341561Y-102134838D01*
X158246323Y-102230076D01*
X158151085Y-102277695D01*
G04 #@! TO.C,R2*
X157719333Y-100858780D02*
X157386000Y-100382590D01*
X157147904Y-100858780D02*
X157147904Y-99858780D01*
X157528857Y-99858780D01*
X157624095Y-99906400D01*
X157671714Y-99954019D01*
X157719333Y-100049257D01*
X157719333Y-100192114D01*
X157671714Y-100287352D01*
X157624095Y-100334971D01*
X157528857Y-100382590D01*
X157147904Y-100382590D01*
X158100285Y-99954019D02*
X158147904Y-99906400D01*
X158243142Y-99858780D01*
X158481238Y-99858780D01*
X158576476Y-99906400D01*
X158624095Y-99954019D01*
X158671714Y-100049257D01*
X158671714Y-100144495D01*
X158624095Y-100287352D01*
X158052666Y-100858780D01*
X158671714Y-100858780D01*
G04 #@! TO.C,Y1*
X154311409Y-91771790D02*
X154311409Y-92247980D01*
X153978076Y-91247980D02*
X154311409Y-91771790D01*
X154644742Y-91247980D01*
X155501885Y-92247980D02*
X154930457Y-92247980D01*
X155216171Y-92247980D02*
X155216171Y-91247980D01*
X155120933Y-91390838D01*
X155025695Y-91486076D01*
X154930457Y-91533695D01*
G04 #@! TD*
M02*
