G04 #@! TF.GenerationSoftware,KiCad,Pcbnew,(5.0.0)*
G04 #@! TF.CreationDate,2018-10-04T10:38:30-06:00*
G04 #@! TF.ProjectId,Medidor_lata,4D656469646F725F6C6174612E6B6963,rev?*
G04 #@! TF.SameCoordinates,Original*
G04 #@! TF.FileFunction,Legend,Bot*
G04 #@! TF.FilePolarity,Positive*
%FSLAX46Y46*%
G04 Gerber Fmt 4.6, Leading zero omitted, Abs format (unit mm)*
G04 Created by KiCad (PCBNEW (5.0.0)) date 10/04/18 10:38:30*
%MOMM*%
%LPD*%
G01*
G04 APERTURE LIST*
%ADD10C,0.120000*%
%ADD11C,0.200000*%
%ADD12C,0.150000*%
%ADD13C,0.170000*%
G04 APERTURE END LIST*
D10*
G04 #@! TO.C,R3*
X134615422Y-93140600D02*
X135132578Y-93140600D01*
X134615422Y-91720600D02*
X135132578Y-91720600D01*
G04 #@! TO.C,J1*
X131589000Y-99041000D02*
X135609000Y-99041000D01*
X135609000Y-99041000D02*
X135609000Y-106761000D01*
X135609000Y-106761000D02*
X131589000Y-106761000D01*
X131589000Y-106761000D02*
X131589000Y-99041000D01*
X133299000Y-99041000D02*
X133299000Y-99541000D01*
X133299000Y-99541000D02*
X132089000Y-99541000D01*
X132089000Y-99541000D02*
X132089000Y-106261000D01*
X132089000Y-106261000D02*
X133299000Y-106261000D01*
X133299000Y-106261000D02*
X133299000Y-106761000D01*
X134109000Y-99041000D02*
X134109000Y-100041000D01*
X134109000Y-100041000D02*
X135609000Y-100041000D01*
X134109000Y-106761000D02*
X134109000Y-105761000D01*
X134109000Y-105761000D02*
X135609000Y-105761000D01*
X133409000Y-98741000D02*
X135909000Y-98741000D01*
X135909000Y-98741000D02*
X135909000Y-101241000D01*
D11*
G04 #@! TO.C,Sw1*
X149192000Y-84193800D02*
X149192000Y-90913800D01*
X155052000Y-87553800D02*
G75*
G03X155052000Y-87553800I-2500000J0D01*
G01*
X149192000Y-90913800D02*
X155912000Y-90913800D01*
X155912000Y-90913800D02*
X155912000Y-84193800D01*
X155912000Y-84193800D02*
X149192000Y-84193800D01*
X152562000Y-90903800D02*
X152102000Y-90463800D01*
X152102000Y-90463800D02*
X152912000Y-90473800D01*
X152912000Y-90473800D02*
X152532000Y-90883800D01*
D12*
G04 #@! TO.C,U1*
X152229000Y-104260000D02*
X152229000Y-104035000D01*
X159479000Y-104260000D02*
X159479000Y-103935000D01*
X159479000Y-97010000D02*
X159479000Y-97335000D01*
X152229000Y-97010000D02*
X152229000Y-97335000D01*
X152229000Y-104260000D02*
X152554000Y-104260000D01*
X152229000Y-97010000D02*
X152554000Y-97010000D01*
X159479000Y-97010000D02*
X159154000Y-97010000D01*
X159479000Y-104260000D02*
X159154000Y-104260000D01*
X152229000Y-104035000D02*
X150804000Y-104035000D01*
G04 #@! TO.C,R3*
X132195866Y-92984580D02*
X132529200Y-92508390D01*
X132767295Y-92984580D02*
X132767295Y-91984580D01*
X132386342Y-91984580D01*
X132291104Y-92032200D01*
X132243485Y-92079819D01*
X132195866Y-92175057D01*
X132195866Y-92317914D01*
X132243485Y-92413152D01*
X132291104Y-92460771D01*
X132386342Y-92508390D01*
X132767295Y-92508390D01*
X131862533Y-91984580D02*
X131243485Y-91984580D01*
X131576819Y-92365533D01*
X131433961Y-92365533D01*
X131338723Y-92413152D01*
X131291104Y-92460771D01*
X131243485Y-92556009D01*
X131243485Y-92794104D01*
X131291104Y-92889342D01*
X131338723Y-92936961D01*
X131433961Y-92984580D01*
X131719676Y-92984580D01*
X131814914Y-92936961D01*
X131862533Y-92889342D01*
G04 #@! TO.C,J1*
X129951380Y-102567666D02*
X130665666Y-102567666D01*
X130808523Y-102520047D01*
X130903761Y-102424809D01*
X130951380Y-102281952D01*
X130951380Y-102186714D01*
X130951380Y-103567666D02*
X130951380Y-102996238D01*
X130951380Y-103281952D02*
X129951380Y-103281952D01*
X130094238Y-103186714D01*
X130189476Y-103091476D01*
X130237095Y-102996238D01*
G04 #@! TO.C,Sw1*
D13*
X153761514Y-87907761D02*
X153618657Y-87955380D01*
X153380561Y-87955380D01*
X153285323Y-87907761D01*
X153237704Y-87860142D01*
X153190085Y-87764904D01*
X153190085Y-87669666D01*
X153237704Y-87574428D01*
X153285323Y-87526809D01*
X153380561Y-87479190D01*
X153571038Y-87431571D01*
X153666276Y-87383952D01*
X153713895Y-87336333D01*
X153761514Y-87241095D01*
X153761514Y-87145857D01*
X153713895Y-87050619D01*
X153666276Y-87003000D01*
X153571038Y-86955380D01*
X153332942Y-86955380D01*
X153190085Y-87003000D01*
X152856752Y-87288714D02*
X152666276Y-87955380D01*
X152475800Y-87479190D01*
X152285323Y-87955380D01*
X152094847Y-87288714D01*
X151190085Y-87955380D02*
X151761514Y-87955380D01*
X151475800Y-87955380D02*
X151475800Y-86955380D01*
X151571038Y-87098238D01*
X151666276Y-87193476D01*
X151761514Y-87241095D01*
G04 #@! TO.C,U1*
D12*
X156615904Y-106137380D02*
X156615904Y-106946904D01*
X156568285Y-107042142D01*
X156520666Y-107089761D01*
X156425428Y-107137380D01*
X156234952Y-107137380D01*
X156139714Y-107089761D01*
X156092095Y-107042142D01*
X156044476Y-106946904D01*
X156044476Y-106137380D01*
X155044476Y-107137380D02*
X155615904Y-107137380D01*
X155330190Y-107137380D02*
X155330190Y-106137380D01*
X155425428Y-106280238D01*
X155520666Y-106375476D01*
X155615904Y-106423095D01*
G04 #@! TD*
M02*
