M48
;DRILL file {KiCad (5.0.0)} date 10/04/18 10:40:10
;FORMAT={-:-/ absolute / inch / decimal}
FMAT,2
INCH,TZ
T1C0.0157
T2C0.0300
T3C0.0315
T4C0.0354
T5C0.0394
%
G90
G05
M72
T1
X5.9135Y-3.9835
X6.1025Y-3.91
T2
X5.878Y-3.3584
X5.878Y-3.5356
X6.1339Y-3.3584
X6.1339Y-3.5356
X5.442Y-3.9714
X5.442Y-4.1486
X5.698Y-3.9714
X5.698Y-4.1486
X5.4441Y-3.6754
X5.4441Y-3.8526
X5.7Y-3.6754
X5.7Y-3.8526
X5.4461Y-3.3824
X5.4461Y-3.5596
X5.702Y-3.3824
X5.702Y-3.5596
T3
X6.0304Y-3.679
X6.18Y-3.679
T4
X5.189Y-3.739
X5.289Y-3.739
X5.189Y-3.541
X5.289Y-3.541
T5
X5.248Y-4.002
X5.248Y-4.1004
T0
M30
