G04 #@! TF.GenerationSoftware,KiCad,Pcbnew,(5.0.0)*
G04 #@! TF.CreationDate,2018-10-04T10:38:30-06:00*
G04 #@! TF.ProjectId,Medidor_lata,4D656469646F725F6C6174612E6B6963,rev?*
G04 #@! TF.SameCoordinates,Original*
G04 #@! TF.FileFunction,Copper,L1,Top,Signal*
G04 #@! TF.FilePolarity,Positive*
%FSLAX46Y46*%
G04 Gerber Fmt 4.6, Leading zero omitted, Abs format (unit mm)*
G04 Created by KiCad (PCBNEW (5.0.0)) date 10/04/18 10:38:30*
%MOMM*%
%LPD*%
G01*
G04 APERTURE LIST*
G04 #@! TA.AperFunction,ComponentPad*
%ADD10R,1.800000X1.800000*%
G04 #@! TD*
G04 #@! TA.AperFunction,ComponentPad*
%ADD11C,1.800000*%
G04 #@! TD*
G04 #@! TA.AperFunction,Conductor*
%ADD12C,0.100000*%
G04 #@! TD*
G04 #@! TA.AperFunction,SMDPad,CuDef*
%ADD13C,0.975000*%
G04 #@! TD*
G04 #@! TA.AperFunction,ComponentPad*
%ADD14C,1.524000*%
G04 #@! TD*
G04 #@! TA.AperFunction,ComponentPad*
%ADD15R,2.000000X1.700000*%
G04 #@! TD*
G04 #@! TA.AperFunction,ComponentPad*
%ADD16O,2.000000X1.700000*%
G04 #@! TD*
G04 #@! TA.AperFunction,ComponentPad*
%ADD17C,1.500000*%
G04 #@! TD*
G04 #@! TA.AperFunction,ViaPad*
%ADD18C,0.800000*%
G04 #@! TD*
G04 #@! TA.AperFunction,Conductor*
%ADD19C,0.500000*%
G04 #@! TD*
G04 #@! TA.AperFunction,Conductor*
%ADD20C,0.254000*%
G04 #@! TD*
G04 APERTURE END LIST*
D10*
G04 #@! TO.P,D2,1*
G04 #@! TO.N,GND*
X131801000Y-89941400D03*
D11*
G04 #@! TO.P,D2,2*
G04 #@! TO.N,Net-(D2-Pad2)*
X134341000Y-89941400D03*
G04 #@! TD*
D12*
G04 #@! TO.N,Net-(C2-Pad2)*
G04 #@! TO.C,C2*
G36*
X154023142Y-95934374D02*
X154046803Y-95937884D01*
X154070007Y-95943696D01*
X154092529Y-95951754D01*
X154114153Y-95961982D01*
X154134670Y-95974279D01*
X154153883Y-95988529D01*
X154171607Y-96004593D01*
X154187671Y-96022317D01*
X154201921Y-96041530D01*
X154214218Y-96062047D01*
X154224446Y-96083671D01*
X154232504Y-96106193D01*
X154238316Y-96129397D01*
X154241826Y-96153058D01*
X154243000Y-96176950D01*
X154243000Y-96664450D01*
X154241826Y-96688342D01*
X154238316Y-96712003D01*
X154232504Y-96735207D01*
X154224446Y-96757729D01*
X154214218Y-96779353D01*
X154201921Y-96799870D01*
X154187671Y-96819083D01*
X154171607Y-96836807D01*
X154153883Y-96852871D01*
X154134670Y-96867121D01*
X154114153Y-96879418D01*
X154092529Y-96889646D01*
X154070007Y-96897704D01*
X154046803Y-96903516D01*
X154023142Y-96907026D01*
X153999250Y-96908200D01*
X153086750Y-96908200D01*
X153062858Y-96907026D01*
X153039197Y-96903516D01*
X153015993Y-96897704D01*
X152993471Y-96889646D01*
X152971847Y-96879418D01*
X152951330Y-96867121D01*
X152932117Y-96852871D01*
X152914393Y-96836807D01*
X152898329Y-96819083D01*
X152884079Y-96799870D01*
X152871782Y-96779353D01*
X152861554Y-96757729D01*
X152853496Y-96735207D01*
X152847684Y-96712003D01*
X152844174Y-96688342D01*
X152843000Y-96664450D01*
X152843000Y-96176950D01*
X152844174Y-96153058D01*
X152847684Y-96129397D01*
X152853496Y-96106193D01*
X152861554Y-96083671D01*
X152871782Y-96062047D01*
X152884079Y-96041530D01*
X152898329Y-96022317D01*
X152914393Y-96004593D01*
X152932117Y-95988529D01*
X152951330Y-95974279D01*
X152971847Y-95961982D01*
X152993471Y-95951754D01*
X153015993Y-95943696D01*
X153039197Y-95937884D01*
X153062858Y-95934374D01*
X153086750Y-95933200D01*
X153999250Y-95933200D01*
X154023142Y-95934374D01*
X154023142Y-95934374D01*
G37*
D13*
G04 #@! TD*
G04 #@! TO.P,C2,2*
G04 #@! TO.N,Net-(C2-Pad2)*
X153543000Y-96420700D03*
D12*
G04 #@! TO.N,GND*
G04 #@! TO.C,C2*
G36*
X154023142Y-97809374D02*
X154046803Y-97812884D01*
X154070007Y-97818696D01*
X154092529Y-97826754D01*
X154114153Y-97836982D01*
X154134670Y-97849279D01*
X154153883Y-97863529D01*
X154171607Y-97879593D01*
X154187671Y-97897317D01*
X154201921Y-97916530D01*
X154214218Y-97937047D01*
X154224446Y-97958671D01*
X154232504Y-97981193D01*
X154238316Y-98004397D01*
X154241826Y-98028058D01*
X154243000Y-98051950D01*
X154243000Y-98539450D01*
X154241826Y-98563342D01*
X154238316Y-98587003D01*
X154232504Y-98610207D01*
X154224446Y-98632729D01*
X154214218Y-98654353D01*
X154201921Y-98674870D01*
X154187671Y-98694083D01*
X154171607Y-98711807D01*
X154153883Y-98727871D01*
X154134670Y-98742121D01*
X154114153Y-98754418D01*
X154092529Y-98764646D01*
X154070007Y-98772704D01*
X154046803Y-98778516D01*
X154023142Y-98782026D01*
X153999250Y-98783200D01*
X153086750Y-98783200D01*
X153062858Y-98782026D01*
X153039197Y-98778516D01*
X153015993Y-98772704D01*
X152993471Y-98764646D01*
X152971847Y-98754418D01*
X152951330Y-98742121D01*
X152932117Y-98727871D01*
X152914393Y-98711807D01*
X152898329Y-98694083D01*
X152884079Y-98674870D01*
X152871782Y-98654353D01*
X152861554Y-98632729D01*
X152853496Y-98610207D01*
X152847684Y-98587003D01*
X152844174Y-98563342D01*
X152843000Y-98539450D01*
X152843000Y-98051950D01*
X152844174Y-98028058D01*
X152847684Y-98004397D01*
X152853496Y-97981193D01*
X152861554Y-97958671D01*
X152871782Y-97937047D01*
X152884079Y-97916530D01*
X152898329Y-97897317D01*
X152914393Y-97879593D01*
X152932117Y-97863529D01*
X152951330Y-97849279D01*
X152971847Y-97836982D01*
X152993471Y-97826754D01*
X153015993Y-97818696D01*
X153039197Y-97812884D01*
X153062858Y-97809374D01*
X153086750Y-97808200D01*
X153999250Y-97808200D01*
X154023142Y-97809374D01*
X154023142Y-97809374D01*
G37*
D13*
G04 #@! TD*
G04 #@! TO.P,C2,1*
G04 #@! TO.N,GND*
X153543000Y-98295700D03*
D12*
G04 #@! TO.N,GND*
G04 #@! TO.C,C1*
G36*
X157579142Y-97860174D02*
X157602803Y-97863684D01*
X157626007Y-97869496D01*
X157648529Y-97877554D01*
X157670153Y-97887782D01*
X157690670Y-97900079D01*
X157709883Y-97914329D01*
X157727607Y-97930393D01*
X157743671Y-97948117D01*
X157757921Y-97967330D01*
X157770218Y-97987847D01*
X157780446Y-98009471D01*
X157788504Y-98031993D01*
X157794316Y-98055197D01*
X157797826Y-98078858D01*
X157799000Y-98102750D01*
X157799000Y-98590250D01*
X157797826Y-98614142D01*
X157794316Y-98637803D01*
X157788504Y-98661007D01*
X157780446Y-98683529D01*
X157770218Y-98705153D01*
X157757921Y-98725670D01*
X157743671Y-98744883D01*
X157727607Y-98762607D01*
X157709883Y-98778671D01*
X157690670Y-98792921D01*
X157670153Y-98805218D01*
X157648529Y-98815446D01*
X157626007Y-98823504D01*
X157602803Y-98829316D01*
X157579142Y-98832826D01*
X157555250Y-98834000D01*
X156642750Y-98834000D01*
X156618858Y-98832826D01*
X156595197Y-98829316D01*
X156571993Y-98823504D01*
X156549471Y-98815446D01*
X156527847Y-98805218D01*
X156507330Y-98792921D01*
X156488117Y-98778671D01*
X156470393Y-98762607D01*
X156454329Y-98744883D01*
X156440079Y-98725670D01*
X156427782Y-98705153D01*
X156417554Y-98683529D01*
X156409496Y-98661007D01*
X156403684Y-98637803D01*
X156400174Y-98614142D01*
X156399000Y-98590250D01*
X156399000Y-98102750D01*
X156400174Y-98078858D01*
X156403684Y-98055197D01*
X156409496Y-98031993D01*
X156417554Y-98009471D01*
X156427782Y-97987847D01*
X156440079Y-97967330D01*
X156454329Y-97948117D01*
X156470393Y-97930393D01*
X156488117Y-97914329D01*
X156507330Y-97900079D01*
X156527847Y-97887782D01*
X156549471Y-97877554D01*
X156571993Y-97869496D01*
X156595197Y-97863684D01*
X156618858Y-97860174D01*
X156642750Y-97859000D01*
X157555250Y-97859000D01*
X157579142Y-97860174D01*
X157579142Y-97860174D01*
G37*
D13*
G04 #@! TD*
G04 #@! TO.P,C1,1*
G04 #@! TO.N,GND*
X157099000Y-98346500D03*
D12*
G04 #@! TO.N,Net-(C1-Pad2)*
G04 #@! TO.C,C1*
G36*
X157579142Y-95985174D02*
X157602803Y-95988684D01*
X157626007Y-95994496D01*
X157648529Y-96002554D01*
X157670153Y-96012782D01*
X157690670Y-96025079D01*
X157709883Y-96039329D01*
X157727607Y-96055393D01*
X157743671Y-96073117D01*
X157757921Y-96092330D01*
X157770218Y-96112847D01*
X157780446Y-96134471D01*
X157788504Y-96156993D01*
X157794316Y-96180197D01*
X157797826Y-96203858D01*
X157799000Y-96227750D01*
X157799000Y-96715250D01*
X157797826Y-96739142D01*
X157794316Y-96762803D01*
X157788504Y-96786007D01*
X157780446Y-96808529D01*
X157770218Y-96830153D01*
X157757921Y-96850670D01*
X157743671Y-96869883D01*
X157727607Y-96887607D01*
X157709883Y-96903671D01*
X157690670Y-96917921D01*
X157670153Y-96930218D01*
X157648529Y-96940446D01*
X157626007Y-96948504D01*
X157602803Y-96954316D01*
X157579142Y-96957826D01*
X157555250Y-96959000D01*
X156642750Y-96959000D01*
X156618858Y-96957826D01*
X156595197Y-96954316D01*
X156571993Y-96948504D01*
X156549471Y-96940446D01*
X156527847Y-96930218D01*
X156507330Y-96917921D01*
X156488117Y-96903671D01*
X156470393Y-96887607D01*
X156454329Y-96869883D01*
X156440079Y-96850670D01*
X156427782Y-96830153D01*
X156417554Y-96808529D01*
X156409496Y-96786007D01*
X156403684Y-96762803D01*
X156400174Y-96739142D01*
X156399000Y-96715250D01*
X156399000Y-96227750D01*
X156400174Y-96203858D01*
X156403684Y-96180197D01*
X156409496Y-96156993D01*
X156417554Y-96134471D01*
X156427782Y-96112847D01*
X156440079Y-96092330D01*
X156454329Y-96073117D01*
X156470393Y-96055393D01*
X156488117Y-96039329D01*
X156507330Y-96025079D01*
X156527847Y-96012782D01*
X156549471Y-96002554D01*
X156571993Y-95994496D01*
X156595197Y-95988684D01*
X156618858Y-95985174D01*
X156642750Y-95984000D01*
X157555250Y-95984000D01*
X157579142Y-95985174D01*
X157579142Y-95985174D01*
G37*
D13*
G04 #@! TD*
G04 #@! TO.P,C1,2*
G04 #@! TO.N,Net-(C1-Pad2)*
X157099000Y-96471500D03*
D14*
G04 #@! TO.P,Sw4,1*
G04 #@! TO.N,Net-(Sw4-Pad1)*
X138330000Y-85913400D03*
X144830000Y-85913400D03*
G04 #@! TO.P,Sw4,2*
G04 #@! TO.N,GND*
X144830000Y-90413400D03*
X138330000Y-90413400D03*
G04 #@! TD*
G04 #@! TO.P,Sw3,2*
G04 #@! TO.N,GND*
X138279000Y-97855600D03*
X144779000Y-97855600D03*
G04 #@! TO.P,Sw3,1*
G04 #@! TO.N,Net-(Sw3-Pad1)*
X144779000Y-93355600D03*
X138279000Y-93355600D03*
G04 #@! TD*
G04 #@! TO.P,Sw2,1*
G04 #@! TO.N,Net-(Sw2-Pad1)*
X138228000Y-100874000D03*
X144728000Y-100874000D03*
G04 #@! TO.P,Sw2,2*
G04 #@! TO.N,GND*
X144728000Y-105374000D03*
X138228000Y-105374000D03*
G04 #@! TD*
D10*
G04 #@! TO.P,D1,1*
G04 #@! TO.N,GND*
X131801000Y-94970600D03*
D11*
G04 #@! TO.P,D1,2*
G04 #@! TO.N,Net-(D1-Pad2)*
X134341000Y-94970600D03*
G04 #@! TD*
D15*
G04 #@! TO.P,J1,1*
G04 #@! TO.N,+5V*
X133299000Y-101651000D03*
D16*
G04 #@! TO.P,J1,2*
G04 #@! TO.N,GND*
X133299000Y-104151000D03*
G04 #@! TD*
D12*
G04 #@! TO.N,+5V*
G04 #@! TO.C,R1*
G36*
X154295142Y-101993174D02*
X154318803Y-101996684D01*
X154342007Y-102002496D01*
X154364529Y-102010554D01*
X154386153Y-102020782D01*
X154406670Y-102033079D01*
X154425883Y-102047329D01*
X154443607Y-102063393D01*
X154459671Y-102081117D01*
X154473921Y-102100330D01*
X154486218Y-102120847D01*
X154496446Y-102142471D01*
X154504504Y-102164993D01*
X154510316Y-102188197D01*
X154513826Y-102211858D01*
X154515000Y-102235750D01*
X154515000Y-103148250D01*
X154513826Y-103172142D01*
X154510316Y-103195803D01*
X154504504Y-103219007D01*
X154496446Y-103241529D01*
X154486218Y-103263153D01*
X154473921Y-103283670D01*
X154459671Y-103302883D01*
X154443607Y-103320607D01*
X154425883Y-103336671D01*
X154406670Y-103350921D01*
X154386153Y-103363218D01*
X154364529Y-103373446D01*
X154342007Y-103381504D01*
X154318803Y-103387316D01*
X154295142Y-103390826D01*
X154271250Y-103392000D01*
X153783750Y-103392000D01*
X153759858Y-103390826D01*
X153736197Y-103387316D01*
X153712993Y-103381504D01*
X153690471Y-103373446D01*
X153668847Y-103363218D01*
X153648330Y-103350921D01*
X153629117Y-103336671D01*
X153611393Y-103320607D01*
X153595329Y-103302883D01*
X153581079Y-103283670D01*
X153568782Y-103263153D01*
X153558554Y-103241529D01*
X153550496Y-103219007D01*
X153544684Y-103195803D01*
X153541174Y-103172142D01*
X153540000Y-103148250D01*
X153540000Y-102235750D01*
X153541174Y-102211858D01*
X153544684Y-102188197D01*
X153550496Y-102164993D01*
X153558554Y-102142471D01*
X153568782Y-102120847D01*
X153581079Y-102100330D01*
X153595329Y-102081117D01*
X153611393Y-102063393D01*
X153629117Y-102047329D01*
X153648330Y-102033079D01*
X153668847Y-102020782D01*
X153690471Y-102010554D01*
X153712993Y-102002496D01*
X153736197Y-101996684D01*
X153759858Y-101993174D01*
X153783750Y-101992000D01*
X154271250Y-101992000D01*
X154295142Y-101993174D01*
X154295142Y-101993174D01*
G37*
D13*
G04 #@! TD*
G04 #@! TO.P,R1,1*
G04 #@! TO.N,+5V*
X154027500Y-102692000D03*
D12*
G04 #@! TO.N,Net-(R1-Pad2)*
G04 #@! TO.C,R1*
G36*
X156170142Y-101993174D02*
X156193803Y-101996684D01*
X156217007Y-102002496D01*
X156239529Y-102010554D01*
X156261153Y-102020782D01*
X156281670Y-102033079D01*
X156300883Y-102047329D01*
X156318607Y-102063393D01*
X156334671Y-102081117D01*
X156348921Y-102100330D01*
X156361218Y-102120847D01*
X156371446Y-102142471D01*
X156379504Y-102164993D01*
X156385316Y-102188197D01*
X156388826Y-102211858D01*
X156390000Y-102235750D01*
X156390000Y-103148250D01*
X156388826Y-103172142D01*
X156385316Y-103195803D01*
X156379504Y-103219007D01*
X156371446Y-103241529D01*
X156361218Y-103263153D01*
X156348921Y-103283670D01*
X156334671Y-103302883D01*
X156318607Y-103320607D01*
X156300883Y-103336671D01*
X156281670Y-103350921D01*
X156261153Y-103363218D01*
X156239529Y-103373446D01*
X156217007Y-103381504D01*
X156193803Y-103387316D01*
X156170142Y-103390826D01*
X156146250Y-103392000D01*
X155658750Y-103392000D01*
X155634858Y-103390826D01*
X155611197Y-103387316D01*
X155587993Y-103381504D01*
X155565471Y-103373446D01*
X155543847Y-103363218D01*
X155523330Y-103350921D01*
X155504117Y-103336671D01*
X155486393Y-103320607D01*
X155470329Y-103302883D01*
X155456079Y-103283670D01*
X155443782Y-103263153D01*
X155433554Y-103241529D01*
X155425496Y-103219007D01*
X155419684Y-103195803D01*
X155416174Y-103172142D01*
X155415000Y-103148250D01*
X155415000Y-102235750D01*
X155416174Y-102211858D01*
X155419684Y-102188197D01*
X155425496Y-102164993D01*
X155433554Y-102142471D01*
X155443782Y-102120847D01*
X155456079Y-102100330D01*
X155470329Y-102081117D01*
X155486393Y-102063393D01*
X155504117Y-102047329D01*
X155523330Y-102033079D01*
X155543847Y-102020782D01*
X155565471Y-102010554D01*
X155587993Y-102002496D01*
X155611197Y-101996684D01*
X155634858Y-101993174D01*
X155658750Y-101992000D01*
X156146250Y-101992000D01*
X156170142Y-101993174D01*
X156170142Y-101993174D01*
G37*
D13*
G04 #@! TD*
G04 #@! TO.P,R1,2*
G04 #@! TO.N,Net-(R1-Pad2)*
X155902500Y-102692000D03*
D12*
G04 #@! TO.N,Net-(R2-Pad2)*
G04 #@! TO.C,R2*
G36*
X156170142Y-99682174D02*
X156193803Y-99685684D01*
X156217007Y-99691496D01*
X156239529Y-99699554D01*
X156261153Y-99709782D01*
X156281670Y-99722079D01*
X156300883Y-99736329D01*
X156318607Y-99752393D01*
X156334671Y-99770117D01*
X156348921Y-99789330D01*
X156361218Y-99809847D01*
X156371446Y-99831471D01*
X156379504Y-99853993D01*
X156385316Y-99877197D01*
X156388826Y-99900858D01*
X156390000Y-99924750D01*
X156390000Y-100837250D01*
X156388826Y-100861142D01*
X156385316Y-100884803D01*
X156379504Y-100908007D01*
X156371446Y-100930529D01*
X156361218Y-100952153D01*
X156348921Y-100972670D01*
X156334671Y-100991883D01*
X156318607Y-101009607D01*
X156300883Y-101025671D01*
X156281670Y-101039921D01*
X156261153Y-101052218D01*
X156239529Y-101062446D01*
X156217007Y-101070504D01*
X156193803Y-101076316D01*
X156170142Y-101079826D01*
X156146250Y-101081000D01*
X155658750Y-101081000D01*
X155634858Y-101079826D01*
X155611197Y-101076316D01*
X155587993Y-101070504D01*
X155565471Y-101062446D01*
X155543847Y-101052218D01*
X155523330Y-101039921D01*
X155504117Y-101025671D01*
X155486393Y-101009607D01*
X155470329Y-100991883D01*
X155456079Y-100972670D01*
X155443782Y-100952153D01*
X155433554Y-100930529D01*
X155425496Y-100908007D01*
X155419684Y-100884803D01*
X155416174Y-100861142D01*
X155415000Y-100837250D01*
X155415000Y-99924750D01*
X155416174Y-99900858D01*
X155419684Y-99877197D01*
X155425496Y-99853993D01*
X155433554Y-99831471D01*
X155443782Y-99809847D01*
X155456079Y-99789330D01*
X155470329Y-99770117D01*
X155486393Y-99752393D01*
X155504117Y-99736329D01*
X155523330Y-99722079D01*
X155543847Y-99709782D01*
X155565471Y-99699554D01*
X155587993Y-99691496D01*
X155611197Y-99685684D01*
X155634858Y-99682174D01*
X155658750Y-99681000D01*
X156146250Y-99681000D01*
X156170142Y-99682174D01*
X156170142Y-99682174D01*
G37*
D13*
G04 #@! TD*
G04 #@! TO.P,R2,2*
G04 #@! TO.N,Net-(R2-Pad2)*
X155902500Y-100381000D03*
D12*
G04 #@! TO.N,Net-(D1-Pad2)*
G04 #@! TO.C,R2*
G36*
X154295142Y-99682174D02*
X154318803Y-99685684D01*
X154342007Y-99691496D01*
X154364529Y-99699554D01*
X154386153Y-99709782D01*
X154406670Y-99722079D01*
X154425883Y-99736329D01*
X154443607Y-99752393D01*
X154459671Y-99770117D01*
X154473921Y-99789330D01*
X154486218Y-99809847D01*
X154496446Y-99831471D01*
X154504504Y-99853993D01*
X154510316Y-99877197D01*
X154513826Y-99900858D01*
X154515000Y-99924750D01*
X154515000Y-100837250D01*
X154513826Y-100861142D01*
X154510316Y-100884803D01*
X154504504Y-100908007D01*
X154496446Y-100930529D01*
X154486218Y-100952153D01*
X154473921Y-100972670D01*
X154459671Y-100991883D01*
X154443607Y-101009607D01*
X154425883Y-101025671D01*
X154406670Y-101039921D01*
X154386153Y-101052218D01*
X154364529Y-101062446D01*
X154342007Y-101070504D01*
X154318803Y-101076316D01*
X154295142Y-101079826D01*
X154271250Y-101081000D01*
X153783750Y-101081000D01*
X153759858Y-101079826D01*
X153736197Y-101076316D01*
X153712993Y-101070504D01*
X153690471Y-101062446D01*
X153668847Y-101052218D01*
X153648330Y-101039921D01*
X153629117Y-101025671D01*
X153611393Y-101009607D01*
X153595329Y-100991883D01*
X153581079Y-100972670D01*
X153568782Y-100952153D01*
X153558554Y-100930529D01*
X153550496Y-100908007D01*
X153544684Y-100884803D01*
X153541174Y-100861142D01*
X153540000Y-100837250D01*
X153540000Y-99924750D01*
X153541174Y-99900858D01*
X153544684Y-99877197D01*
X153550496Y-99853993D01*
X153558554Y-99831471D01*
X153568782Y-99809847D01*
X153581079Y-99789330D01*
X153595329Y-99770117D01*
X153611393Y-99752393D01*
X153629117Y-99736329D01*
X153648330Y-99722079D01*
X153668847Y-99709782D01*
X153690471Y-99699554D01*
X153712993Y-99691496D01*
X153736197Y-99685684D01*
X153759858Y-99682174D01*
X153783750Y-99681000D01*
X154271250Y-99681000D01*
X154295142Y-99682174D01*
X154295142Y-99682174D01*
G37*
D13*
G04 #@! TD*
G04 #@! TO.P,R2,1*
G04 #@! TO.N,Net-(D1-Pad2)*
X154027500Y-100381000D03*
D14*
G04 #@! TO.P,Sw1,1*
G04 #@! TO.N,Net-(R1-Pad2)*
X149302000Y-89803800D03*
X155802000Y-89803800D03*
G04 #@! TO.P,Sw1,2*
G04 #@! TO.N,GND*
X155802000Y-85303800D03*
X149302000Y-85303800D03*
G04 #@! TD*
D17*
G04 #@! TO.P,Y1,1*
G04 #@! TO.N,Net-(C1-Pad2)*
X156972000Y-93446600D03*
G04 #@! TO.P,Y1,2*
G04 #@! TO.N,Net-(C2-Pad2)*
X153172000Y-93446600D03*
G04 #@! TD*
D18*
G04 #@! TO.N,+5V*
X150201700Y-101182000D03*
G04 #@! TO.N,Net-(R2-Pad2)*
X155003600Y-99313700D03*
G04 #@! TD*
D19*
G04 #@! TO.N,+5V*
X134799000Y-101651000D02*
X135259300Y-102111300D01*
X135259300Y-102111300D02*
X149272400Y-102111300D01*
X149272400Y-102111300D02*
X150201700Y-101182000D01*
X154027500Y-102692000D02*
X151711700Y-102692000D01*
X151711700Y-102692000D02*
X150201700Y-101182000D01*
X133299000Y-101651000D02*
X134799000Y-101651000D01*
G04 #@! TO.N,GND*
X153543000Y-98295700D02*
X157048200Y-98295700D01*
X157048200Y-98295700D02*
X157099000Y-98346500D01*
X146015000Y-97855600D02*
X153102900Y-97855600D01*
X153102900Y-97855600D02*
X153543000Y-98295700D01*
X138228000Y-105374000D02*
X144728000Y-105374000D01*
X144779000Y-97855600D02*
X146015000Y-97855600D01*
X146015000Y-97855600D02*
X146015000Y-91598400D01*
X146015000Y-91598400D02*
X144830000Y-90413400D01*
X138279000Y-97855600D02*
X144779000Y-97855600D01*
X149302000Y-85303800D02*
X155802000Y-85303800D01*
G04 #@! TO.N,Net-(R1-Pad2)*
X154836700Y-89803800D02*
X155802000Y-89803800D01*
X149302000Y-89803800D02*
X154836700Y-89803800D01*
X154836700Y-89803800D02*
X155088500Y-89803800D01*
X155088500Y-89803800D02*
X158278300Y-92993600D01*
X158278300Y-92993600D02*
X158278300Y-100316200D01*
X158278300Y-100316200D02*
X155902500Y-102692000D01*
G04 #@! TO.N,Net-(C1-Pad2)*
X156972000Y-93446600D02*
X157099000Y-93573600D01*
X157099000Y-93573600D02*
X157099000Y-96471500D01*
G04 #@! TO.N,Net-(C2-Pad2)*
X153172000Y-93446600D02*
X153543000Y-93817600D01*
X153543000Y-93817600D02*
X153543000Y-96420700D01*
G04 #@! TO.N,Net-(R2-Pad2)*
X155902500Y-100381000D02*
X155003600Y-99482100D01*
X155003600Y-99482100D02*
X155003600Y-99313700D01*
G04 #@! TO.N,Net-(D1-Pad2)*
X154027500Y-100381000D02*
X152996700Y-99350200D01*
X152996700Y-99350200D02*
X137997000Y-99350200D01*
X137997000Y-99350200D02*
X134341000Y-95694200D01*
X134341000Y-95694200D02*
X134341000Y-94970600D01*
G04 #@! TO.N,Net-(Sw2-Pad1)*
X144728000Y-100874000D02*
X138228000Y-100874000D01*
G04 #@! TO.N,Net-(Sw4-Pad1)*
X144830000Y-85913400D02*
X138330000Y-85913400D01*
G04 #@! TO.N,Net-(Sw3-Pad1)*
X138279000Y-93355600D02*
X144779000Y-93355600D01*
G04 #@! TD*
D20*
G04 #@! TO.N,GND*
G36*
X163673000Y-107773000D02*
X129127524Y-107773000D01*
X129133362Y-106354213D01*
X137427392Y-106354213D01*
X137496857Y-106596397D01*
X138020302Y-106783144D01*
X138575368Y-106755362D01*
X138959143Y-106596397D01*
X139028608Y-106354213D01*
X143927392Y-106354213D01*
X143996857Y-106596397D01*
X144520302Y-106783144D01*
X145075368Y-106755362D01*
X145459143Y-106596397D01*
X145528608Y-106354213D01*
X144728000Y-105553605D01*
X143927392Y-106354213D01*
X139028608Y-106354213D01*
X138228000Y-105553605D01*
X137427392Y-106354213D01*
X129133362Y-106354213D01*
X129140960Y-104507890D01*
X131707524Y-104507890D01*
X131709447Y-104520260D01*
X131960336Y-105043045D01*
X132392188Y-105430024D01*
X132939258Y-105622284D01*
X133172000Y-105478231D01*
X133172000Y-104278000D01*
X133426000Y-104278000D01*
X133426000Y-105478231D01*
X133658742Y-105622284D01*
X134205812Y-105430024D01*
X134500114Y-105166302D01*
X136818856Y-105166302D01*
X136846638Y-105721368D01*
X137005603Y-106105143D01*
X137247787Y-106174608D01*
X138048395Y-105374000D01*
X138407605Y-105374000D01*
X139208213Y-106174608D01*
X139450397Y-106105143D01*
X139637144Y-105581698D01*
X139616353Y-105166302D01*
X143318856Y-105166302D01*
X143346638Y-105721368D01*
X143505603Y-106105143D01*
X143747787Y-106174608D01*
X144548395Y-105374000D01*
X144907605Y-105374000D01*
X145708213Y-106174608D01*
X145950397Y-106105143D01*
X146137144Y-105581698D01*
X146109362Y-105026632D01*
X145950397Y-104642857D01*
X145708213Y-104573392D01*
X144907605Y-105374000D01*
X144548395Y-105374000D01*
X143747787Y-104573392D01*
X143505603Y-104642857D01*
X143318856Y-105166302D01*
X139616353Y-105166302D01*
X139609362Y-105026632D01*
X139450397Y-104642857D01*
X139208213Y-104573392D01*
X138407605Y-105374000D01*
X138048395Y-105374000D01*
X137247787Y-104573392D01*
X137005603Y-104642857D01*
X136818856Y-105166302D01*
X134500114Y-105166302D01*
X134637664Y-105043045D01*
X134888553Y-104520260D01*
X134890476Y-104507890D01*
X134830260Y-104393787D01*
X137427392Y-104393787D01*
X138228000Y-105194395D01*
X139028608Y-104393787D01*
X143927392Y-104393787D01*
X144728000Y-105194395D01*
X145528608Y-104393787D01*
X145459143Y-104151603D01*
X144935698Y-103964856D01*
X144380632Y-103992638D01*
X143996857Y-104151603D01*
X143927392Y-104393787D01*
X139028608Y-104393787D01*
X138959143Y-104151603D01*
X138435698Y-103964856D01*
X137880632Y-103992638D01*
X137496857Y-104151603D01*
X137427392Y-104393787D01*
X134830260Y-104393787D01*
X134769155Y-104278000D01*
X133426000Y-104278000D01*
X133172000Y-104278000D01*
X131828845Y-104278000D01*
X131707524Y-104507890D01*
X129140960Y-104507890D01*
X129156214Y-100801000D01*
X131455799Y-100801000D01*
X131455799Y-102501000D01*
X131519984Y-102823679D01*
X131702767Y-103097233D01*
X131956564Y-103266815D01*
X131709447Y-103781740D01*
X131707524Y-103794110D01*
X131828845Y-104024000D01*
X133172000Y-104024000D01*
X133172000Y-104004000D01*
X133426000Y-104004000D01*
X133426000Y-104024000D01*
X134769155Y-104024000D01*
X134890476Y-103794110D01*
X134888553Y-103781740D01*
X134641436Y-103266815D01*
X134849392Y-103127863D01*
X134902077Y-103138343D01*
X135153228Y-103188300D01*
X135153232Y-103188300D01*
X135259300Y-103209398D01*
X135365368Y-103188300D01*
X149166334Y-103188300D01*
X149272400Y-103209398D01*
X149378466Y-103188300D01*
X149378472Y-103188300D01*
X149692624Y-103125811D01*
X150048873Y-102887773D01*
X150108959Y-102797849D01*
X150201700Y-102705107D01*
X150875143Y-103378551D01*
X150935227Y-103468473D01*
X151025149Y-103528557D01*
X151049470Y-103544808D01*
X151291476Y-103706511D01*
X151605628Y-103769000D01*
X151605633Y-103769000D01*
X151711699Y-103790098D01*
X151817766Y-103769000D01*
X152916376Y-103769000D01*
X153015160Y-103916840D01*
X153367792Y-104152462D01*
X153783750Y-104235201D01*
X154271250Y-104235201D01*
X154687208Y-104152462D01*
X154965000Y-103966847D01*
X155242792Y-104152462D01*
X155658750Y-104235201D01*
X156146250Y-104235201D01*
X156562208Y-104152462D01*
X156914840Y-103916840D01*
X157150462Y-103564208D01*
X157233201Y-103148250D01*
X157233201Y-102884406D01*
X158964851Y-101152757D01*
X159054773Y-101092673D01*
X159200886Y-100874000D01*
X159292811Y-100736425D01*
X159331743Y-100540700D01*
X159355300Y-100422272D01*
X159355300Y-100422268D01*
X159376398Y-100316200D01*
X159355300Y-100210132D01*
X159355300Y-93099666D01*
X159376398Y-92993599D01*
X159355300Y-92887533D01*
X159355300Y-92887528D01*
X159292811Y-92573376D01*
X159054773Y-92217127D01*
X158964851Y-92157044D01*
X157255296Y-90447489D01*
X157391000Y-90119872D01*
X157391000Y-89487728D01*
X157149089Y-88903704D01*
X156702096Y-88456711D01*
X156118072Y-88214800D01*
X155485928Y-88214800D01*
X154901904Y-88456711D01*
X154631815Y-88726800D01*
X150472185Y-88726800D01*
X150202096Y-88456711D01*
X149618072Y-88214800D01*
X148985928Y-88214800D01*
X148401904Y-88456711D01*
X147954911Y-88903704D01*
X147713000Y-89487728D01*
X147713000Y-90119872D01*
X147954911Y-90703896D01*
X148401904Y-91150889D01*
X148985928Y-91392800D01*
X149618072Y-91392800D01*
X150202096Y-91150889D01*
X150472185Y-90880800D01*
X154631815Y-90880800D01*
X154901904Y-91150889D01*
X154919961Y-91158369D01*
X155974989Y-92213396D01*
X155635084Y-92553301D01*
X155395000Y-93132915D01*
X155395000Y-93760285D01*
X155635084Y-94339899D01*
X156022000Y-94726815D01*
X156022001Y-95360376D01*
X155874160Y-95459160D01*
X155638538Y-95811792D01*
X155555799Y-96227750D01*
X155555799Y-96715250D01*
X155638538Y-97131208D01*
X155874160Y-97483840D01*
X155875344Y-97484631D01*
X155860673Y-97499302D01*
X155764000Y-97732691D01*
X155764000Y-98060750D01*
X155922748Y-98219498D01*
X155764000Y-98219498D01*
X155764000Y-98338861D01*
X155698639Y-98273500D01*
X155247665Y-98086700D01*
X154801250Y-98086700D01*
X154878000Y-98009950D01*
X154878000Y-97681891D01*
X154781327Y-97448502D01*
X154766656Y-97433831D01*
X154767840Y-97433040D01*
X155003462Y-97080408D01*
X155086201Y-96664450D01*
X155086201Y-96176950D01*
X155003462Y-95760992D01*
X154767840Y-95408360D01*
X154620000Y-95309576D01*
X154620000Y-94071719D01*
X154749000Y-93760285D01*
X154749000Y-93132915D01*
X154508916Y-92553301D01*
X154065299Y-92109684D01*
X153485685Y-91869600D01*
X152858315Y-91869600D01*
X152278701Y-92109684D01*
X151835084Y-92553301D01*
X151595000Y-93132915D01*
X151595000Y-93760285D01*
X151835084Y-94339899D01*
X152278701Y-94783516D01*
X152466000Y-94861098D01*
X152466001Y-95309576D01*
X152318160Y-95408360D01*
X152082538Y-95760992D01*
X151999799Y-96176950D01*
X151999799Y-96664450D01*
X152082538Y-97080408D01*
X152318160Y-97433040D01*
X152319344Y-97433831D01*
X152304673Y-97448502D01*
X152208000Y-97681891D01*
X152208000Y-98009950D01*
X152366748Y-98168698D01*
X152208000Y-98168698D01*
X152208000Y-98273200D01*
X146113258Y-98273200D01*
X146188144Y-98063298D01*
X146160362Y-97508232D01*
X146001397Y-97124457D01*
X145759213Y-97054992D01*
X144958605Y-97855600D01*
X144972748Y-97869743D01*
X144793143Y-98049348D01*
X144779000Y-98035205D01*
X144764858Y-98049348D01*
X144585253Y-97869743D01*
X144599395Y-97855600D01*
X143798787Y-97054992D01*
X143556603Y-97124457D01*
X143369856Y-97647902D01*
X143397638Y-98202968D01*
X143426729Y-98273200D01*
X139613258Y-98273200D01*
X139688144Y-98063298D01*
X139660362Y-97508232D01*
X139501397Y-97124457D01*
X139259213Y-97054992D01*
X138458605Y-97855600D01*
X138472748Y-97869743D01*
X138293143Y-98049348D01*
X138279000Y-98035205D01*
X138264858Y-98049348D01*
X138085253Y-97869743D01*
X138099395Y-97855600D01*
X137298787Y-97054992D01*
X137241369Y-97071461D01*
X137045295Y-96875387D01*
X137478392Y-96875387D01*
X138279000Y-97675995D01*
X139079608Y-96875387D01*
X143978392Y-96875387D01*
X144779000Y-97675995D01*
X145579608Y-96875387D01*
X145510143Y-96633203D01*
X144986698Y-96446456D01*
X144431632Y-96474238D01*
X144047857Y-96633203D01*
X143978392Y-96875387D01*
X139079608Y-96875387D01*
X139010143Y-96633203D01*
X138486698Y-96446456D01*
X137931632Y-96474238D01*
X137547857Y-96633203D01*
X137478392Y-96875387D01*
X137045295Y-96875387D01*
X135896959Y-95727052D01*
X136068000Y-95314122D01*
X136068000Y-94627078D01*
X135805080Y-93992333D01*
X135319267Y-93506520D01*
X134684522Y-93243600D01*
X133997478Y-93243600D01*
X133362733Y-93506520D01*
X133198839Y-93670414D01*
X133060698Y-93532273D01*
X132827309Y-93435600D01*
X132086750Y-93435600D01*
X131928000Y-93594350D01*
X131928000Y-94843600D01*
X131948000Y-94843600D01*
X131948000Y-95097600D01*
X131928000Y-95097600D01*
X131928000Y-96346850D01*
X132086750Y-96505600D01*
X132827309Y-96505600D01*
X133060698Y-96408927D01*
X133198839Y-96270786D01*
X133362733Y-96434680D01*
X133696711Y-96573018D01*
X136989254Y-99865561D01*
X136880911Y-99973904D01*
X136639000Y-100557928D01*
X136639000Y-101034300D01*
X135705407Y-101034300D01*
X135635559Y-100964452D01*
X135575473Y-100874527D01*
X135219224Y-100636489D01*
X135104956Y-100613760D01*
X135078016Y-100478321D01*
X134895233Y-100204767D01*
X134621679Y-100021984D01*
X134299000Y-99957799D01*
X132299000Y-99957799D01*
X131976321Y-100021984D01*
X131702767Y-100204767D01*
X131519984Y-100478321D01*
X131455799Y-100801000D01*
X129156214Y-100801000D01*
X129179032Y-95256350D01*
X130266000Y-95256350D01*
X130266000Y-95996910D01*
X130362673Y-96230299D01*
X130541302Y-96408927D01*
X130774691Y-96505600D01*
X131515250Y-96505600D01*
X131674000Y-96346850D01*
X131674000Y-95097600D01*
X130424750Y-95097600D01*
X130266000Y-95256350D01*
X129179032Y-95256350D01*
X129184431Y-93944290D01*
X130266000Y-93944290D01*
X130266000Y-94684850D01*
X130424750Y-94843600D01*
X131674000Y-94843600D01*
X131674000Y-93594350D01*
X131515250Y-93435600D01*
X130774691Y-93435600D01*
X130541302Y-93532273D01*
X130362673Y-93710901D01*
X130266000Y-93944290D01*
X129184431Y-93944290D01*
X129188154Y-93039528D01*
X136690000Y-93039528D01*
X136690000Y-93671672D01*
X136931911Y-94255696D01*
X137378904Y-94702689D01*
X137962928Y-94944600D01*
X138595072Y-94944600D01*
X139179096Y-94702689D01*
X139449185Y-94432600D01*
X143608815Y-94432600D01*
X143878904Y-94702689D01*
X144462928Y-94944600D01*
X145095072Y-94944600D01*
X145679096Y-94702689D01*
X146126089Y-94255696D01*
X146368000Y-93671672D01*
X146368000Y-93039528D01*
X146126089Y-92455504D01*
X145679096Y-92008511D01*
X145164603Y-91795401D01*
X145177368Y-91794762D01*
X145561143Y-91635797D01*
X145630608Y-91393613D01*
X144830000Y-90593005D01*
X144029392Y-91393613D01*
X144098857Y-91635797D01*
X144465493Y-91766600D01*
X144462928Y-91766600D01*
X143878904Y-92008511D01*
X143608815Y-92278600D01*
X139449185Y-92278600D01*
X139179096Y-92008511D01*
X138664603Y-91795401D01*
X138677368Y-91794762D01*
X139061143Y-91635797D01*
X139130608Y-91393613D01*
X138330000Y-90593005D01*
X137529392Y-91393613D01*
X137598857Y-91635797D01*
X137965493Y-91766600D01*
X137962928Y-91766600D01*
X137378904Y-92008511D01*
X136931911Y-92455504D01*
X136690000Y-93039528D01*
X129188154Y-93039528D01*
X129199728Y-90227150D01*
X130266000Y-90227150D01*
X130266000Y-90967710D01*
X130362673Y-91201099D01*
X130541302Y-91379727D01*
X130774691Y-91476400D01*
X131515250Y-91476400D01*
X131674000Y-91317650D01*
X131674000Y-90068400D01*
X130424750Y-90068400D01*
X130266000Y-90227150D01*
X129199728Y-90227150D01*
X129205127Y-88915090D01*
X130266000Y-88915090D01*
X130266000Y-89655650D01*
X130424750Y-89814400D01*
X131674000Y-89814400D01*
X131674000Y-88565150D01*
X131928000Y-88565150D01*
X131928000Y-89814400D01*
X131948000Y-89814400D01*
X131948000Y-90068400D01*
X131928000Y-90068400D01*
X131928000Y-91317650D01*
X132086750Y-91476400D01*
X132827309Y-91476400D01*
X133060698Y-91379727D01*
X133198839Y-91241586D01*
X133362733Y-91405480D01*
X133997478Y-91668400D01*
X134684522Y-91668400D01*
X135319267Y-91405480D01*
X135805080Y-90919667D01*
X136068000Y-90284922D01*
X136068000Y-90205702D01*
X136920856Y-90205702D01*
X136948638Y-90760768D01*
X137107603Y-91144543D01*
X137349787Y-91214008D01*
X138150395Y-90413400D01*
X138509605Y-90413400D01*
X139310213Y-91214008D01*
X139552397Y-91144543D01*
X139739144Y-90621098D01*
X139718353Y-90205702D01*
X143420856Y-90205702D01*
X143448638Y-90760768D01*
X143607603Y-91144543D01*
X143849787Y-91214008D01*
X144650395Y-90413400D01*
X145009605Y-90413400D01*
X145810213Y-91214008D01*
X146052397Y-91144543D01*
X146239144Y-90621098D01*
X146211362Y-90066032D01*
X146052397Y-89682257D01*
X145810213Y-89612792D01*
X145009605Y-90413400D01*
X144650395Y-90413400D01*
X143849787Y-89612792D01*
X143607603Y-89682257D01*
X143420856Y-90205702D01*
X139718353Y-90205702D01*
X139711362Y-90066032D01*
X139552397Y-89682257D01*
X139310213Y-89612792D01*
X138509605Y-90413400D01*
X138150395Y-90413400D01*
X137349787Y-89612792D01*
X137107603Y-89682257D01*
X136920856Y-90205702D01*
X136068000Y-90205702D01*
X136068000Y-89597878D01*
X135999783Y-89433187D01*
X137529392Y-89433187D01*
X138330000Y-90233795D01*
X139130608Y-89433187D01*
X144029392Y-89433187D01*
X144830000Y-90233795D01*
X145630608Y-89433187D01*
X145561143Y-89191003D01*
X145037698Y-89004256D01*
X144482632Y-89032038D01*
X144098857Y-89191003D01*
X144029392Y-89433187D01*
X139130608Y-89433187D01*
X139061143Y-89191003D01*
X138537698Y-89004256D01*
X137982632Y-89032038D01*
X137598857Y-89191003D01*
X137529392Y-89433187D01*
X135999783Y-89433187D01*
X135805080Y-88963133D01*
X135319267Y-88477320D01*
X134684522Y-88214400D01*
X133997478Y-88214400D01*
X133362733Y-88477320D01*
X133198839Y-88641214D01*
X133060698Y-88503073D01*
X132827309Y-88406400D01*
X132086750Y-88406400D01*
X131928000Y-88565150D01*
X131674000Y-88565150D01*
X131515250Y-88406400D01*
X130774691Y-88406400D01*
X130541302Y-88503073D01*
X130362673Y-88681701D01*
X130266000Y-88915090D01*
X129205127Y-88915090D01*
X129218781Y-85597328D01*
X136741000Y-85597328D01*
X136741000Y-86229472D01*
X136982911Y-86813496D01*
X137429904Y-87260489D01*
X138013928Y-87502400D01*
X138646072Y-87502400D01*
X139230096Y-87260489D01*
X139500185Y-86990400D01*
X143659815Y-86990400D01*
X143929904Y-87260489D01*
X144513928Y-87502400D01*
X145146072Y-87502400D01*
X145730096Y-87260489D01*
X146177089Y-86813496D01*
X146396408Y-86284013D01*
X148501392Y-86284013D01*
X148570857Y-86526197D01*
X149094302Y-86712944D01*
X149649368Y-86685162D01*
X150033143Y-86526197D01*
X150102608Y-86284013D01*
X155001392Y-86284013D01*
X155070857Y-86526197D01*
X155594302Y-86712944D01*
X156149368Y-86685162D01*
X156533143Y-86526197D01*
X156602608Y-86284013D01*
X155802000Y-85483405D01*
X155001392Y-86284013D01*
X150102608Y-86284013D01*
X149302000Y-85483405D01*
X148501392Y-86284013D01*
X146396408Y-86284013D01*
X146419000Y-86229472D01*
X146419000Y-85597328D01*
X146211386Y-85096102D01*
X147892856Y-85096102D01*
X147920638Y-85651168D01*
X148079603Y-86034943D01*
X148321787Y-86104408D01*
X149122395Y-85303800D01*
X149481605Y-85303800D01*
X150282213Y-86104408D01*
X150524397Y-86034943D01*
X150711144Y-85511498D01*
X150690353Y-85096102D01*
X154392856Y-85096102D01*
X154420638Y-85651168D01*
X154579603Y-86034943D01*
X154821787Y-86104408D01*
X155622395Y-85303800D01*
X155981605Y-85303800D01*
X156782213Y-86104408D01*
X157024397Y-86034943D01*
X157211144Y-85511498D01*
X157183362Y-84956432D01*
X157024397Y-84572657D01*
X156782213Y-84503192D01*
X155981605Y-85303800D01*
X155622395Y-85303800D01*
X154821787Y-84503192D01*
X154579603Y-84572657D01*
X154392856Y-85096102D01*
X150690353Y-85096102D01*
X150683362Y-84956432D01*
X150524397Y-84572657D01*
X150282213Y-84503192D01*
X149481605Y-85303800D01*
X149122395Y-85303800D01*
X148321787Y-84503192D01*
X148079603Y-84572657D01*
X147892856Y-85096102D01*
X146211386Y-85096102D01*
X146177089Y-85013304D01*
X145730096Y-84566311D01*
X145146072Y-84324400D01*
X144513928Y-84324400D01*
X143929904Y-84566311D01*
X143659815Y-84836400D01*
X139500185Y-84836400D01*
X139230096Y-84566311D01*
X138646072Y-84324400D01*
X138013928Y-84324400D01*
X137429904Y-84566311D01*
X136982911Y-85013304D01*
X136741000Y-85597328D01*
X129218781Y-85597328D01*
X129224023Y-84323587D01*
X148501392Y-84323587D01*
X149302000Y-85124195D01*
X150102608Y-84323587D01*
X155001392Y-84323587D01*
X155802000Y-85124195D01*
X156602608Y-84323587D01*
X156533143Y-84081403D01*
X156009698Y-83894656D01*
X155454632Y-83922438D01*
X155070857Y-84081403D01*
X155001392Y-84323587D01*
X150102608Y-84323587D01*
X150033143Y-84081403D01*
X149509698Y-83894656D01*
X148954632Y-83922438D01*
X148570857Y-84081403D01*
X148501392Y-84323587D01*
X129224023Y-84323587D01*
X129226479Y-83727000D01*
X163673000Y-83727000D01*
X163673000Y-107773000D01*
X163673000Y-107773000D01*
G37*
X163673000Y-107773000D02*
X129127524Y-107773000D01*
X129133362Y-106354213D01*
X137427392Y-106354213D01*
X137496857Y-106596397D01*
X138020302Y-106783144D01*
X138575368Y-106755362D01*
X138959143Y-106596397D01*
X139028608Y-106354213D01*
X143927392Y-106354213D01*
X143996857Y-106596397D01*
X144520302Y-106783144D01*
X145075368Y-106755362D01*
X145459143Y-106596397D01*
X145528608Y-106354213D01*
X144728000Y-105553605D01*
X143927392Y-106354213D01*
X139028608Y-106354213D01*
X138228000Y-105553605D01*
X137427392Y-106354213D01*
X129133362Y-106354213D01*
X129140960Y-104507890D01*
X131707524Y-104507890D01*
X131709447Y-104520260D01*
X131960336Y-105043045D01*
X132392188Y-105430024D01*
X132939258Y-105622284D01*
X133172000Y-105478231D01*
X133172000Y-104278000D01*
X133426000Y-104278000D01*
X133426000Y-105478231D01*
X133658742Y-105622284D01*
X134205812Y-105430024D01*
X134500114Y-105166302D01*
X136818856Y-105166302D01*
X136846638Y-105721368D01*
X137005603Y-106105143D01*
X137247787Y-106174608D01*
X138048395Y-105374000D01*
X138407605Y-105374000D01*
X139208213Y-106174608D01*
X139450397Y-106105143D01*
X139637144Y-105581698D01*
X139616353Y-105166302D01*
X143318856Y-105166302D01*
X143346638Y-105721368D01*
X143505603Y-106105143D01*
X143747787Y-106174608D01*
X144548395Y-105374000D01*
X144907605Y-105374000D01*
X145708213Y-106174608D01*
X145950397Y-106105143D01*
X146137144Y-105581698D01*
X146109362Y-105026632D01*
X145950397Y-104642857D01*
X145708213Y-104573392D01*
X144907605Y-105374000D01*
X144548395Y-105374000D01*
X143747787Y-104573392D01*
X143505603Y-104642857D01*
X143318856Y-105166302D01*
X139616353Y-105166302D01*
X139609362Y-105026632D01*
X139450397Y-104642857D01*
X139208213Y-104573392D01*
X138407605Y-105374000D01*
X138048395Y-105374000D01*
X137247787Y-104573392D01*
X137005603Y-104642857D01*
X136818856Y-105166302D01*
X134500114Y-105166302D01*
X134637664Y-105043045D01*
X134888553Y-104520260D01*
X134890476Y-104507890D01*
X134830260Y-104393787D01*
X137427392Y-104393787D01*
X138228000Y-105194395D01*
X139028608Y-104393787D01*
X143927392Y-104393787D01*
X144728000Y-105194395D01*
X145528608Y-104393787D01*
X145459143Y-104151603D01*
X144935698Y-103964856D01*
X144380632Y-103992638D01*
X143996857Y-104151603D01*
X143927392Y-104393787D01*
X139028608Y-104393787D01*
X138959143Y-104151603D01*
X138435698Y-103964856D01*
X137880632Y-103992638D01*
X137496857Y-104151603D01*
X137427392Y-104393787D01*
X134830260Y-104393787D01*
X134769155Y-104278000D01*
X133426000Y-104278000D01*
X133172000Y-104278000D01*
X131828845Y-104278000D01*
X131707524Y-104507890D01*
X129140960Y-104507890D01*
X129156214Y-100801000D01*
X131455799Y-100801000D01*
X131455799Y-102501000D01*
X131519984Y-102823679D01*
X131702767Y-103097233D01*
X131956564Y-103266815D01*
X131709447Y-103781740D01*
X131707524Y-103794110D01*
X131828845Y-104024000D01*
X133172000Y-104024000D01*
X133172000Y-104004000D01*
X133426000Y-104004000D01*
X133426000Y-104024000D01*
X134769155Y-104024000D01*
X134890476Y-103794110D01*
X134888553Y-103781740D01*
X134641436Y-103266815D01*
X134849392Y-103127863D01*
X134902077Y-103138343D01*
X135153228Y-103188300D01*
X135153232Y-103188300D01*
X135259300Y-103209398D01*
X135365368Y-103188300D01*
X149166334Y-103188300D01*
X149272400Y-103209398D01*
X149378466Y-103188300D01*
X149378472Y-103188300D01*
X149692624Y-103125811D01*
X150048873Y-102887773D01*
X150108959Y-102797849D01*
X150201700Y-102705107D01*
X150875143Y-103378551D01*
X150935227Y-103468473D01*
X151025149Y-103528557D01*
X151049470Y-103544808D01*
X151291476Y-103706511D01*
X151605628Y-103769000D01*
X151605633Y-103769000D01*
X151711699Y-103790098D01*
X151817766Y-103769000D01*
X152916376Y-103769000D01*
X153015160Y-103916840D01*
X153367792Y-104152462D01*
X153783750Y-104235201D01*
X154271250Y-104235201D01*
X154687208Y-104152462D01*
X154965000Y-103966847D01*
X155242792Y-104152462D01*
X155658750Y-104235201D01*
X156146250Y-104235201D01*
X156562208Y-104152462D01*
X156914840Y-103916840D01*
X157150462Y-103564208D01*
X157233201Y-103148250D01*
X157233201Y-102884406D01*
X158964851Y-101152757D01*
X159054773Y-101092673D01*
X159200886Y-100874000D01*
X159292811Y-100736425D01*
X159331743Y-100540700D01*
X159355300Y-100422272D01*
X159355300Y-100422268D01*
X159376398Y-100316200D01*
X159355300Y-100210132D01*
X159355300Y-93099666D01*
X159376398Y-92993599D01*
X159355300Y-92887533D01*
X159355300Y-92887528D01*
X159292811Y-92573376D01*
X159054773Y-92217127D01*
X158964851Y-92157044D01*
X157255296Y-90447489D01*
X157391000Y-90119872D01*
X157391000Y-89487728D01*
X157149089Y-88903704D01*
X156702096Y-88456711D01*
X156118072Y-88214800D01*
X155485928Y-88214800D01*
X154901904Y-88456711D01*
X154631815Y-88726800D01*
X150472185Y-88726800D01*
X150202096Y-88456711D01*
X149618072Y-88214800D01*
X148985928Y-88214800D01*
X148401904Y-88456711D01*
X147954911Y-88903704D01*
X147713000Y-89487728D01*
X147713000Y-90119872D01*
X147954911Y-90703896D01*
X148401904Y-91150889D01*
X148985928Y-91392800D01*
X149618072Y-91392800D01*
X150202096Y-91150889D01*
X150472185Y-90880800D01*
X154631815Y-90880800D01*
X154901904Y-91150889D01*
X154919961Y-91158369D01*
X155974989Y-92213396D01*
X155635084Y-92553301D01*
X155395000Y-93132915D01*
X155395000Y-93760285D01*
X155635084Y-94339899D01*
X156022000Y-94726815D01*
X156022001Y-95360376D01*
X155874160Y-95459160D01*
X155638538Y-95811792D01*
X155555799Y-96227750D01*
X155555799Y-96715250D01*
X155638538Y-97131208D01*
X155874160Y-97483840D01*
X155875344Y-97484631D01*
X155860673Y-97499302D01*
X155764000Y-97732691D01*
X155764000Y-98060750D01*
X155922748Y-98219498D01*
X155764000Y-98219498D01*
X155764000Y-98338861D01*
X155698639Y-98273500D01*
X155247665Y-98086700D01*
X154801250Y-98086700D01*
X154878000Y-98009950D01*
X154878000Y-97681891D01*
X154781327Y-97448502D01*
X154766656Y-97433831D01*
X154767840Y-97433040D01*
X155003462Y-97080408D01*
X155086201Y-96664450D01*
X155086201Y-96176950D01*
X155003462Y-95760992D01*
X154767840Y-95408360D01*
X154620000Y-95309576D01*
X154620000Y-94071719D01*
X154749000Y-93760285D01*
X154749000Y-93132915D01*
X154508916Y-92553301D01*
X154065299Y-92109684D01*
X153485685Y-91869600D01*
X152858315Y-91869600D01*
X152278701Y-92109684D01*
X151835084Y-92553301D01*
X151595000Y-93132915D01*
X151595000Y-93760285D01*
X151835084Y-94339899D01*
X152278701Y-94783516D01*
X152466000Y-94861098D01*
X152466001Y-95309576D01*
X152318160Y-95408360D01*
X152082538Y-95760992D01*
X151999799Y-96176950D01*
X151999799Y-96664450D01*
X152082538Y-97080408D01*
X152318160Y-97433040D01*
X152319344Y-97433831D01*
X152304673Y-97448502D01*
X152208000Y-97681891D01*
X152208000Y-98009950D01*
X152366748Y-98168698D01*
X152208000Y-98168698D01*
X152208000Y-98273200D01*
X146113258Y-98273200D01*
X146188144Y-98063298D01*
X146160362Y-97508232D01*
X146001397Y-97124457D01*
X145759213Y-97054992D01*
X144958605Y-97855600D01*
X144972748Y-97869743D01*
X144793143Y-98049348D01*
X144779000Y-98035205D01*
X144764858Y-98049348D01*
X144585253Y-97869743D01*
X144599395Y-97855600D01*
X143798787Y-97054992D01*
X143556603Y-97124457D01*
X143369856Y-97647902D01*
X143397638Y-98202968D01*
X143426729Y-98273200D01*
X139613258Y-98273200D01*
X139688144Y-98063298D01*
X139660362Y-97508232D01*
X139501397Y-97124457D01*
X139259213Y-97054992D01*
X138458605Y-97855600D01*
X138472748Y-97869743D01*
X138293143Y-98049348D01*
X138279000Y-98035205D01*
X138264858Y-98049348D01*
X138085253Y-97869743D01*
X138099395Y-97855600D01*
X137298787Y-97054992D01*
X137241369Y-97071461D01*
X137045295Y-96875387D01*
X137478392Y-96875387D01*
X138279000Y-97675995D01*
X139079608Y-96875387D01*
X143978392Y-96875387D01*
X144779000Y-97675995D01*
X145579608Y-96875387D01*
X145510143Y-96633203D01*
X144986698Y-96446456D01*
X144431632Y-96474238D01*
X144047857Y-96633203D01*
X143978392Y-96875387D01*
X139079608Y-96875387D01*
X139010143Y-96633203D01*
X138486698Y-96446456D01*
X137931632Y-96474238D01*
X137547857Y-96633203D01*
X137478392Y-96875387D01*
X137045295Y-96875387D01*
X135896959Y-95727052D01*
X136068000Y-95314122D01*
X136068000Y-94627078D01*
X135805080Y-93992333D01*
X135319267Y-93506520D01*
X134684522Y-93243600D01*
X133997478Y-93243600D01*
X133362733Y-93506520D01*
X133198839Y-93670414D01*
X133060698Y-93532273D01*
X132827309Y-93435600D01*
X132086750Y-93435600D01*
X131928000Y-93594350D01*
X131928000Y-94843600D01*
X131948000Y-94843600D01*
X131948000Y-95097600D01*
X131928000Y-95097600D01*
X131928000Y-96346850D01*
X132086750Y-96505600D01*
X132827309Y-96505600D01*
X133060698Y-96408927D01*
X133198839Y-96270786D01*
X133362733Y-96434680D01*
X133696711Y-96573018D01*
X136989254Y-99865561D01*
X136880911Y-99973904D01*
X136639000Y-100557928D01*
X136639000Y-101034300D01*
X135705407Y-101034300D01*
X135635559Y-100964452D01*
X135575473Y-100874527D01*
X135219224Y-100636489D01*
X135104956Y-100613760D01*
X135078016Y-100478321D01*
X134895233Y-100204767D01*
X134621679Y-100021984D01*
X134299000Y-99957799D01*
X132299000Y-99957799D01*
X131976321Y-100021984D01*
X131702767Y-100204767D01*
X131519984Y-100478321D01*
X131455799Y-100801000D01*
X129156214Y-100801000D01*
X129179032Y-95256350D01*
X130266000Y-95256350D01*
X130266000Y-95996910D01*
X130362673Y-96230299D01*
X130541302Y-96408927D01*
X130774691Y-96505600D01*
X131515250Y-96505600D01*
X131674000Y-96346850D01*
X131674000Y-95097600D01*
X130424750Y-95097600D01*
X130266000Y-95256350D01*
X129179032Y-95256350D01*
X129184431Y-93944290D01*
X130266000Y-93944290D01*
X130266000Y-94684850D01*
X130424750Y-94843600D01*
X131674000Y-94843600D01*
X131674000Y-93594350D01*
X131515250Y-93435600D01*
X130774691Y-93435600D01*
X130541302Y-93532273D01*
X130362673Y-93710901D01*
X130266000Y-93944290D01*
X129184431Y-93944290D01*
X129188154Y-93039528D01*
X136690000Y-93039528D01*
X136690000Y-93671672D01*
X136931911Y-94255696D01*
X137378904Y-94702689D01*
X137962928Y-94944600D01*
X138595072Y-94944600D01*
X139179096Y-94702689D01*
X139449185Y-94432600D01*
X143608815Y-94432600D01*
X143878904Y-94702689D01*
X144462928Y-94944600D01*
X145095072Y-94944600D01*
X145679096Y-94702689D01*
X146126089Y-94255696D01*
X146368000Y-93671672D01*
X146368000Y-93039528D01*
X146126089Y-92455504D01*
X145679096Y-92008511D01*
X145164603Y-91795401D01*
X145177368Y-91794762D01*
X145561143Y-91635797D01*
X145630608Y-91393613D01*
X144830000Y-90593005D01*
X144029392Y-91393613D01*
X144098857Y-91635797D01*
X144465493Y-91766600D01*
X144462928Y-91766600D01*
X143878904Y-92008511D01*
X143608815Y-92278600D01*
X139449185Y-92278600D01*
X139179096Y-92008511D01*
X138664603Y-91795401D01*
X138677368Y-91794762D01*
X139061143Y-91635797D01*
X139130608Y-91393613D01*
X138330000Y-90593005D01*
X137529392Y-91393613D01*
X137598857Y-91635797D01*
X137965493Y-91766600D01*
X137962928Y-91766600D01*
X137378904Y-92008511D01*
X136931911Y-92455504D01*
X136690000Y-93039528D01*
X129188154Y-93039528D01*
X129199728Y-90227150D01*
X130266000Y-90227150D01*
X130266000Y-90967710D01*
X130362673Y-91201099D01*
X130541302Y-91379727D01*
X130774691Y-91476400D01*
X131515250Y-91476400D01*
X131674000Y-91317650D01*
X131674000Y-90068400D01*
X130424750Y-90068400D01*
X130266000Y-90227150D01*
X129199728Y-90227150D01*
X129205127Y-88915090D01*
X130266000Y-88915090D01*
X130266000Y-89655650D01*
X130424750Y-89814400D01*
X131674000Y-89814400D01*
X131674000Y-88565150D01*
X131928000Y-88565150D01*
X131928000Y-89814400D01*
X131948000Y-89814400D01*
X131948000Y-90068400D01*
X131928000Y-90068400D01*
X131928000Y-91317650D01*
X132086750Y-91476400D01*
X132827309Y-91476400D01*
X133060698Y-91379727D01*
X133198839Y-91241586D01*
X133362733Y-91405480D01*
X133997478Y-91668400D01*
X134684522Y-91668400D01*
X135319267Y-91405480D01*
X135805080Y-90919667D01*
X136068000Y-90284922D01*
X136068000Y-90205702D01*
X136920856Y-90205702D01*
X136948638Y-90760768D01*
X137107603Y-91144543D01*
X137349787Y-91214008D01*
X138150395Y-90413400D01*
X138509605Y-90413400D01*
X139310213Y-91214008D01*
X139552397Y-91144543D01*
X139739144Y-90621098D01*
X139718353Y-90205702D01*
X143420856Y-90205702D01*
X143448638Y-90760768D01*
X143607603Y-91144543D01*
X143849787Y-91214008D01*
X144650395Y-90413400D01*
X145009605Y-90413400D01*
X145810213Y-91214008D01*
X146052397Y-91144543D01*
X146239144Y-90621098D01*
X146211362Y-90066032D01*
X146052397Y-89682257D01*
X145810213Y-89612792D01*
X145009605Y-90413400D01*
X144650395Y-90413400D01*
X143849787Y-89612792D01*
X143607603Y-89682257D01*
X143420856Y-90205702D01*
X139718353Y-90205702D01*
X139711362Y-90066032D01*
X139552397Y-89682257D01*
X139310213Y-89612792D01*
X138509605Y-90413400D01*
X138150395Y-90413400D01*
X137349787Y-89612792D01*
X137107603Y-89682257D01*
X136920856Y-90205702D01*
X136068000Y-90205702D01*
X136068000Y-89597878D01*
X135999783Y-89433187D01*
X137529392Y-89433187D01*
X138330000Y-90233795D01*
X139130608Y-89433187D01*
X144029392Y-89433187D01*
X144830000Y-90233795D01*
X145630608Y-89433187D01*
X145561143Y-89191003D01*
X145037698Y-89004256D01*
X144482632Y-89032038D01*
X144098857Y-89191003D01*
X144029392Y-89433187D01*
X139130608Y-89433187D01*
X139061143Y-89191003D01*
X138537698Y-89004256D01*
X137982632Y-89032038D01*
X137598857Y-89191003D01*
X137529392Y-89433187D01*
X135999783Y-89433187D01*
X135805080Y-88963133D01*
X135319267Y-88477320D01*
X134684522Y-88214400D01*
X133997478Y-88214400D01*
X133362733Y-88477320D01*
X133198839Y-88641214D01*
X133060698Y-88503073D01*
X132827309Y-88406400D01*
X132086750Y-88406400D01*
X131928000Y-88565150D01*
X131674000Y-88565150D01*
X131515250Y-88406400D01*
X130774691Y-88406400D01*
X130541302Y-88503073D01*
X130362673Y-88681701D01*
X130266000Y-88915090D01*
X129205127Y-88915090D01*
X129218781Y-85597328D01*
X136741000Y-85597328D01*
X136741000Y-86229472D01*
X136982911Y-86813496D01*
X137429904Y-87260489D01*
X138013928Y-87502400D01*
X138646072Y-87502400D01*
X139230096Y-87260489D01*
X139500185Y-86990400D01*
X143659815Y-86990400D01*
X143929904Y-87260489D01*
X144513928Y-87502400D01*
X145146072Y-87502400D01*
X145730096Y-87260489D01*
X146177089Y-86813496D01*
X146396408Y-86284013D01*
X148501392Y-86284013D01*
X148570857Y-86526197D01*
X149094302Y-86712944D01*
X149649368Y-86685162D01*
X150033143Y-86526197D01*
X150102608Y-86284013D01*
X155001392Y-86284013D01*
X155070857Y-86526197D01*
X155594302Y-86712944D01*
X156149368Y-86685162D01*
X156533143Y-86526197D01*
X156602608Y-86284013D01*
X155802000Y-85483405D01*
X155001392Y-86284013D01*
X150102608Y-86284013D01*
X149302000Y-85483405D01*
X148501392Y-86284013D01*
X146396408Y-86284013D01*
X146419000Y-86229472D01*
X146419000Y-85597328D01*
X146211386Y-85096102D01*
X147892856Y-85096102D01*
X147920638Y-85651168D01*
X148079603Y-86034943D01*
X148321787Y-86104408D01*
X149122395Y-85303800D01*
X149481605Y-85303800D01*
X150282213Y-86104408D01*
X150524397Y-86034943D01*
X150711144Y-85511498D01*
X150690353Y-85096102D01*
X154392856Y-85096102D01*
X154420638Y-85651168D01*
X154579603Y-86034943D01*
X154821787Y-86104408D01*
X155622395Y-85303800D01*
X155981605Y-85303800D01*
X156782213Y-86104408D01*
X157024397Y-86034943D01*
X157211144Y-85511498D01*
X157183362Y-84956432D01*
X157024397Y-84572657D01*
X156782213Y-84503192D01*
X155981605Y-85303800D01*
X155622395Y-85303800D01*
X154821787Y-84503192D01*
X154579603Y-84572657D01*
X154392856Y-85096102D01*
X150690353Y-85096102D01*
X150683362Y-84956432D01*
X150524397Y-84572657D01*
X150282213Y-84503192D01*
X149481605Y-85303800D01*
X149122395Y-85303800D01*
X148321787Y-84503192D01*
X148079603Y-84572657D01*
X147892856Y-85096102D01*
X146211386Y-85096102D01*
X146177089Y-85013304D01*
X145730096Y-84566311D01*
X145146072Y-84324400D01*
X144513928Y-84324400D01*
X143929904Y-84566311D01*
X143659815Y-84836400D01*
X139500185Y-84836400D01*
X139230096Y-84566311D01*
X138646072Y-84324400D01*
X138013928Y-84324400D01*
X137429904Y-84566311D01*
X136982911Y-85013304D01*
X136741000Y-85597328D01*
X129218781Y-85597328D01*
X129224023Y-84323587D01*
X148501392Y-84323587D01*
X149302000Y-85124195D01*
X150102608Y-84323587D01*
X155001392Y-84323587D01*
X155802000Y-85124195D01*
X156602608Y-84323587D01*
X156533143Y-84081403D01*
X156009698Y-83894656D01*
X155454632Y-83922438D01*
X155070857Y-84081403D01*
X155001392Y-84323587D01*
X150102608Y-84323587D01*
X150033143Y-84081403D01*
X149509698Y-83894656D01*
X148954632Y-83922438D01*
X148570857Y-84081403D01*
X148501392Y-84323587D01*
X129224023Y-84323587D01*
X129226479Y-83727000D01*
X163673000Y-83727000D01*
X163673000Y-107773000D01*
G36*
X157201301Y-98493500D02*
X156972000Y-98493500D01*
X156972000Y-98473500D01*
X156952000Y-98473500D01*
X156952000Y-98219500D01*
X156972000Y-98219500D01*
X156972000Y-98199500D01*
X157201301Y-98199500D01*
X157201301Y-98493500D01*
X157201301Y-98493500D01*
G37*
X157201301Y-98493500D02*
X156972000Y-98493500D01*
X156972000Y-98473500D01*
X156952000Y-98473500D01*
X156952000Y-98219500D01*
X156972000Y-98219500D01*
X156972000Y-98199500D01*
X157201301Y-98199500D01*
X157201301Y-98493500D01*
G36*
X153670000Y-98168700D02*
X153690000Y-98168700D01*
X153690000Y-98422700D01*
X153670000Y-98422700D01*
X153670000Y-98442700D01*
X153577077Y-98442700D01*
X153416924Y-98335689D01*
X153396000Y-98331527D01*
X153396000Y-98168700D01*
X153416000Y-98168700D01*
X153416000Y-98148700D01*
X153670000Y-98148700D01*
X153670000Y-98168700D01*
X153670000Y-98168700D01*
G37*
X153670000Y-98168700D02*
X153690000Y-98168700D01*
X153690000Y-98422700D01*
X153670000Y-98422700D01*
X153670000Y-98442700D01*
X153577077Y-98442700D01*
X153416924Y-98335689D01*
X153396000Y-98331527D01*
X153396000Y-98168700D01*
X153416000Y-98168700D01*
X153416000Y-98148700D01*
X153670000Y-98148700D01*
X153670000Y-98168700D01*
G04 #@! TD*
M02*
