%TF.GenerationSoftware,KiCad,Pcbnew,(5.0.0)*%
%TF.CreationDate,2018-10-04T12:31:17-06:00*%
%TF.ProjectId,Ejemplo,456A656D706C6F2E6B696361645F7063,1.0*%
%TF.SameCoordinates,Original*%
%TF.FileFunction,Legend,Top*%
%TF.FilePolarity,Positive*%
%FSLAX46Y46*%
G04 Gerber Fmt 4.6, Leading zero omitted, Abs format (unit mm)*
G04 Created by KiCad (PCBNEW (5.0.0)) date 10/04/18 12:31:17*
%MOMM*%
%LPD*%
G01*
G04 APERTURE LIST*
%ADD10C,0.300000*%
%ADD11C,0.175000*%
%ADD12C,0.120000*%
%ADD13R,4.000000X2.500000*%
%ADD14O,4.000000X2.500000*%
%ADD15R,2.430000X2.130000*%
%ADD16O,2.430000X2.130000*%
%ADD17C,0.100000*%
%ADD18C,1.800000*%
%ADD19R,2.000000X2.000000*%
G04 APERTURE END LIST*
D10*
X136428571Y-103271428D02*
X136500000Y-103200000D01*
X136642857Y-103128571D01*
X137000000Y-103128571D01*
X137142857Y-103200000D01*
X137214285Y-103271428D01*
X137285714Y-103414285D01*
X137285714Y-103557142D01*
X137214285Y-103771428D01*
X136357142Y-104628571D01*
X137285714Y-104628571D01*
X138214285Y-103128571D02*
X138357142Y-103128571D01*
X138500000Y-103200000D01*
X138571428Y-103271428D01*
X138642857Y-103414285D01*
X138714285Y-103700000D01*
X138714285Y-104057142D01*
X138642857Y-104342857D01*
X138571428Y-104485714D01*
X138500000Y-104557142D01*
X138357142Y-104628571D01*
X138214285Y-104628571D01*
X138071428Y-104557142D01*
X138000000Y-104485714D01*
X137928571Y-104342857D01*
X137857142Y-104057142D01*
X137857142Y-103700000D01*
X137928571Y-103414285D01*
X138000000Y-103271428D01*
X138071428Y-103200000D01*
X138214285Y-103128571D01*
X140142857Y-104628571D02*
X139285714Y-104628571D01*
X139714285Y-104628571D02*
X139714285Y-103128571D01*
X139571428Y-103342857D01*
X139428571Y-103485714D01*
X139285714Y-103557142D01*
X141000000Y-103771428D02*
X140857142Y-103700000D01*
X140785714Y-103628571D01*
X140714285Y-103485714D01*
X140714285Y-103414285D01*
X140785714Y-103271428D01*
X140857142Y-103200000D01*
X141000000Y-103128571D01*
X141285714Y-103128571D01*
X141428571Y-103200000D01*
X141500000Y-103271428D01*
X141571428Y-103414285D01*
X141571428Y-103485714D01*
X141500000Y-103628571D01*
X141428571Y-103700000D01*
X141285714Y-103771428D01*
X141000000Y-103771428D01*
X140857142Y-103842857D01*
X140785714Y-103914285D01*
X140714285Y-104057142D01*
X140714285Y-104342857D01*
X140785714Y-104485714D01*
X140857142Y-104557142D01*
X141000000Y-104628571D01*
X141285714Y-104628571D01*
X141428571Y-104557142D01*
X141500000Y-104485714D01*
X141571428Y-104342857D01*
X141571428Y-104057142D01*
X141500000Y-103914285D01*
X141428571Y-103842857D01*
X141285714Y-103771428D01*
D11*
X136025066Y-100324404D02*
X136125066Y-99524404D01*
X136315543Y-99524404D01*
X136425066Y-99562500D01*
X136491733Y-99638690D01*
X136520305Y-99714880D01*
X136539352Y-99867261D01*
X136525066Y-99981547D01*
X136467924Y-100133928D01*
X136420305Y-100210119D01*
X136334590Y-100286309D01*
X136215543Y-100324404D01*
X136025066Y-100324404D01*
X136825066Y-100324404D02*
X136891733Y-99791071D01*
X136925066Y-99524404D02*
X136882209Y-99562500D01*
X136915543Y-99600595D01*
X136958400Y-99562500D01*
X136925066Y-99524404D01*
X136915543Y-99600595D01*
X137172686Y-100286309D02*
X137244114Y-100324404D01*
X137396495Y-100324404D01*
X137477447Y-100286309D01*
X137525066Y-100210119D01*
X137529828Y-100172023D01*
X137501257Y-100095833D01*
X137429828Y-100057738D01*
X137315543Y-100057738D01*
X137244114Y-100019642D01*
X137215543Y-99943452D01*
X137220305Y-99905357D01*
X137267924Y-99829166D01*
X137348876Y-99791071D01*
X137463162Y-99791071D01*
X137534590Y-99829166D01*
X138163162Y-100286309D02*
X138082209Y-100324404D01*
X137929828Y-100324404D01*
X137858400Y-100286309D01*
X137829828Y-100210119D01*
X137867924Y-99905357D01*
X137915543Y-99829166D01*
X137996495Y-99791071D01*
X138148876Y-99791071D01*
X138220305Y-99829166D01*
X138248876Y-99905357D01*
X138239352Y-99981547D01*
X137848876Y-100057738D01*
X138606019Y-99791071D02*
X138539352Y-100324404D01*
X138596495Y-99867261D02*
X138639352Y-99829166D01*
X138720305Y-99791071D01*
X138834590Y-99791071D01*
X138906019Y-99829166D01*
X138934590Y-99905357D01*
X138882209Y-100324404D01*
X138591733Y-99600595D02*
X138634590Y-99562500D01*
X138715543Y-99524404D01*
X138858400Y-99600595D01*
X138939352Y-99562500D01*
X138982209Y-99524404D01*
X139606019Y-100324404D02*
X139658400Y-99905357D01*
X139629828Y-99829166D01*
X139558400Y-99791071D01*
X139406019Y-99791071D01*
X139325066Y-99829166D01*
X139610781Y-100286309D02*
X139529828Y-100324404D01*
X139339352Y-100324404D01*
X139267924Y-100286309D01*
X139239352Y-100210119D01*
X139248876Y-100133928D01*
X139296495Y-100057738D01*
X139377447Y-100019642D01*
X139567924Y-100019642D01*
X139648876Y-99981547D01*
X140329828Y-100324404D02*
X140429828Y-99524404D01*
X140334590Y-100286309D02*
X140253638Y-100324404D01*
X140101257Y-100324404D01*
X140029828Y-100286309D01*
X139996495Y-100248214D01*
X139967924Y-100172023D01*
X139996495Y-99943452D01*
X140044114Y-99867261D01*
X140086971Y-99829166D01*
X140167924Y-99791071D01*
X140320305Y-99791071D01*
X140391733Y-99829166D01*
X140825066Y-100324404D02*
X140753638Y-100286309D01*
X140720305Y-100248214D01*
X140691733Y-100172023D01*
X140720305Y-99943452D01*
X140767924Y-99867261D01*
X140810781Y-99829166D01*
X140891733Y-99791071D01*
X141006019Y-99791071D01*
X141077447Y-99829166D01*
X141110781Y-99867261D01*
X141139352Y-99943452D01*
X141110781Y-100172023D01*
X141063162Y-100248214D01*
X141020305Y-100286309D01*
X140939352Y-100324404D01*
X140825066Y-100324404D01*
X142110781Y-99791071D02*
X142010781Y-100591071D01*
X142106019Y-99829166D02*
X142186971Y-99791071D01*
X142339352Y-99791071D01*
X142410781Y-99829166D01*
X142444114Y-99867261D01*
X142472686Y-99943452D01*
X142444114Y-100172023D01*
X142396495Y-100248214D01*
X142353638Y-100286309D01*
X142272686Y-100324404D01*
X142120305Y-100324404D01*
X142048876Y-100286309D01*
X142882209Y-100324404D02*
X142810781Y-100286309D01*
X142777447Y-100248214D01*
X142748876Y-100172023D01*
X142777447Y-99943452D01*
X142825066Y-99867261D01*
X142867924Y-99829166D01*
X142948876Y-99791071D01*
X143063162Y-99791071D01*
X143134590Y-99829166D01*
X143167924Y-99867261D01*
X143196495Y-99943452D01*
X143167924Y-100172023D01*
X143120305Y-100248214D01*
X143077447Y-100286309D01*
X142996495Y-100324404D01*
X142882209Y-100324404D01*
X143491733Y-100324404D02*
X143558400Y-99791071D01*
X143539352Y-99943452D02*
X143586971Y-99867261D01*
X143629828Y-99829166D01*
X143710781Y-99791071D01*
X143786971Y-99791071D01*
X137120305Y-101166071D02*
X137034590Y-101851785D01*
X136986971Y-101927976D01*
X136906019Y-101966071D01*
X136867924Y-101966071D01*
X137153638Y-100899404D02*
X137110781Y-100937500D01*
X137144114Y-100975595D01*
X137186971Y-100937500D01*
X137153638Y-100899404D01*
X137144114Y-100975595D01*
X137434590Y-101699404D02*
X137534590Y-100899404D01*
X137777447Y-101699404D02*
X137829828Y-101280357D01*
X137801257Y-101204166D01*
X137729828Y-101166071D01*
X137615543Y-101166071D01*
X137534590Y-101204166D01*
X137491733Y-101242261D01*
X138272686Y-101699404D02*
X138201257Y-101661309D01*
X138167924Y-101623214D01*
X138139352Y-101547023D01*
X138167924Y-101318452D01*
X138215543Y-101242261D01*
X138258400Y-101204166D01*
X138339352Y-101166071D01*
X138453638Y-101166071D01*
X138525066Y-101204166D01*
X138558400Y-101242261D01*
X138586971Y-101318452D01*
X138558400Y-101547023D01*
X138510781Y-101623214D01*
X138467924Y-101661309D01*
X138386971Y-101699404D01*
X138272686Y-101699404D01*
X138948876Y-101166071D02*
X138882209Y-101699404D01*
X138939352Y-101242261D02*
X138982209Y-101204166D01*
X139063162Y-101166071D01*
X139177447Y-101166071D01*
X139248876Y-101204166D01*
X139277447Y-101280357D01*
X139225066Y-101699404D01*
X139558400Y-101166071D02*
X139863162Y-101166071D01*
X139706019Y-100899404D02*
X139620305Y-101585119D01*
X139648876Y-101661309D01*
X139720305Y-101699404D01*
X139796495Y-101699404D01*
X140063162Y-101699404D02*
X140163162Y-100899404D01*
X140406019Y-101699404D02*
X140458400Y-101280357D01*
X140429828Y-101204166D01*
X140358400Y-101166071D01*
X140244114Y-101166071D01*
X140163162Y-101204166D01*
X140120305Y-101242261D01*
X141129828Y-101699404D02*
X141182209Y-101280357D01*
X141153638Y-101204166D01*
X141082209Y-101166071D01*
X140929828Y-101166071D01*
X140848876Y-101204166D01*
X141134590Y-101661309D02*
X141053638Y-101699404D01*
X140863162Y-101699404D01*
X140791733Y-101661309D01*
X140763162Y-101585119D01*
X140772686Y-101508928D01*
X140820305Y-101432738D01*
X140901257Y-101394642D01*
X141091733Y-101394642D01*
X141172686Y-101356547D01*
X141553638Y-101661309D02*
X141548876Y-101699404D01*
X141501257Y-101775595D01*
X141458400Y-101813690D01*
X141891733Y-101699404D02*
X141958400Y-101166071D01*
X141948876Y-101242261D02*
X141991733Y-101204166D01*
X142072686Y-101166071D01*
X142186971Y-101166071D01*
X142258400Y-101204166D01*
X142286971Y-101280357D01*
X142234590Y-101699404D01*
X142286971Y-101280357D02*
X142334590Y-101204166D01*
X142415543Y-101166071D01*
X142529828Y-101166071D01*
X142601257Y-101204166D01*
X142629828Y-101280357D01*
X142577447Y-101699404D01*
D12*
X118980000Y-88260000D02*
X106820000Y-88260000D01*
X106820000Y-88260000D02*
X106820000Y-103660000D01*
X106820000Y-103660000D02*
X118980000Y-103660000D01*
X118980000Y-103660000D02*
X118980000Y-88260000D01*
X108320000Y-88260000D02*
X110120000Y-88260000D01*
X110120000Y-88260000D02*
X110120000Y-103660000D01*
X110120000Y-103660000D02*
X108320000Y-103660000D01*
X108320000Y-103660000D02*
X108320000Y-88260000D01*
X106820000Y-91150000D02*
X106820000Y-93150000D01*
X106820000Y-93150000D02*
X108320000Y-92900000D01*
X108320000Y-92900000D02*
X108320000Y-91400000D01*
X108320000Y-91400000D02*
X106820000Y-91150000D01*
X106820000Y-98770000D02*
X106820000Y-100770000D01*
X106820000Y-100770000D02*
X108320000Y-100520000D01*
X108320000Y-100520000D02*
X108320000Y-99020000D01*
X108320000Y-99020000D02*
X106820000Y-98770000D01*
X119780000Y-92450000D02*
X119180000Y-92150000D01*
X119180000Y-92150000D02*
X119780000Y-91850000D01*
X119780000Y-91850000D02*
X119780000Y-92450000D01*
X135900000Y-90800000D02*
X141950000Y-90800000D01*
X141950000Y-90800000D02*
X141950000Y-98600000D01*
X141950000Y-98600000D02*
X135900000Y-98600000D01*
X135900000Y-98600000D02*
X135900000Y-90800000D01*
X136000000Y-92150000D02*
X137010000Y-92150000D01*
X137010000Y-92150000D02*
X137010000Y-97230000D01*
X137010000Y-97230000D02*
X136000000Y-97230000D01*
X129661252Y-103210000D02*
X127438748Y-103210000D01*
X129661252Y-101390000D02*
X127438748Y-101390000D01*
X124761252Y-85990000D02*
X122538748Y-85990000D01*
X124761252Y-87810000D02*
X122538748Y-87810000D01*
X131861252Y-87760000D02*
X129638748Y-87760000D01*
X131861252Y-85940000D02*
X129638748Y-85940000D01*
X122760000Y-93900000D02*
G75*
G02X122760000Y-95900000I0J-1000000D01*
G01*
X122760000Y-95900000D02*
X122760000Y-97550000D01*
X122760000Y-97550000D02*
X133040000Y-97550000D01*
X133040000Y-97550000D02*
X133040000Y-92250000D01*
X133040000Y-92250000D02*
X122760000Y-92250000D01*
X122760000Y-92250000D02*
X122760000Y-93900000D01*
X122700000Y-100040000D02*
X133100000Y-100040000D01*
X133100000Y-100040000D02*
X133100000Y-89760000D01*
X133100000Y-89760000D02*
X122700000Y-89760000D01*
X122700000Y-89760000D02*
X122700000Y-100040000D01*
%LPC*%
D13*
X116900000Y-92150000D03*
D14*
X116900000Y-99770000D03*
D15*
X139300000Y-92150000D03*
D16*
X139300000Y-94690000D03*
X139300000Y-97230000D03*
D17*
G36*
X131160078Y-101201548D02*
X131191280Y-101206176D01*
X131221878Y-101213841D01*
X131251578Y-101224467D01*
X131280093Y-101237954D01*
X131307148Y-101254170D01*
X131332484Y-101272961D01*
X131355856Y-101294144D01*
X131377039Y-101317516D01*
X131395830Y-101342852D01*
X131412046Y-101369907D01*
X131425533Y-101398422D01*
X131436159Y-101428122D01*
X131443824Y-101458720D01*
X131448452Y-101489922D01*
X131450000Y-101521427D01*
X131450000Y-103078573D01*
X131448452Y-103110078D01*
X131443824Y-103141280D01*
X131436159Y-103171878D01*
X131425533Y-103201578D01*
X131412046Y-103230093D01*
X131395830Y-103257148D01*
X131377039Y-103282484D01*
X131355856Y-103305856D01*
X131332484Y-103327039D01*
X131307148Y-103345830D01*
X131280093Y-103362046D01*
X131251578Y-103375533D01*
X131221878Y-103386159D01*
X131191280Y-103393824D01*
X131160078Y-103398452D01*
X131128573Y-103400000D01*
X129971427Y-103400000D01*
X129939922Y-103398452D01*
X129908720Y-103393824D01*
X129878122Y-103386159D01*
X129848422Y-103375533D01*
X129819907Y-103362046D01*
X129792852Y-103345830D01*
X129767516Y-103327039D01*
X129744144Y-103305856D01*
X129722961Y-103282484D01*
X129704170Y-103257148D01*
X129687954Y-103230093D01*
X129674467Y-103201578D01*
X129663841Y-103171878D01*
X129656176Y-103141280D01*
X129651548Y-103110078D01*
X129650000Y-103078573D01*
X129650000Y-101521427D01*
X129651548Y-101489922D01*
X129656176Y-101458720D01*
X129663841Y-101428122D01*
X129674467Y-101398422D01*
X129687954Y-101369907D01*
X129704170Y-101342852D01*
X129722961Y-101317516D01*
X129744144Y-101294144D01*
X129767516Y-101272961D01*
X129792852Y-101254170D01*
X129819907Y-101237954D01*
X129848422Y-101224467D01*
X129878122Y-101213841D01*
X129908720Y-101206176D01*
X129939922Y-101201548D01*
X129971427Y-101200000D01*
X131128573Y-101200000D01*
X131160078Y-101201548D01*
X131160078Y-101201548D01*
G37*
D18*
X130550000Y-102300000D03*
D17*
G36*
X127160078Y-101201548D02*
X127191280Y-101206176D01*
X127221878Y-101213841D01*
X127251578Y-101224467D01*
X127280093Y-101237954D01*
X127307148Y-101254170D01*
X127332484Y-101272961D01*
X127355856Y-101294144D01*
X127377039Y-101317516D01*
X127395830Y-101342852D01*
X127412046Y-101369907D01*
X127425533Y-101398422D01*
X127436159Y-101428122D01*
X127443824Y-101458720D01*
X127448452Y-101489922D01*
X127450000Y-101521427D01*
X127450000Y-103078573D01*
X127448452Y-103110078D01*
X127443824Y-103141280D01*
X127436159Y-103171878D01*
X127425533Y-103201578D01*
X127412046Y-103230093D01*
X127395830Y-103257148D01*
X127377039Y-103282484D01*
X127355856Y-103305856D01*
X127332484Y-103327039D01*
X127307148Y-103345830D01*
X127280093Y-103362046D01*
X127251578Y-103375533D01*
X127221878Y-103386159D01*
X127191280Y-103393824D01*
X127160078Y-103398452D01*
X127128573Y-103400000D01*
X125971427Y-103400000D01*
X125939922Y-103398452D01*
X125908720Y-103393824D01*
X125878122Y-103386159D01*
X125848422Y-103375533D01*
X125819907Y-103362046D01*
X125792852Y-103345830D01*
X125767516Y-103327039D01*
X125744144Y-103305856D01*
X125722961Y-103282484D01*
X125704170Y-103257148D01*
X125687954Y-103230093D01*
X125674467Y-103201578D01*
X125663841Y-103171878D01*
X125656176Y-103141280D01*
X125651548Y-103110078D01*
X125650000Y-103078573D01*
X125650000Y-101521427D01*
X125651548Y-101489922D01*
X125656176Y-101458720D01*
X125663841Y-101428122D01*
X125674467Y-101398422D01*
X125687954Y-101369907D01*
X125704170Y-101342852D01*
X125722961Y-101317516D01*
X125744144Y-101294144D01*
X125767516Y-101272961D01*
X125792852Y-101254170D01*
X125819907Y-101237954D01*
X125848422Y-101224467D01*
X125878122Y-101213841D01*
X125908720Y-101206176D01*
X125939922Y-101201548D01*
X125971427Y-101200000D01*
X127128573Y-101200000D01*
X127160078Y-101201548D01*
X127160078Y-101201548D01*
G37*
D18*
X126550000Y-102300000D03*
D17*
G36*
X122260078Y-85801548D02*
X122291280Y-85806176D01*
X122321878Y-85813841D01*
X122351578Y-85824467D01*
X122380093Y-85837954D01*
X122407148Y-85854170D01*
X122432484Y-85872961D01*
X122455856Y-85894144D01*
X122477039Y-85917516D01*
X122495830Y-85942852D01*
X122512046Y-85969907D01*
X122525533Y-85998422D01*
X122536159Y-86028122D01*
X122543824Y-86058720D01*
X122548452Y-86089922D01*
X122550000Y-86121427D01*
X122550000Y-87678573D01*
X122548452Y-87710078D01*
X122543824Y-87741280D01*
X122536159Y-87771878D01*
X122525533Y-87801578D01*
X122512046Y-87830093D01*
X122495830Y-87857148D01*
X122477039Y-87882484D01*
X122455856Y-87905856D01*
X122432484Y-87927039D01*
X122407148Y-87945830D01*
X122380093Y-87962046D01*
X122351578Y-87975533D01*
X122321878Y-87986159D01*
X122291280Y-87993824D01*
X122260078Y-87998452D01*
X122228573Y-88000000D01*
X121071427Y-88000000D01*
X121039922Y-87998452D01*
X121008720Y-87993824D01*
X120978122Y-87986159D01*
X120948422Y-87975533D01*
X120919907Y-87962046D01*
X120892852Y-87945830D01*
X120867516Y-87927039D01*
X120844144Y-87905856D01*
X120822961Y-87882484D01*
X120804170Y-87857148D01*
X120787954Y-87830093D01*
X120774467Y-87801578D01*
X120763841Y-87771878D01*
X120756176Y-87741280D01*
X120751548Y-87710078D01*
X120750000Y-87678573D01*
X120750000Y-86121427D01*
X120751548Y-86089922D01*
X120756176Y-86058720D01*
X120763841Y-86028122D01*
X120774467Y-85998422D01*
X120787954Y-85969907D01*
X120804170Y-85942852D01*
X120822961Y-85917516D01*
X120844144Y-85894144D01*
X120867516Y-85872961D01*
X120892852Y-85854170D01*
X120919907Y-85837954D01*
X120948422Y-85824467D01*
X120978122Y-85813841D01*
X121008720Y-85806176D01*
X121039922Y-85801548D01*
X121071427Y-85800000D01*
X122228573Y-85800000D01*
X122260078Y-85801548D01*
X122260078Y-85801548D01*
G37*
D18*
X121650000Y-86900000D03*
D17*
G36*
X126260078Y-85801548D02*
X126291280Y-85806176D01*
X126321878Y-85813841D01*
X126351578Y-85824467D01*
X126380093Y-85837954D01*
X126407148Y-85854170D01*
X126432484Y-85872961D01*
X126455856Y-85894144D01*
X126477039Y-85917516D01*
X126495830Y-85942852D01*
X126512046Y-85969907D01*
X126525533Y-85998422D01*
X126536159Y-86028122D01*
X126543824Y-86058720D01*
X126548452Y-86089922D01*
X126550000Y-86121427D01*
X126550000Y-87678573D01*
X126548452Y-87710078D01*
X126543824Y-87741280D01*
X126536159Y-87771878D01*
X126525533Y-87801578D01*
X126512046Y-87830093D01*
X126495830Y-87857148D01*
X126477039Y-87882484D01*
X126455856Y-87905856D01*
X126432484Y-87927039D01*
X126407148Y-87945830D01*
X126380093Y-87962046D01*
X126351578Y-87975533D01*
X126321878Y-87986159D01*
X126291280Y-87993824D01*
X126260078Y-87998452D01*
X126228573Y-88000000D01*
X125071427Y-88000000D01*
X125039922Y-87998452D01*
X125008720Y-87993824D01*
X124978122Y-87986159D01*
X124948422Y-87975533D01*
X124919907Y-87962046D01*
X124892852Y-87945830D01*
X124867516Y-87927039D01*
X124844144Y-87905856D01*
X124822961Y-87882484D01*
X124804170Y-87857148D01*
X124787954Y-87830093D01*
X124774467Y-87801578D01*
X124763841Y-87771878D01*
X124756176Y-87741280D01*
X124751548Y-87710078D01*
X124750000Y-87678573D01*
X124750000Y-86121427D01*
X124751548Y-86089922D01*
X124756176Y-86058720D01*
X124763841Y-86028122D01*
X124774467Y-85998422D01*
X124787954Y-85969907D01*
X124804170Y-85942852D01*
X124822961Y-85917516D01*
X124844144Y-85894144D01*
X124867516Y-85872961D01*
X124892852Y-85854170D01*
X124919907Y-85837954D01*
X124948422Y-85824467D01*
X124978122Y-85813841D01*
X125008720Y-85806176D01*
X125039922Y-85801548D01*
X125071427Y-85800000D01*
X126228573Y-85800000D01*
X126260078Y-85801548D01*
X126260078Y-85801548D01*
G37*
D18*
X125650000Y-86900000D03*
D17*
G36*
X133360078Y-85751548D02*
X133391280Y-85756176D01*
X133421878Y-85763841D01*
X133451578Y-85774467D01*
X133480093Y-85787954D01*
X133507148Y-85804170D01*
X133532484Y-85822961D01*
X133555856Y-85844144D01*
X133577039Y-85867516D01*
X133595830Y-85892852D01*
X133612046Y-85919907D01*
X133625533Y-85948422D01*
X133636159Y-85978122D01*
X133643824Y-86008720D01*
X133648452Y-86039922D01*
X133650000Y-86071427D01*
X133650000Y-87628573D01*
X133648452Y-87660078D01*
X133643824Y-87691280D01*
X133636159Y-87721878D01*
X133625533Y-87751578D01*
X133612046Y-87780093D01*
X133595830Y-87807148D01*
X133577039Y-87832484D01*
X133555856Y-87855856D01*
X133532484Y-87877039D01*
X133507148Y-87895830D01*
X133480093Y-87912046D01*
X133451578Y-87925533D01*
X133421878Y-87936159D01*
X133391280Y-87943824D01*
X133360078Y-87948452D01*
X133328573Y-87950000D01*
X132171427Y-87950000D01*
X132139922Y-87948452D01*
X132108720Y-87943824D01*
X132078122Y-87936159D01*
X132048422Y-87925533D01*
X132019907Y-87912046D01*
X131992852Y-87895830D01*
X131967516Y-87877039D01*
X131944144Y-87855856D01*
X131922961Y-87832484D01*
X131904170Y-87807148D01*
X131887954Y-87780093D01*
X131874467Y-87751578D01*
X131863841Y-87721878D01*
X131856176Y-87691280D01*
X131851548Y-87660078D01*
X131850000Y-87628573D01*
X131850000Y-86071427D01*
X131851548Y-86039922D01*
X131856176Y-86008720D01*
X131863841Y-85978122D01*
X131874467Y-85948422D01*
X131887954Y-85919907D01*
X131904170Y-85892852D01*
X131922961Y-85867516D01*
X131944144Y-85844144D01*
X131967516Y-85822961D01*
X131992852Y-85804170D01*
X132019907Y-85787954D01*
X132048422Y-85774467D01*
X132078122Y-85763841D01*
X132108720Y-85756176D01*
X132139922Y-85751548D01*
X132171427Y-85750000D01*
X133328573Y-85750000D01*
X133360078Y-85751548D01*
X133360078Y-85751548D01*
G37*
D18*
X132750000Y-86850000D03*
D17*
G36*
X129360078Y-85751548D02*
X129391280Y-85756176D01*
X129421878Y-85763841D01*
X129451578Y-85774467D01*
X129480093Y-85787954D01*
X129507148Y-85804170D01*
X129532484Y-85822961D01*
X129555856Y-85844144D01*
X129577039Y-85867516D01*
X129595830Y-85892852D01*
X129612046Y-85919907D01*
X129625533Y-85948422D01*
X129636159Y-85978122D01*
X129643824Y-86008720D01*
X129648452Y-86039922D01*
X129650000Y-86071427D01*
X129650000Y-87628573D01*
X129648452Y-87660078D01*
X129643824Y-87691280D01*
X129636159Y-87721878D01*
X129625533Y-87751578D01*
X129612046Y-87780093D01*
X129595830Y-87807148D01*
X129577039Y-87832484D01*
X129555856Y-87855856D01*
X129532484Y-87877039D01*
X129507148Y-87895830D01*
X129480093Y-87912046D01*
X129451578Y-87925533D01*
X129421878Y-87936159D01*
X129391280Y-87943824D01*
X129360078Y-87948452D01*
X129328573Y-87950000D01*
X128171427Y-87950000D01*
X128139922Y-87948452D01*
X128108720Y-87943824D01*
X128078122Y-87936159D01*
X128048422Y-87925533D01*
X128019907Y-87912046D01*
X127992852Y-87895830D01*
X127967516Y-87877039D01*
X127944144Y-87855856D01*
X127922961Y-87832484D01*
X127904170Y-87807148D01*
X127887954Y-87780093D01*
X127874467Y-87751578D01*
X127863841Y-87721878D01*
X127856176Y-87691280D01*
X127851548Y-87660078D01*
X127850000Y-87628573D01*
X127850000Y-86071427D01*
X127851548Y-86039922D01*
X127856176Y-86008720D01*
X127863841Y-85978122D01*
X127874467Y-85948422D01*
X127887954Y-85919907D01*
X127904170Y-85892852D01*
X127922961Y-85867516D01*
X127944144Y-85844144D01*
X127967516Y-85822961D01*
X127992852Y-85804170D01*
X128019907Y-85787954D01*
X128048422Y-85774467D01*
X128078122Y-85763841D01*
X128108720Y-85756176D01*
X128139922Y-85751548D01*
X128171427Y-85750000D01*
X129328573Y-85750000D01*
X129360078Y-85751548D01*
X129360078Y-85751548D01*
G37*
D18*
X128750000Y-86850000D03*
D19*
X124090000Y-98710000D03*
X131710000Y-91090000D03*
X126630000Y-98710000D03*
X129170000Y-91090000D03*
X129170000Y-98710000D03*
X126630000Y-91090000D03*
X131710000Y-98710000D03*
X124090000Y-91090000D03*
M02*
