%TF.GenerationSoftware,KiCad,Pcbnew,(5.0.0)*%
%TF.CreationDate,2018-10-04T12:31:17-06:00*%
%TF.ProjectId,Ejemplo,456A656D706C6F2E6B696361645F7063,1.0*%
%TF.SameCoordinates,Original*%
%TF.FileFunction,Copper,L1,Top,Signal*%
%TF.FilePolarity,Positive*%
%FSLAX46Y46*%
G04 Gerber Fmt 4.6, Leading zero omitted, Abs format (unit mm)*
G04 Created by KiCad (PCBNEW (5.0.0)) date 10/04/18 12:31:17*
%MOMM*%
%LPD*%
G01*
G04 APERTURE LIST*
%ADD10R,3.600000X2.100000*%
%ADD11O,3.600000X2.100000*%
%ADD12R,2.030000X1.730000*%
%ADD13O,2.030000X1.730000*%
%ADD14C,0.100000*%
%ADD15C,1.400000*%
%ADD16R,1.600000X1.600000*%
%ADD17C,0.800000*%
%ADD18C,0.500000*%
%ADD19C,0.254000*%
G04 APERTURE END LIST*
D10*
X116900000Y-92150000D03*
D11*
X116900000Y-99770000D03*
D12*
X139300000Y-92150000D03*
D13*
X139300000Y-94690000D03*
X139300000Y-97230000D03*
D14*
G36*
X131024505Y-101401204D02*
X131048773Y-101404804D01*
X131072572Y-101410765D01*
X131095671Y-101419030D01*
X131117850Y-101429520D01*
X131138893Y-101442132D01*
X131158599Y-101456747D01*
X131176777Y-101473223D01*
X131193253Y-101491401D01*
X131207868Y-101511107D01*
X131220480Y-101532150D01*
X131230970Y-101554329D01*
X131239235Y-101577428D01*
X131245196Y-101601227D01*
X131248796Y-101625495D01*
X131250000Y-101649999D01*
X131250000Y-102950001D01*
X131248796Y-102974505D01*
X131245196Y-102998773D01*
X131239235Y-103022572D01*
X131230970Y-103045671D01*
X131220480Y-103067850D01*
X131207868Y-103088893D01*
X131193253Y-103108599D01*
X131176777Y-103126777D01*
X131158599Y-103143253D01*
X131138893Y-103157868D01*
X131117850Y-103170480D01*
X131095671Y-103180970D01*
X131072572Y-103189235D01*
X131048773Y-103195196D01*
X131024505Y-103198796D01*
X131000001Y-103200000D01*
X130099999Y-103200000D01*
X130075495Y-103198796D01*
X130051227Y-103195196D01*
X130027428Y-103189235D01*
X130004329Y-103180970D01*
X129982150Y-103170480D01*
X129961107Y-103157868D01*
X129941401Y-103143253D01*
X129923223Y-103126777D01*
X129906747Y-103108599D01*
X129892132Y-103088893D01*
X129879520Y-103067850D01*
X129869030Y-103045671D01*
X129860765Y-103022572D01*
X129854804Y-102998773D01*
X129851204Y-102974505D01*
X129850000Y-102950001D01*
X129850000Y-101649999D01*
X129851204Y-101625495D01*
X129854804Y-101601227D01*
X129860765Y-101577428D01*
X129869030Y-101554329D01*
X129879520Y-101532150D01*
X129892132Y-101511107D01*
X129906747Y-101491401D01*
X129923223Y-101473223D01*
X129941401Y-101456747D01*
X129961107Y-101442132D01*
X129982150Y-101429520D01*
X130004329Y-101419030D01*
X130027428Y-101410765D01*
X130051227Y-101404804D01*
X130075495Y-101401204D01*
X130099999Y-101400000D01*
X131000001Y-101400000D01*
X131024505Y-101401204D01*
X131024505Y-101401204D01*
G37*
D15*
X130550000Y-102300000D03*
D14*
G36*
X127024505Y-101401204D02*
X127048773Y-101404804D01*
X127072572Y-101410765D01*
X127095671Y-101419030D01*
X127117850Y-101429520D01*
X127138893Y-101442132D01*
X127158599Y-101456747D01*
X127176777Y-101473223D01*
X127193253Y-101491401D01*
X127207868Y-101511107D01*
X127220480Y-101532150D01*
X127230970Y-101554329D01*
X127239235Y-101577428D01*
X127245196Y-101601227D01*
X127248796Y-101625495D01*
X127250000Y-101649999D01*
X127250000Y-102950001D01*
X127248796Y-102974505D01*
X127245196Y-102998773D01*
X127239235Y-103022572D01*
X127230970Y-103045671D01*
X127220480Y-103067850D01*
X127207868Y-103088893D01*
X127193253Y-103108599D01*
X127176777Y-103126777D01*
X127158599Y-103143253D01*
X127138893Y-103157868D01*
X127117850Y-103170480D01*
X127095671Y-103180970D01*
X127072572Y-103189235D01*
X127048773Y-103195196D01*
X127024505Y-103198796D01*
X127000001Y-103200000D01*
X126099999Y-103200000D01*
X126075495Y-103198796D01*
X126051227Y-103195196D01*
X126027428Y-103189235D01*
X126004329Y-103180970D01*
X125982150Y-103170480D01*
X125961107Y-103157868D01*
X125941401Y-103143253D01*
X125923223Y-103126777D01*
X125906747Y-103108599D01*
X125892132Y-103088893D01*
X125879520Y-103067850D01*
X125869030Y-103045671D01*
X125860765Y-103022572D01*
X125854804Y-102998773D01*
X125851204Y-102974505D01*
X125850000Y-102950001D01*
X125850000Y-101649999D01*
X125851204Y-101625495D01*
X125854804Y-101601227D01*
X125860765Y-101577428D01*
X125869030Y-101554329D01*
X125879520Y-101532150D01*
X125892132Y-101511107D01*
X125906747Y-101491401D01*
X125923223Y-101473223D01*
X125941401Y-101456747D01*
X125961107Y-101442132D01*
X125982150Y-101429520D01*
X126004329Y-101419030D01*
X126027428Y-101410765D01*
X126051227Y-101404804D01*
X126075495Y-101401204D01*
X126099999Y-101400000D01*
X127000001Y-101400000D01*
X127024505Y-101401204D01*
X127024505Y-101401204D01*
G37*
D15*
X126550000Y-102300000D03*
D14*
G36*
X122124505Y-86001204D02*
X122148773Y-86004804D01*
X122172572Y-86010765D01*
X122195671Y-86019030D01*
X122217850Y-86029520D01*
X122238893Y-86042132D01*
X122258599Y-86056747D01*
X122276777Y-86073223D01*
X122293253Y-86091401D01*
X122307868Y-86111107D01*
X122320480Y-86132150D01*
X122330970Y-86154329D01*
X122339235Y-86177428D01*
X122345196Y-86201227D01*
X122348796Y-86225495D01*
X122350000Y-86249999D01*
X122350000Y-87550001D01*
X122348796Y-87574505D01*
X122345196Y-87598773D01*
X122339235Y-87622572D01*
X122330970Y-87645671D01*
X122320480Y-87667850D01*
X122307868Y-87688893D01*
X122293253Y-87708599D01*
X122276777Y-87726777D01*
X122258599Y-87743253D01*
X122238893Y-87757868D01*
X122217850Y-87770480D01*
X122195671Y-87780970D01*
X122172572Y-87789235D01*
X122148773Y-87795196D01*
X122124505Y-87798796D01*
X122100001Y-87800000D01*
X121199999Y-87800000D01*
X121175495Y-87798796D01*
X121151227Y-87795196D01*
X121127428Y-87789235D01*
X121104329Y-87780970D01*
X121082150Y-87770480D01*
X121061107Y-87757868D01*
X121041401Y-87743253D01*
X121023223Y-87726777D01*
X121006747Y-87708599D01*
X120992132Y-87688893D01*
X120979520Y-87667850D01*
X120969030Y-87645671D01*
X120960765Y-87622572D01*
X120954804Y-87598773D01*
X120951204Y-87574505D01*
X120950000Y-87550001D01*
X120950000Y-86249999D01*
X120951204Y-86225495D01*
X120954804Y-86201227D01*
X120960765Y-86177428D01*
X120969030Y-86154329D01*
X120979520Y-86132150D01*
X120992132Y-86111107D01*
X121006747Y-86091401D01*
X121023223Y-86073223D01*
X121041401Y-86056747D01*
X121061107Y-86042132D01*
X121082150Y-86029520D01*
X121104329Y-86019030D01*
X121127428Y-86010765D01*
X121151227Y-86004804D01*
X121175495Y-86001204D01*
X121199999Y-86000000D01*
X122100001Y-86000000D01*
X122124505Y-86001204D01*
X122124505Y-86001204D01*
G37*
D15*
X121650000Y-86900000D03*
D14*
G36*
X126124505Y-86001204D02*
X126148773Y-86004804D01*
X126172572Y-86010765D01*
X126195671Y-86019030D01*
X126217850Y-86029520D01*
X126238893Y-86042132D01*
X126258599Y-86056747D01*
X126276777Y-86073223D01*
X126293253Y-86091401D01*
X126307868Y-86111107D01*
X126320480Y-86132150D01*
X126330970Y-86154329D01*
X126339235Y-86177428D01*
X126345196Y-86201227D01*
X126348796Y-86225495D01*
X126350000Y-86249999D01*
X126350000Y-87550001D01*
X126348796Y-87574505D01*
X126345196Y-87598773D01*
X126339235Y-87622572D01*
X126330970Y-87645671D01*
X126320480Y-87667850D01*
X126307868Y-87688893D01*
X126293253Y-87708599D01*
X126276777Y-87726777D01*
X126258599Y-87743253D01*
X126238893Y-87757868D01*
X126217850Y-87770480D01*
X126195671Y-87780970D01*
X126172572Y-87789235D01*
X126148773Y-87795196D01*
X126124505Y-87798796D01*
X126100001Y-87800000D01*
X125199999Y-87800000D01*
X125175495Y-87798796D01*
X125151227Y-87795196D01*
X125127428Y-87789235D01*
X125104329Y-87780970D01*
X125082150Y-87770480D01*
X125061107Y-87757868D01*
X125041401Y-87743253D01*
X125023223Y-87726777D01*
X125006747Y-87708599D01*
X124992132Y-87688893D01*
X124979520Y-87667850D01*
X124969030Y-87645671D01*
X124960765Y-87622572D01*
X124954804Y-87598773D01*
X124951204Y-87574505D01*
X124950000Y-87550001D01*
X124950000Y-86249999D01*
X124951204Y-86225495D01*
X124954804Y-86201227D01*
X124960765Y-86177428D01*
X124969030Y-86154329D01*
X124979520Y-86132150D01*
X124992132Y-86111107D01*
X125006747Y-86091401D01*
X125023223Y-86073223D01*
X125041401Y-86056747D01*
X125061107Y-86042132D01*
X125082150Y-86029520D01*
X125104329Y-86019030D01*
X125127428Y-86010765D01*
X125151227Y-86004804D01*
X125175495Y-86001204D01*
X125199999Y-86000000D01*
X126100001Y-86000000D01*
X126124505Y-86001204D01*
X126124505Y-86001204D01*
G37*
D15*
X125650000Y-86900000D03*
D14*
G36*
X133224505Y-85951204D02*
X133248773Y-85954804D01*
X133272572Y-85960765D01*
X133295671Y-85969030D01*
X133317850Y-85979520D01*
X133338893Y-85992132D01*
X133358599Y-86006747D01*
X133376777Y-86023223D01*
X133393253Y-86041401D01*
X133407868Y-86061107D01*
X133420480Y-86082150D01*
X133430970Y-86104329D01*
X133439235Y-86127428D01*
X133445196Y-86151227D01*
X133448796Y-86175495D01*
X133450000Y-86199999D01*
X133450000Y-87500001D01*
X133448796Y-87524505D01*
X133445196Y-87548773D01*
X133439235Y-87572572D01*
X133430970Y-87595671D01*
X133420480Y-87617850D01*
X133407868Y-87638893D01*
X133393253Y-87658599D01*
X133376777Y-87676777D01*
X133358599Y-87693253D01*
X133338893Y-87707868D01*
X133317850Y-87720480D01*
X133295671Y-87730970D01*
X133272572Y-87739235D01*
X133248773Y-87745196D01*
X133224505Y-87748796D01*
X133200001Y-87750000D01*
X132299999Y-87750000D01*
X132275495Y-87748796D01*
X132251227Y-87745196D01*
X132227428Y-87739235D01*
X132204329Y-87730970D01*
X132182150Y-87720480D01*
X132161107Y-87707868D01*
X132141401Y-87693253D01*
X132123223Y-87676777D01*
X132106747Y-87658599D01*
X132092132Y-87638893D01*
X132079520Y-87617850D01*
X132069030Y-87595671D01*
X132060765Y-87572572D01*
X132054804Y-87548773D01*
X132051204Y-87524505D01*
X132050000Y-87500001D01*
X132050000Y-86199999D01*
X132051204Y-86175495D01*
X132054804Y-86151227D01*
X132060765Y-86127428D01*
X132069030Y-86104329D01*
X132079520Y-86082150D01*
X132092132Y-86061107D01*
X132106747Y-86041401D01*
X132123223Y-86023223D01*
X132141401Y-86006747D01*
X132161107Y-85992132D01*
X132182150Y-85979520D01*
X132204329Y-85969030D01*
X132227428Y-85960765D01*
X132251227Y-85954804D01*
X132275495Y-85951204D01*
X132299999Y-85950000D01*
X133200001Y-85950000D01*
X133224505Y-85951204D01*
X133224505Y-85951204D01*
G37*
D15*
X132750000Y-86850000D03*
D14*
G36*
X129224505Y-85951204D02*
X129248773Y-85954804D01*
X129272572Y-85960765D01*
X129295671Y-85969030D01*
X129317850Y-85979520D01*
X129338893Y-85992132D01*
X129358599Y-86006747D01*
X129376777Y-86023223D01*
X129393253Y-86041401D01*
X129407868Y-86061107D01*
X129420480Y-86082150D01*
X129430970Y-86104329D01*
X129439235Y-86127428D01*
X129445196Y-86151227D01*
X129448796Y-86175495D01*
X129450000Y-86199999D01*
X129450000Y-87500001D01*
X129448796Y-87524505D01*
X129445196Y-87548773D01*
X129439235Y-87572572D01*
X129430970Y-87595671D01*
X129420480Y-87617850D01*
X129407868Y-87638893D01*
X129393253Y-87658599D01*
X129376777Y-87676777D01*
X129358599Y-87693253D01*
X129338893Y-87707868D01*
X129317850Y-87720480D01*
X129295671Y-87730970D01*
X129272572Y-87739235D01*
X129248773Y-87745196D01*
X129224505Y-87748796D01*
X129200001Y-87750000D01*
X128299999Y-87750000D01*
X128275495Y-87748796D01*
X128251227Y-87745196D01*
X128227428Y-87739235D01*
X128204329Y-87730970D01*
X128182150Y-87720480D01*
X128161107Y-87707868D01*
X128141401Y-87693253D01*
X128123223Y-87676777D01*
X128106747Y-87658599D01*
X128092132Y-87638893D01*
X128079520Y-87617850D01*
X128069030Y-87595671D01*
X128060765Y-87572572D01*
X128054804Y-87548773D01*
X128051204Y-87524505D01*
X128050000Y-87500001D01*
X128050000Y-86199999D01*
X128051204Y-86175495D01*
X128054804Y-86151227D01*
X128060765Y-86127428D01*
X128069030Y-86104329D01*
X128079520Y-86082150D01*
X128092132Y-86061107D01*
X128106747Y-86041401D01*
X128123223Y-86023223D01*
X128141401Y-86006747D01*
X128161107Y-85992132D01*
X128182150Y-85979520D01*
X128204329Y-85969030D01*
X128227428Y-85960765D01*
X128251227Y-85954804D01*
X128275495Y-85951204D01*
X128299999Y-85950000D01*
X129200001Y-85950000D01*
X129224505Y-85951204D01*
X129224505Y-85951204D01*
G37*
D15*
X128750000Y-86850000D03*
D16*
X124090000Y-98710000D03*
X131710000Y-91090000D03*
X126630000Y-98710000D03*
X129170000Y-91090000D03*
X129170000Y-98710000D03*
X126630000Y-91090000D03*
X131710000Y-98710000D03*
X124090000Y-91090000D03*
D17*
X123350000Y-102350000D03*
X135950000Y-94700000D03*
X135900000Y-97200000D03*
X134600000Y-100600000D03*
X134650000Y-90300000D03*
D18*
X126630000Y-102220000D02*
X126550000Y-102300000D01*
X126630000Y-98710000D02*
X126630000Y-102220000D01*
X126500000Y-102350000D02*
X126550000Y-102300000D01*
X123350000Y-102350000D02*
X126500000Y-102350000D01*
X126630000Y-91090000D02*
X126630000Y-92180000D01*
X126630000Y-92180000D02*
X129140000Y-94690000D01*
X135940000Y-94690000D02*
X129140000Y-94690000D01*
X135950000Y-94700000D02*
X135940000Y-94690000D01*
X134390000Y-98710000D02*
X131710000Y-98710000D01*
X135900000Y-97200000D02*
X134390000Y-98710000D01*
X125700000Y-86850000D02*
X125650000Y-86900000D01*
X128750000Y-86850000D02*
X125700000Y-86850000D01*
X130550000Y-102300000D02*
X133400000Y-102300000D01*
X133400000Y-102300000D02*
X134600000Y-101100000D01*
X134600000Y-101100000D02*
X134600000Y-100600000D01*
X134650000Y-90300000D02*
X133350000Y-89000000D01*
X133350000Y-89000000D02*
X131150000Y-89000000D01*
X129000000Y-86850000D02*
X128750000Y-86850000D01*
X131150000Y-89000000D02*
X129000000Y-86850000D01*
X129170000Y-91090000D02*
X129170000Y-90220000D01*
X129170000Y-91090000D02*
X129170000Y-89270000D01*
X129170000Y-89270000D02*
X128850000Y-88950000D01*
X128850000Y-88950000D02*
X122150000Y-88950000D01*
X121650000Y-88450000D02*
X121650000Y-86900000D01*
X122150000Y-88950000D02*
X121650000Y-88450000D01*
D19*
G36*
X143840000Y-104890000D02*
X103710000Y-104890000D01*
X103710000Y-102144126D01*
X122315000Y-102144126D01*
X122315000Y-102555874D01*
X122472569Y-102936280D01*
X122763720Y-103227431D01*
X123144126Y-103385000D01*
X123555874Y-103385000D01*
X123918007Y-103235000D01*
X125259249Y-103235000D01*
X125270873Y-103293436D01*
X125465414Y-103584586D01*
X125756564Y-103779127D01*
X126099999Y-103847440D01*
X127000001Y-103847440D01*
X127343436Y-103779127D01*
X127634586Y-103584586D01*
X127829127Y-103293436D01*
X127897440Y-102950001D01*
X127897440Y-101649999D01*
X129202560Y-101649999D01*
X129202560Y-102950001D01*
X129270873Y-103293436D01*
X129465414Y-103584586D01*
X129756564Y-103779127D01*
X130099999Y-103847440D01*
X131000001Y-103847440D01*
X131343436Y-103779127D01*
X131634586Y-103584586D01*
X131829127Y-103293436D01*
X131850696Y-103185000D01*
X133312839Y-103185000D01*
X133400000Y-103202337D01*
X133487161Y-103185000D01*
X133487165Y-103185000D01*
X133745310Y-103133652D01*
X134038049Y-102938049D01*
X134087425Y-102864153D01*
X135164156Y-101787423D01*
X135238049Y-101738049D01*
X135288897Y-101661951D01*
X135433651Y-101445311D01*
X135433652Y-101445310D01*
X135485000Y-101187165D01*
X135485000Y-101187161D01*
X135492330Y-101150311D01*
X135635000Y-100805874D01*
X135635000Y-100394126D01*
X135477431Y-100013720D01*
X135186280Y-99722569D01*
X134805874Y-99565000D01*
X134627986Y-99565000D01*
X134735310Y-99543652D01*
X135028049Y-99348049D01*
X135077425Y-99274153D01*
X136124148Y-98227431D01*
X136486280Y-98077431D01*
X136777431Y-97786280D01*
X136935000Y-97405874D01*
X136935000Y-96994126D01*
X136777431Y-96613720D01*
X136486280Y-96322569D01*
X136105874Y-96165000D01*
X135694126Y-96165000D01*
X135313720Y-96322569D01*
X135022569Y-96613720D01*
X134872569Y-96975852D01*
X134023422Y-97825000D01*
X133140533Y-97825000D01*
X133108157Y-97662235D01*
X132967809Y-97452191D01*
X132757765Y-97311843D01*
X132510000Y-97262560D01*
X130910000Y-97262560D01*
X130662235Y-97311843D01*
X130452191Y-97452191D01*
X130435378Y-97477353D01*
X130329699Y-97371673D01*
X130096310Y-97275000D01*
X129455750Y-97275000D01*
X129297000Y-97433750D01*
X129297000Y-98583000D01*
X129317000Y-98583000D01*
X129317000Y-98837000D01*
X129297000Y-98837000D01*
X129297000Y-99986250D01*
X129455750Y-100145000D01*
X130096310Y-100145000D01*
X130329699Y-100048327D01*
X130435378Y-99942647D01*
X130452191Y-99967809D01*
X130662235Y-100108157D01*
X130910000Y-100157440D01*
X132510000Y-100157440D01*
X132757765Y-100108157D01*
X132967809Y-99967809D01*
X133108157Y-99757765D01*
X133140533Y-99595000D01*
X134302839Y-99595000D01*
X134315581Y-99597534D01*
X134013720Y-99722569D01*
X133722569Y-100013720D01*
X133565000Y-100394126D01*
X133565000Y-100805874D01*
X133587713Y-100860708D01*
X133033422Y-101415000D01*
X131850696Y-101415000D01*
X131829127Y-101306564D01*
X131634586Y-101015414D01*
X131343436Y-100820873D01*
X131000001Y-100752560D01*
X130099999Y-100752560D01*
X129756564Y-100820873D01*
X129465414Y-101015414D01*
X129270873Y-101306564D01*
X129202560Y-101649999D01*
X127897440Y-101649999D01*
X127829127Y-101306564D01*
X127634586Y-101015414D01*
X127515000Y-100935509D01*
X127515000Y-100140533D01*
X127677765Y-100108157D01*
X127887809Y-99967809D01*
X127904622Y-99942647D01*
X128010301Y-100048327D01*
X128243690Y-100145000D01*
X128884250Y-100145000D01*
X129043000Y-99986250D01*
X129043000Y-98837000D01*
X129023000Y-98837000D01*
X129023000Y-98583000D01*
X129043000Y-98583000D01*
X129043000Y-97433750D01*
X128884250Y-97275000D01*
X128243690Y-97275000D01*
X128010301Y-97371673D01*
X127904622Y-97477353D01*
X127887809Y-97452191D01*
X127677765Y-97311843D01*
X127430000Y-97262560D01*
X125830000Y-97262560D01*
X125582235Y-97311843D01*
X125372191Y-97452191D01*
X125360000Y-97470436D01*
X125347809Y-97452191D01*
X125137765Y-97311843D01*
X124890000Y-97262560D01*
X123290000Y-97262560D01*
X123042235Y-97311843D01*
X122832191Y-97452191D01*
X122691843Y-97662235D01*
X122642560Y-97910000D01*
X122642560Y-99510000D01*
X122691843Y-99757765D01*
X122832191Y-99967809D01*
X123042235Y-100108157D01*
X123290000Y-100157440D01*
X124890000Y-100157440D01*
X125137765Y-100108157D01*
X125347809Y-99967809D01*
X125360000Y-99949564D01*
X125372191Y-99967809D01*
X125582235Y-100108157D01*
X125745000Y-100140533D01*
X125745001Y-100828599D01*
X125465414Y-101015414D01*
X125270873Y-101306564D01*
X125239358Y-101465000D01*
X123918007Y-101465000D01*
X123555874Y-101315000D01*
X123144126Y-101315000D01*
X122763720Y-101472569D01*
X122472569Y-101763720D01*
X122315000Y-102144126D01*
X103710000Y-102144126D01*
X103710000Y-99770000D01*
X114431989Y-99770000D01*
X114562765Y-100427454D01*
X114935183Y-100984817D01*
X115492546Y-101357235D01*
X115984043Y-101455000D01*
X117815957Y-101455000D01*
X118307454Y-101357235D01*
X118864817Y-100984817D01*
X119237235Y-100427454D01*
X119368011Y-99770000D01*
X119237235Y-99112546D01*
X118864817Y-98555183D01*
X118307454Y-98182765D01*
X117815957Y-98085000D01*
X115984043Y-98085000D01*
X115492546Y-98182765D01*
X114935183Y-98555183D01*
X114562765Y-99112546D01*
X114431989Y-99770000D01*
X103710000Y-99770000D01*
X103710000Y-92435750D01*
X114465000Y-92435750D01*
X114465000Y-93326309D01*
X114561673Y-93559698D01*
X114740301Y-93738327D01*
X114973690Y-93835000D01*
X116614250Y-93835000D01*
X116773000Y-93676250D01*
X116773000Y-92277000D01*
X117027000Y-92277000D01*
X117027000Y-93676250D01*
X117185750Y-93835000D01*
X118826310Y-93835000D01*
X119059699Y-93738327D01*
X119238327Y-93559698D01*
X119335000Y-93326309D01*
X119335000Y-92435750D01*
X119176250Y-92277000D01*
X117027000Y-92277000D01*
X116773000Y-92277000D01*
X114623750Y-92277000D01*
X114465000Y-92435750D01*
X103710000Y-92435750D01*
X103710000Y-90973691D01*
X114465000Y-90973691D01*
X114465000Y-91864250D01*
X114623750Y-92023000D01*
X116773000Y-92023000D01*
X116773000Y-90623750D01*
X117027000Y-90623750D01*
X117027000Y-92023000D01*
X119176250Y-92023000D01*
X119335000Y-91864250D01*
X119335000Y-90973691D01*
X119238327Y-90740302D01*
X119059699Y-90561673D01*
X118826310Y-90465000D01*
X117185750Y-90465000D01*
X117027000Y-90623750D01*
X116773000Y-90623750D01*
X116614250Y-90465000D01*
X114973690Y-90465000D01*
X114740301Y-90561673D01*
X114561673Y-90740302D01*
X114465000Y-90973691D01*
X103710000Y-90973691D01*
X103710000Y-86249999D01*
X120302560Y-86249999D01*
X120302560Y-87550001D01*
X120370873Y-87893436D01*
X120565414Y-88184586D01*
X120765000Y-88317946D01*
X120765000Y-88362839D01*
X120747663Y-88450000D01*
X120765000Y-88537161D01*
X120765000Y-88537164D01*
X120816348Y-88795309D01*
X121011951Y-89088049D01*
X121085847Y-89137425D01*
X121462575Y-89514153D01*
X121511951Y-89588049D01*
X121804690Y-89783652D01*
X122062835Y-89835000D01*
X122062839Y-89835000D01*
X122150000Y-89852337D01*
X122237161Y-89835000D01*
X122830314Y-89835000D01*
X122691843Y-90042235D01*
X122642560Y-90290000D01*
X122642560Y-91890000D01*
X122691843Y-92137765D01*
X122832191Y-92347809D01*
X123042235Y-92488157D01*
X123290000Y-92537440D01*
X124890000Y-92537440D01*
X125137765Y-92488157D01*
X125347809Y-92347809D01*
X125360000Y-92329564D01*
X125372191Y-92347809D01*
X125582235Y-92488157D01*
X125800538Y-92531580D01*
X125942576Y-92744154D01*
X125942578Y-92744156D01*
X125991952Y-92818049D01*
X126065845Y-92867423D01*
X128452577Y-95254156D01*
X128501951Y-95328049D01*
X128575844Y-95377423D01*
X128575845Y-95377424D01*
X128590811Y-95387424D01*
X128794690Y-95523652D01*
X129052835Y-95575000D01*
X129052840Y-95575000D01*
X129139999Y-95592337D01*
X129227159Y-95575000D01*
X135361289Y-95575000D01*
X135363720Y-95577431D01*
X135744126Y-95735000D01*
X136155874Y-95735000D01*
X136536280Y-95577431D01*
X136827431Y-95286280D01*
X136985000Y-94905874D01*
X136985000Y-94690000D01*
X137620614Y-94690000D01*
X137737032Y-95275271D01*
X138068561Y-95771439D01*
X138350762Y-95960000D01*
X138068561Y-96148561D01*
X137737032Y-96644729D01*
X137620614Y-97230000D01*
X137737032Y-97815271D01*
X138068561Y-98311439D01*
X138564729Y-98642968D01*
X139002267Y-98730000D01*
X139597733Y-98730000D01*
X140035271Y-98642968D01*
X140531439Y-98311439D01*
X140862968Y-97815271D01*
X140979386Y-97230000D01*
X140862968Y-96644729D01*
X140531439Y-96148561D01*
X140249238Y-95960000D01*
X140531439Y-95771439D01*
X140862968Y-95275271D01*
X140979386Y-94690000D01*
X140862968Y-94104729D01*
X140533588Y-93611777D01*
X140674698Y-93553327D01*
X140853327Y-93374699D01*
X140950000Y-93141310D01*
X140950000Y-92435750D01*
X140791250Y-92277000D01*
X139427000Y-92277000D01*
X139427000Y-92297000D01*
X139173000Y-92297000D01*
X139173000Y-92277000D01*
X137808750Y-92277000D01*
X137650000Y-92435750D01*
X137650000Y-93141310D01*
X137746673Y-93374699D01*
X137925302Y-93553327D01*
X138066412Y-93611777D01*
X137737032Y-94104729D01*
X137620614Y-94690000D01*
X136985000Y-94690000D01*
X136985000Y-94494126D01*
X136827431Y-94113720D01*
X136536280Y-93822569D01*
X136155874Y-93665000D01*
X135744126Y-93665000D01*
X135406135Y-93805000D01*
X129506579Y-93805000D01*
X128206496Y-92504917D01*
X128370000Y-92537440D01*
X129970000Y-92537440D01*
X130217765Y-92488157D01*
X130427809Y-92347809D01*
X130440000Y-92329564D01*
X130452191Y-92347809D01*
X130662235Y-92488157D01*
X130910000Y-92537440D01*
X132510000Y-92537440D01*
X132757765Y-92488157D01*
X132967809Y-92347809D01*
X133108157Y-92137765D01*
X133157440Y-91890000D01*
X133157440Y-90290000D01*
X133108157Y-90042235D01*
X133042712Y-89944290D01*
X133622569Y-90524148D01*
X133772569Y-90886280D01*
X134063720Y-91177431D01*
X134444126Y-91335000D01*
X134855874Y-91335000D01*
X135236280Y-91177431D01*
X135255021Y-91158690D01*
X137650000Y-91158690D01*
X137650000Y-91864250D01*
X137808750Y-92023000D01*
X139173000Y-92023000D01*
X139173000Y-90808750D01*
X139427000Y-90808750D01*
X139427000Y-92023000D01*
X140791250Y-92023000D01*
X140950000Y-91864250D01*
X140950000Y-91158690D01*
X140853327Y-90925301D01*
X140674698Y-90746673D01*
X140441309Y-90650000D01*
X139585750Y-90650000D01*
X139427000Y-90808750D01*
X139173000Y-90808750D01*
X139014250Y-90650000D01*
X138158691Y-90650000D01*
X137925302Y-90746673D01*
X137746673Y-90925301D01*
X137650000Y-91158690D01*
X135255021Y-91158690D01*
X135527431Y-90886280D01*
X135685000Y-90505874D01*
X135685000Y-90094126D01*
X135527431Y-89713720D01*
X135236280Y-89422569D01*
X134874148Y-89272569D01*
X134037425Y-88435847D01*
X133988049Y-88361951D01*
X133837001Y-88261024D01*
X133988327Y-88109699D01*
X134085000Y-87876310D01*
X134085000Y-87135750D01*
X133926250Y-86977000D01*
X132877000Y-86977000D01*
X132877000Y-86997000D01*
X132623000Y-86997000D01*
X132623000Y-86977000D01*
X131573750Y-86977000D01*
X131415000Y-87135750D01*
X131415000Y-87876310D01*
X131511673Y-88109699D01*
X131516974Y-88115000D01*
X131516579Y-88115000D01*
X130097440Y-86695862D01*
X130097440Y-86199999D01*
X130029127Y-85856564D01*
X130007162Y-85823690D01*
X131415000Y-85823690D01*
X131415000Y-86564250D01*
X131573750Y-86723000D01*
X132623000Y-86723000D01*
X132623000Y-85473750D01*
X132877000Y-85473750D01*
X132877000Y-86723000D01*
X133926250Y-86723000D01*
X134085000Y-86564250D01*
X134085000Y-85823690D01*
X133988327Y-85590301D01*
X133809698Y-85411673D01*
X133576309Y-85315000D01*
X133035750Y-85315000D01*
X132877000Y-85473750D01*
X132623000Y-85473750D01*
X132464250Y-85315000D01*
X131923691Y-85315000D01*
X131690302Y-85411673D01*
X131511673Y-85590301D01*
X131415000Y-85823690D01*
X130007162Y-85823690D01*
X129834586Y-85565414D01*
X129543436Y-85370873D01*
X129200001Y-85302560D01*
X128299999Y-85302560D01*
X127956564Y-85370873D01*
X127665414Y-85565414D01*
X127470873Y-85856564D01*
X127449304Y-85965000D01*
X126940751Y-85965000D01*
X126929127Y-85906564D01*
X126734586Y-85615414D01*
X126443436Y-85420873D01*
X126100001Y-85352560D01*
X125199999Y-85352560D01*
X124856564Y-85420873D01*
X124565414Y-85615414D01*
X124370873Y-85906564D01*
X124302560Y-86249999D01*
X124302560Y-87550001D01*
X124370873Y-87893436D01*
X124485509Y-88065000D01*
X122814491Y-88065000D01*
X122929127Y-87893436D01*
X122997440Y-87550001D01*
X122997440Y-86249999D01*
X122929127Y-85906564D01*
X122734586Y-85615414D01*
X122443436Y-85420873D01*
X122100001Y-85352560D01*
X121199999Y-85352560D01*
X120856564Y-85420873D01*
X120565414Y-85615414D01*
X120370873Y-85906564D01*
X120302560Y-86249999D01*
X103710000Y-86249999D01*
X103710000Y-84360000D01*
X143840001Y-84360000D01*
X143840000Y-104890000D01*
X143840000Y-104890000D01*
G37*
X143840000Y-104890000D02*
X103710000Y-104890000D01*
X103710000Y-102144126D01*
X122315000Y-102144126D01*
X122315000Y-102555874D01*
X122472569Y-102936280D01*
X122763720Y-103227431D01*
X123144126Y-103385000D01*
X123555874Y-103385000D01*
X123918007Y-103235000D01*
X125259249Y-103235000D01*
X125270873Y-103293436D01*
X125465414Y-103584586D01*
X125756564Y-103779127D01*
X126099999Y-103847440D01*
X127000001Y-103847440D01*
X127343436Y-103779127D01*
X127634586Y-103584586D01*
X127829127Y-103293436D01*
X127897440Y-102950001D01*
X127897440Y-101649999D01*
X129202560Y-101649999D01*
X129202560Y-102950001D01*
X129270873Y-103293436D01*
X129465414Y-103584586D01*
X129756564Y-103779127D01*
X130099999Y-103847440D01*
X131000001Y-103847440D01*
X131343436Y-103779127D01*
X131634586Y-103584586D01*
X131829127Y-103293436D01*
X131850696Y-103185000D01*
X133312839Y-103185000D01*
X133400000Y-103202337D01*
X133487161Y-103185000D01*
X133487165Y-103185000D01*
X133745310Y-103133652D01*
X134038049Y-102938049D01*
X134087425Y-102864153D01*
X135164156Y-101787423D01*
X135238049Y-101738049D01*
X135288897Y-101661951D01*
X135433651Y-101445311D01*
X135433652Y-101445310D01*
X135485000Y-101187165D01*
X135485000Y-101187161D01*
X135492330Y-101150311D01*
X135635000Y-100805874D01*
X135635000Y-100394126D01*
X135477431Y-100013720D01*
X135186280Y-99722569D01*
X134805874Y-99565000D01*
X134627986Y-99565000D01*
X134735310Y-99543652D01*
X135028049Y-99348049D01*
X135077425Y-99274153D01*
X136124148Y-98227431D01*
X136486280Y-98077431D01*
X136777431Y-97786280D01*
X136935000Y-97405874D01*
X136935000Y-96994126D01*
X136777431Y-96613720D01*
X136486280Y-96322569D01*
X136105874Y-96165000D01*
X135694126Y-96165000D01*
X135313720Y-96322569D01*
X135022569Y-96613720D01*
X134872569Y-96975852D01*
X134023422Y-97825000D01*
X133140533Y-97825000D01*
X133108157Y-97662235D01*
X132967809Y-97452191D01*
X132757765Y-97311843D01*
X132510000Y-97262560D01*
X130910000Y-97262560D01*
X130662235Y-97311843D01*
X130452191Y-97452191D01*
X130435378Y-97477353D01*
X130329699Y-97371673D01*
X130096310Y-97275000D01*
X129455750Y-97275000D01*
X129297000Y-97433750D01*
X129297000Y-98583000D01*
X129317000Y-98583000D01*
X129317000Y-98837000D01*
X129297000Y-98837000D01*
X129297000Y-99986250D01*
X129455750Y-100145000D01*
X130096310Y-100145000D01*
X130329699Y-100048327D01*
X130435378Y-99942647D01*
X130452191Y-99967809D01*
X130662235Y-100108157D01*
X130910000Y-100157440D01*
X132510000Y-100157440D01*
X132757765Y-100108157D01*
X132967809Y-99967809D01*
X133108157Y-99757765D01*
X133140533Y-99595000D01*
X134302839Y-99595000D01*
X134315581Y-99597534D01*
X134013720Y-99722569D01*
X133722569Y-100013720D01*
X133565000Y-100394126D01*
X133565000Y-100805874D01*
X133587713Y-100860708D01*
X133033422Y-101415000D01*
X131850696Y-101415000D01*
X131829127Y-101306564D01*
X131634586Y-101015414D01*
X131343436Y-100820873D01*
X131000001Y-100752560D01*
X130099999Y-100752560D01*
X129756564Y-100820873D01*
X129465414Y-101015414D01*
X129270873Y-101306564D01*
X129202560Y-101649999D01*
X127897440Y-101649999D01*
X127829127Y-101306564D01*
X127634586Y-101015414D01*
X127515000Y-100935509D01*
X127515000Y-100140533D01*
X127677765Y-100108157D01*
X127887809Y-99967809D01*
X127904622Y-99942647D01*
X128010301Y-100048327D01*
X128243690Y-100145000D01*
X128884250Y-100145000D01*
X129043000Y-99986250D01*
X129043000Y-98837000D01*
X129023000Y-98837000D01*
X129023000Y-98583000D01*
X129043000Y-98583000D01*
X129043000Y-97433750D01*
X128884250Y-97275000D01*
X128243690Y-97275000D01*
X128010301Y-97371673D01*
X127904622Y-97477353D01*
X127887809Y-97452191D01*
X127677765Y-97311843D01*
X127430000Y-97262560D01*
X125830000Y-97262560D01*
X125582235Y-97311843D01*
X125372191Y-97452191D01*
X125360000Y-97470436D01*
X125347809Y-97452191D01*
X125137765Y-97311843D01*
X124890000Y-97262560D01*
X123290000Y-97262560D01*
X123042235Y-97311843D01*
X122832191Y-97452191D01*
X122691843Y-97662235D01*
X122642560Y-97910000D01*
X122642560Y-99510000D01*
X122691843Y-99757765D01*
X122832191Y-99967809D01*
X123042235Y-100108157D01*
X123290000Y-100157440D01*
X124890000Y-100157440D01*
X125137765Y-100108157D01*
X125347809Y-99967809D01*
X125360000Y-99949564D01*
X125372191Y-99967809D01*
X125582235Y-100108157D01*
X125745000Y-100140533D01*
X125745001Y-100828599D01*
X125465414Y-101015414D01*
X125270873Y-101306564D01*
X125239358Y-101465000D01*
X123918007Y-101465000D01*
X123555874Y-101315000D01*
X123144126Y-101315000D01*
X122763720Y-101472569D01*
X122472569Y-101763720D01*
X122315000Y-102144126D01*
X103710000Y-102144126D01*
X103710000Y-99770000D01*
X114431989Y-99770000D01*
X114562765Y-100427454D01*
X114935183Y-100984817D01*
X115492546Y-101357235D01*
X115984043Y-101455000D01*
X117815957Y-101455000D01*
X118307454Y-101357235D01*
X118864817Y-100984817D01*
X119237235Y-100427454D01*
X119368011Y-99770000D01*
X119237235Y-99112546D01*
X118864817Y-98555183D01*
X118307454Y-98182765D01*
X117815957Y-98085000D01*
X115984043Y-98085000D01*
X115492546Y-98182765D01*
X114935183Y-98555183D01*
X114562765Y-99112546D01*
X114431989Y-99770000D01*
X103710000Y-99770000D01*
X103710000Y-92435750D01*
X114465000Y-92435750D01*
X114465000Y-93326309D01*
X114561673Y-93559698D01*
X114740301Y-93738327D01*
X114973690Y-93835000D01*
X116614250Y-93835000D01*
X116773000Y-93676250D01*
X116773000Y-92277000D01*
X117027000Y-92277000D01*
X117027000Y-93676250D01*
X117185750Y-93835000D01*
X118826310Y-93835000D01*
X119059699Y-93738327D01*
X119238327Y-93559698D01*
X119335000Y-93326309D01*
X119335000Y-92435750D01*
X119176250Y-92277000D01*
X117027000Y-92277000D01*
X116773000Y-92277000D01*
X114623750Y-92277000D01*
X114465000Y-92435750D01*
X103710000Y-92435750D01*
X103710000Y-90973691D01*
X114465000Y-90973691D01*
X114465000Y-91864250D01*
X114623750Y-92023000D01*
X116773000Y-92023000D01*
X116773000Y-90623750D01*
X117027000Y-90623750D01*
X117027000Y-92023000D01*
X119176250Y-92023000D01*
X119335000Y-91864250D01*
X119335000Y-90973691D01*
X119238327Y-90740302D01*
X119059699Y-90561673D01*
X118826310Y-90465000D01*
X117185750Y-90465000D01*
X117027000Y-90623750D01*
X116773000Y-90623750D01*
X116614250Y-90465000D01*
X114973690Y-90465000D01*
X114740301Y-90561673D01*
X114561673Y-90740302D01*
X114465000Y-90973691D01*
X103710000Y-90973691D01*
X103710000Y-86249999D01*
X120302560Y-86249999D01*
X120302560Y-87550001D01*
X120370873Y-87893436D01*
X120565414Y-88184586D01*
X120765000Y-88317946D01*
X120765000Y-88362839D01*
X120747663Y-88450000D01*
X120765000Y-88537161D01*
X120765000Y-88537164D01*
X120816348Y-88795309D01*
X121011951Y-89088049D01*
X121085847Y-89137425D01*
X121462575Y-89514153D01*
X121511951Y-89588049D01*
X121804690Y-89783652D01*
X122062835Y-89835000D01*
X122062839Y-89835000D01*
X122150000Y-89852337D01*
X122237161Y-89835000D01*
X122830314Y-89835000D01*
X122691843Y-90042235D01*
X122642560Y-90290000D01*
X122642560Y-91890000D01*
X122691843Y-92137765D01*
X122832191Y-92347809D01*
X123042235Y-92488157D01*
X123290000Y-92537440D01*
X124890000Y-92537440D01*
X125137765Y-92488157D01*
X125347809Y-92347809D01*
X125360000Y-92329564D01*
X125372191Y-92347809D01*
X125582235Y-92488157D01*
X125800538Y-92531580D01*
X125942576Y-92744154D01*
X125942578Y-92744156D01*
X125991952Y-92818049D01*
X126065845Y-92867423D01*
X128452577Y-95254156D01*
X128501951Y-95328049D01*
X128575844Y-95377423D01*
X128575845Y-95377424D01*
X128590811Y-95387424D01*
X128794690Y-95523652D01*
X129052835Y-95575000D01*
X129052840Y-95575000D01*
X129139999Y-95592337D01*
X129227159Y-95575000D01*
X135361289Y-95575000D01*
X135363720Y-95577431D01*
X135744126Y-95735000D01*
X136155874Y-95735000D01*
X136536280Y-95577431D01*
X136827431Y-95286280D01*
X136985000Y-94905874D01*
X136985000Y-94690000D01*
X137620614Y-94690000D01*
X137737032Y-95275271D01*
X138068561Y-95771439D01*
X138350762Y-95960000D01*
X138068561Y-96148561D01*
X137737032Y-96644729D01*
X137620614Y-97230000D01*
X137737032Y-97815271D01*
X138068561Y-98311439D01*
X138564729Y-98642968D01*
X139002267Y-98730000D01*
X139597733Y-98730000D01*
X140035271Y-98642968D01*
X140531439Y-98311439D01*
X140862968Y-97815271D01*
X140979386Y-97230000D01*
X140862968Y-96644729D01*
X140531439Y-96148561D01*
X140249238Y-95960000D01*
X140531439Y-95771439D01*
X140862968Y-95275271D01*
X140979386Y-94690000D01*
X140862968Y-94104729D01*
X140533588Y-93611777D01*
X140674698Y-93553327D01*
X140853327Y-93374699D01*
X140950000Y-93141310D01*
X140950000Y-92435750D01*
X140791250Y-92277000D01*
X139427000Y-92277000D01*
X139427000Y-92297000D01*
X139173000Y-92297000D01*
X139173000Y-92277000D01*
X137808750Y-92277000D01*
X137650000Y-92435750D01*
X137650000Y-93141310D01*
X137746673Y-93374699D01*
X137925302Y-93553327D01*
X138066412Y-93611777D01*
X137737032Y-94104729D01*
X137620614Y-94690000D01*
X136985000Y-94690000D01*
X136985000Y-94494126D01*
X136827431Y-94113720D01*
X136536280Y-93822569D01*
X136155874Y-93665000D01*
X135744126Y-93665000D01*
X135406135Y-93805000D01*
X129506579Y-93805000D01*
X128206496Y-92504917D01*
X128370000Y-92537440D01*
X129970000Y-92537440D01*
X130217765Y-92488157D01*
X130427809Y-92347809D01*
X130440000Y-92329564D01*
X130452191Y-92347809D01*
X130662235Y-92488157D01*
X130910000Y-92537440D01*
X132510000Y-92537440D01*
X132757765Y-92488157D01*
X132967809Y-92347809D01*
X133108157Y-92137765D01*
X133157440Y-91890000D01*
X133157440Y-90290000D01*
X133108157Y-90042235D01*
X133042712Y-89944290D01*
X133622569Y-90524148D01*
X133772569Y-90886280D01*
X134063720Y-91177431D01*
X134444126Y-91335000D01*
X134855874Y-91335000D01*
X135236280Y-91177431D01*
X135255021Y-91158690D01*
X137650000Y-91158690D01*
X137650000Y-91864250D01*
X137808750Y-92023000D01*
X139173000Y-92023000D01*
X139173000Y-90808750D01*
X139427000Y-90808750D01*
X139427000Y-92023000D01*
X140791250Y-92023000D01*
X140950000Y-91864250D01*
X140950000Y-91158690D01*
X140853327Y-90925301D01*
X140674698Y-90746673D01*
X140441309Y-90650000D01*
X139585750Y-90650000D01*
X139427000Y-90808750D01*
X139173000Y-90808750D01*
X139014250Y-90650000D01*
X138158691Y-90650000D01*
X137925302Y-90746673D01*
X137746673Y-90925301D01*
X137650000Y-91158690D01*
X135255021Y-91158690D01*
X135527431Y-90886280D01*
X135685000Y-90505874D01*
X135685000Y-90094126D01*
X135527431Y-89713720D01*
X135236280Y-89422569D01*
X134874148Y-89272569D01*
X134037425Y-88435847D01*
X133988049Y-88361951D01*
X133837001Y-88261024D01*
X133988327Y-88109699D01*
X134085000Y-87876310D01*
X134085000Y-87135750D01*
X133926250Y-86977000D01*
X132877000Y-86977000D01*
X132877000Y-86997000D01*
X132623000Y-86997000D01*
X132623000Y-86977000D01*
X131573750Y-86977000D01*
X131415000Y-87135750D01*
X131415000Y-87876310D01*
X131511673Y-88109699D01*
X131516974Y-88115000D01*
X131516579Y-88115000D01*
X130097440Y-86695862D01*
X130097440Y-86199999D01*
X130029127Y-85856564D01*
X130007162Y-85823690D01*
X131415000Y-85823690D01*
X131415000Y-86564250D01*
X131573750Y-86723000D01*
X132623000Y-86723000D01*
X132623000Y-85473750D01*
X132877000Y-85473750D01*
X132877000Y-86723000D01*
X133926250Y-86723000D01*
X134085000Y-86564250D01*
X134085000Y-85823690D01*
X133988327Y-85590301D01*
X133809698Y-85411673D01*
X133576309Y-85315000D01*
X133035750Y-85315000D01*
X132877000Y-85473750D01*
X132623000Y-85473750D01*
X132464250Y-85315000D01*
X131923691Y-85315000D01*
X131690302Y-85411673D01*
X131511673Y-85590301D01*
X131415000Y-85823690D01*
X130007162Y-85823690D01*
X129834586Y-85565414D01*
X129543436Y-85370873D01*
X129200001Y-85302560D01*
X128299999Y-85302560D01*
X127956564Y-85370873D01*
X127665414Y-85565414D01*
X127470873Y-85856564D01*
X127449304Y-85965000D01*
X126940751Y-85965000D01*
X126929127Y-85906564D01*
X126734586Y-85615414D01*
X126443436Y-85420873D01*
X126100001Y-85352560D01*
X125199999Y-85352560D01*
X124856564Y-85420873D01*
X124565414Y-85615414D01*
X124370873Y-85906564D01*
X124302560Y-86249999D01*
X124302560Y-87550001D01*
X124370873Y-87893436D01*
X124485509Y-88065000D01*
X122814491Y-88065000D01*
X122929127Y-87893436D01*
X122997440Y-87550001D01*
X122997440Y-86249999D01*
X122929127Y-85906564D01*
X122734586Y-85615414D01*
X122443436Y-85420873D01*
X122100001Y-85352560D01*
X121199999Y-85352560D01*
X120856564Y-85420873D01*
X120565414Y-85615414D01*
X120370873Y-85906564D01*
X120302560Y-86249999D01*
X103710000Y-86249999D01*
X103710000Y-84360000D01*
X143840001Y-84360000D01*
X143840000Y-104890000D01*
M02*
