%TF.GenerationSoftware,KiCad,Pcbnew,(5.0.0)*%
%TF.CreationDate,2018-10-04T12:31:17-06:00*%
%TF.ProjectId,Ejemplo,456A656D706C6F2E6B696361645F7063,1.0*%
%TF.SameCoordinates,Original*%
%TF.FileFunction,Paste,Top*%
%TF.FilePolarity,Positive*%
%FSLAX46Y46*%
G04 Gerber Fmt 4.6, Leading zero omitted, Abs format (unit mm)*
G04 Created by KiCad (PCBNEW (5.0.0)) date 10/04/18 12:31:17*
%MOMM*%
%LPD*%
G01*
G04 APERTURE LIST*
%ADD10C,0.100000*%
%ADD11C,1.400000*%
%ADD12R,1.600000X1.600000*%
G04 APERTURE END LIST*
D10*
G36*
X131024505Y-101401204D02*
X131048773Y-101404804D01*
X131072572Y-101410765D01*
X131095671Y-101419030D01*
X131117850Y-101429520D01*
X131138893Y-101442132D01*
X131158599Y-101456747D01*
X131176777Y-101473223D01*
X131193253Y-101491401D01*
X131207868Y-101511107D01*
X131220480Y-101532150D01*
X131230970Y-101554329D01*
X131239235Y-101577428D01*
X131245196Y-101601227D01*
X131248796Y-101625495D01*
X131250000Y-101649999D01*
X131250000Y-102950001D01*
X131248796Y-102974505D01*
X131245196Y-102998773D01*
X131239235Y-103022572D01*
X131230970Y-103045671D01*
X131220480Y-103067850D01*
X131207868Y-103088893D01*
X131193253Y-103108599D01*
X131176777Y-103126777D01*
X131158599Y-103143253D01*
X131138893Y-103157868D01*
X131117850Y-103170480D01*
X131095671Y-103180970D01*
X131072572Y-103189235D01*
X131048773Y-103195196D01*
X131024505Y-103198796D01*
X131000001Y-103200000D01*
X130099999Y-103200000D01*
X130075495Y-103198796D01*
X130051227Y-103195196D01*
X130027428Y-103189235D01*
X130004329Y-103180970D01*
X129982150Y-103170480D01*
X129961107Y-103157868D01*
X129941401Y-103143253D01*
X129923223Y-103126777D01*
X129906747Y-103108599D01*
X129892132Y-103088893D01*
X129879520Y-103067850D01*
X129869030Y-103045671D01*
X129860765Y-103022572D01*
X129854804Y-102998773D01*
X129851204Y-102974505D01*
X129850000Y-102950001D01*
X129850000Y-101649999D01*
X129851204Y-101625495D01*
X129854804Y-101601227D01*
X129860765Y-101577428D01*
X129869030Y-101554329D01*
X129879520Y-101532150D01*
X129892132Y-101511107D01*
X129906747Y-101491401D01*
X129923223Y-101473223D01*
X129941401Y-101456747D01*
X129961107Y-101442132D01*
X129982150Y-101429520D01*
X130004329Y-101419030D01*
X130027428Y-101410765D01*
X130051227Y-101404804D01*
X130075495Y-101401204D01*
X130099999Y-101400000D01*
X131000001Y-101400000D01*
X131024505Y-101401204D01*
X131024505Y-101401204D01*
G37*
D11*
X130550000Y-102300000D03*
D10*
G36*
X127024505Y-101401204D02*
X127048773Y-101404804D01*
X127072572Y-101410765D01*
X127095671Y-101419030D01*
X127117850Y-101429520D01*
X127138893Y-101442132D01*
X127158599Y-101456747D01*
X127176777Y-101473223D01*
X127193253Y-101491401D01*
X127207868Y-101511107D01*
X127220480Y-101532150D01*
X127230970Y-101554329D01*
X127239235Y-101577428D01*
X127245196Y-101601227D01*
X127248796Y-101625495D01*
X127250000Y-101649999D01*
X127250000Y-102950001D01*
X127248796Y-102974505D01*
X127245196Y-102998773D01*
X127239235Y-103022572D01*
X127230970Y-103045671D01*
X127220480Y-103067850D01*
X127207868Y-103088893D01*
X127193253Y-103108599D01*
X127176777Y-103126777D01*
X127158599Y-103143253D01*
X127138893Y-103157868D01*
X127117850Y-103170480D01*
X127095671Y-103180970D01*
X127072572Y-103189235D01*
X127048773Y-103195196D01*
X127024505Y-103198796D01*
X127000001Y-103200000D01*
X126099999Y-103200000D01*
X126075495Y-103198796D01*
X126051227Y-103195196D01*
X126027428Y-103189235D01*
X126004329Y-103180970D01*
X125982150Y-103170480D01*
X125961107Y-103157868D01*
X125941401Y-103143253D01*
X125923223Y-103126777D01*
X125906747Y-103108599D01*
X125892132Y-103088893D01*
X125879520Y-103067850D01*
X125869030Y-103045671D01*
X125860765Y-103022572D01*
X125854804Y-102998773D01*
X125851204Y-102974505D01*
X125850000Y-102950001D01*
X125850000Y-101649999D01*
X125851204Y-101625495D01*
X125854804Y-101601227D01*
X125860765Y-101577428D01*
X125869030Y-101554329D01*
X125879520Y-101532150D01*
X125892132Y-101511107D01*
X125906747Y-101491401D01*
X125923223Y-101473223D01*
X125941401Y-101456747D01*
X125961107Y-101442132D01*
X125982150Y-101429520D01*
X126004329Y-101419030D01*
X126027428Y-101410765D01*
X126051227Y-101404804D01*
X126075495Y-101401204D01*
X126099999Y-101400000D01*
X127000001Y-101400000D01*
X127024505Y-101401204D01*
X127024505Y-101401204D01*
G37*
D11*
X126550000Y-102300000D03*
D10*
G36*
X122124505Y-86001204D02*
X122148773Y-86004804D01*
X122172572Y-86010765D01*
X122195671Y-86019030D01*
X122217850Y-86029520D01*
X122238893Y-86042132D01*
X122258599Y-86056747D01*
X122276777Y-86073223D01*
X122293253Y-86091401D01*
X122307868Y-86111107D01*
X122320480Y-86132150D01*
X122330970Y-86154329D01*
X122339235Y-86177428D01*
X122345196Y-86201227D01*
X122348796Y-86225495D01*
X122350000Y-86249999D01*
X122350000Y-87550001D01*
X122348796Y-87574505D01*
X122345196Y-87598773D01*
X122339235Y-87622572D01*
X122330970Y-87645671D01*
X122320480Y-87667850D01*
X122307868Y-87688893D01*
X122293253Y-87708599D01*
X122276777Y-87726777D01*
X122258599Y-87743253D01*
X122238893Y-87757868D01*
X122217850Y-87770480D01*
X122195671Y-87780970D01*
X122172572Y-87789235D01*
X122148773Y-87795196D01*
X122124505Y-87798796D01*
X122100001Y-87800000D01*
X121199999Y-87800000D01*
X121175495Y-87798796D01*
X121151227Y-87795196D01*
X121127428Y-87789235D01*
X121104329Y-87780970D01*
X121082150Y-87770480D01*
X121061107Y-87757868D01*
X121041401Y-87743253D01*
X121023223Y-87726777D01*
X121006747Y-87708599D01*
X120992132Y-87688893D01*
X120979520Y-87667850D01*
X120969030Y-87645671D01*
X120960765Y-87622572D01*
X120954804Y-87598773D01*
X120951204Y-87574505D01*
X120950000Y-87550001D01*
X120950000Y-86249999D01*
X120951204Y-86225495D01*
X120954804Y-86201227D01*
X120960765Y-86177428D01*
X120969030Y-86154329D01*
X120979520Y-86132150D01*
X120992132Y-86111107D01*
X121006747Y-86091401D01*
X121023223Y-86073223D01*
X121041401Y-86056747D01*
X121061107Y-86042132D01*
X121082150Y-86029520D01*
X121104329Y-86019030D01*
X121127428Y-86010765D01*
X121151227Y-86004804D01*
X121175495Y-86001204D01*
X121199999Y-86000000D01*
X122100001Y-86000000D01*
X122124505Y-86001204D01*
X122124505Y-86001204D01*
G37*
D11*
X121650000Y-86900000D03*
D10*
G36*
X126124505Y-86001204D02*
X126148773Y-86004804D01*
X126172572Y-86010765D01*
X126195671Y-86019030D01*
X126217850Y-86029520D01*
X126238893Y-86042132D01*
X126258599Y-86056747D01*
X126276777Y-86073223D01*
X126293253Y-86091401D01*
X126307868Y-86111107D01*
X126320480Y-86132150D01*
X126330970Y-86154329D01*
X126339235Y-86177428D01*
X126345196Y-86201227D01*
X126348796Y-86225495D01*
X126350000Y-86249999D01*
X126350000Y-87550001D01*
X126348796Y-87574505D01*
X126345196Y-87598773D01*
X126339235Y-87622572D01*
X126330970Y-87645671D01*
X126320480Y-87667850D01*
X126307868Y-87688893D01*
X126293253Y-87708599D01*
X126276777Y-87726777D01*
X126258599Y-87743253D01*
X126238893Y-87757868D01*
X126217850Y-87770480D01*
X126195671Y-87780970D01*
X126172572Y-87789235D01*
X126148773Y-87795196D01*
X126124505Y-87798796D01*
X126100001Y-87800000D01*
X125199999Y-87800000D01*
X125175495Y-87798796D01*
X125151227Y-87795196D01*
X125127428Y-87789235D01*
X125104329Y-87780970D01*
X125082150Y-87770480D01*
X125061107Y-87757868D01*
X125041401Y-87743253D01*
X125023223Y-87726777D01*
X125006747Y-87708599D01*
X124992132Y-87688893D01*
X124979520Y-87667850D01*
X124969030Y-87645671D01*
X124960765Y-87622572D01*
X124954804Y-87598773D01*
X124951204Y-87574505D01*
X124950000Y-87550001D01*
X124950000Y-86249999D01*
X124951204Y-86225495D01*
X124954804Y-86201227D01*
X124960765Y-86177428D01*
X124969030Y-86154329D01*
X124979520Y-86132150D01*
X124992132Y-86111107D01*
X125006747Y-86091401D01*
X125023223Y-86073223D01*
X125041401Y-86056747D01*
X125061107Y-86042132D01*
X125082150Y-86029520D01*
X125104329Y-86019030D01*
X125127428Y-86010765D01*
X125151227Y-86004804D01*
X125175495Y-86001204D01*
X125199999Y-86000000D01*
X126100001Y-86000000D01*
X126124505Y-86001204D01*
X126124505Y-86001204D01*
G37*
D11*
X125650000Y-86900000D03*
D10*
G36*
X133224505Y-85951204D02*
X133248773Y-85954804D01*
X133272572Y-85960765D01*
X133295671Y-85969030D01*
X133317850Y-85979520D01*
X133338893Y-85992132D01*
X133358599Y-86006747D01*
X133376777Y-86023223D01*
X133393253Y-86041401D01*
X133407868Y-86061107D01*
X133420480Y-86082150D01*
X133430970Y-86104329D01*
X133439235Y-86127428D01*
X133445196Y-86151227D01*
X133448796Y-86175495D01*
X133450000Y-86199999D01*
X133450000Y-87500001D01*
X133448796Y-87524505D01*
X133445196Y-87548773D01*
X133439235Y-87572572D01*
X133430970Y-87595671D01*
X133420480Y-87617850D01*
X133407868Y-87638893D01*
X133393253Y-87658599D01*
X133376777Y-87676777D01*
X133358599Y-87693253D01*
X133338893Y-87707868D01*
X133317850Y-87720480D01*
X133295671Y-87730970D01*
X133272572Y-87739235D01*
X133248773Y-87745196D01*
X133224505Y-87748796D01*
X133200001Y-87750000D01*
X132299999Y-87750000D01*
X132275495Y-87748796D01*
X132251227Y-87745196D01*
X132227428Y-87739235D01*
X132204329Y-87730970D01*
X132182150Y-87720480D01*
X132161107Y-87707868D01*
X132141401Y-87693253D01*
X132123223Y-87676777D01*
X132106747Y-87658599D01*
X132092132Y-87638893D01*
X132079520Y-87617850D01*
X132069030Y-87595671D01*
X132060765Y-87572572D01*
X132054804Y-87548773D01*
X132051204Y-87524505D01*
X132050000Y-87500001D01*
X132050000Y-86199999D01*
X132051204Y-86175495D01*
X132054804Y-86151227D01*
X132060765Y-86127428D01*
X132069030Y-86104329D01*
X132079520Y-86082150D01*
X132092132Y-86061107D01*
X132106747Y-86041401D01*
X132123223Y-86023223D01*
X132141401Y-86006747D01*
X132161107Y-85992132D01*
X132182150Y-85979520D01*
X132204329Y-85969030D01*
X132227428Y-85960765D01*
X132251227Y-85954804D01*
X132275495Y-85951204D01*
X132299999Y-85950000D01*
X133200001Y-85950000D01*
X133224505Y-85951204D01*
X133224505Y-85951204D01*
G37*
D11*
X132750000Y-86850000D03*
D10*
G36*
X129224505Y-85951204D02*
X129248773Y-85954804D01*
X129272572Y-85960765D01*
X129295671Y-85969030D01*
X129317850Y-85979520D01*
X129338893Y-85992132D01*
X129358599Y-86006747D01*
X129376777Y-86023223D01*
X129393253Y-86041401D01*
X129407868Y-86061107D01*
X129420480Y-86082150D01*
X129430970Y-86104329D01*
X129439235Y-86127428D01*
X129445196Y-86151227D01*
X129448796Y-86175495D01*
X129450000Y-86199999D01*
X129450000Y-87500001D01*
X129448796Y-87524505D01*
X129445196Y-87548773D01*
X129439235Y-87572572D01*
X129430970Y-87595671D01*
X129420480Y-87617850D01*
X129407868Y-87638893D01*
X129393253Y-87658599D01*
X129376777Y-87676777D01*
X129358599Y-87693253D01*
X129338893Y-87707868D01*
X129317850Y-87720480D01*
X129295671Y-87730970D01*
X129272572Y-87739235D01*
X129248773Y-87745196D01*
X129224505Y-87748796D01*
X129200001Y-87750000D01*
X128299999Y-87750000D01*
X128275495Y-87748796D01*
X128251227Y-87745196D01*
X128227428Y-87739235D01*
X128204329Y-87730970D01*
X128182150Y-87720480D01*
X128161107Y-87707868D01*
X128141401Y-87693253D01*
X128123223Y-87676777D01*
X128106747Y-87658599D01*
X128092132Y-87638893D01*
X128079520Y-87617850D01*
X128069030Y-87595671D01*
X128060765Y-87572572D01*
X128054804Y-87548773D01*
X128051204Y-87524505D01*
X128050000Y-87500001D01*
X128050000Y-86199999D01*
X128051204Y-86175495D01*
X128054804Y-86151227D01*
X128060765Y-86127428D01*
X128069030Y-86104329D01*
X128079520Y-86082150D01*
X128092132Y-86061107D01*
X128106747Y-86041401D01*
X128123223Y-86023223D01*
X128141401Y-86006747D01*
X128161107Y-85992132D01*
X128182150Y-85979520D01*
X128204329Y-85969030D01*
X128227428Y-85960765D01*
X128251227Y-85954804D01*
X128275495Y-85951204D01*
X128299999Y-85950000D01*
X129200001Y-85950000D01*
X129224505Y-85951204D01*
X129224505Y-85951204D01*
G37*
D11*
X128750000Y-86850000D03*
D12*
X124090000Y-98710000D03*
X131710000Y-91090000D03*
X126630000Y-98710000D03*
X129170000Y-91090000D03*
X129170000Y-98710000D03*
X126630000Y-91090000D03*
X131710000Y-98710000D03*
X124090000Y-91090000D03*
M02*
