%TF.GenerationSoftware,KiCad,Pcbnew,(5.0.0)*%
%TF.CreationDate,2018-10-04T12:31:17-06:00*%
%TF.ProjectId,Ejemplo,456A656D706C6F2E6B696361645F7063,1.0*%
%TF.SameCoordinates,Original*%
%TF.FileFunction,Soldermask,Top*%
%TF.FilePolarity,Negative*%
%FSLAX46Y46*%
G04 Gerber Fmt 4.6, Leading zero omitted, Abs format (unit mm)*
G04 Created by KiCad (PCBNEW (5.0.0)) date 10/04/18 12:31:17*
%MOMM*%
%LPD*%
G01*
G04 APERTURE LIST*
%ADD10R,4.000000X2.500000*%
%ADD11O,4.000000X2.500000*%
%ADD12R,2.430000X2.130000*%
%ADD13O,2.430000X2.130000*%
%ADD14C,0.100000*%
%ADD15C,1.800000*%
%ADD16R,2.000000X2.000000*%
G04 APERTURE END LIST*
D10*
X116900000Y-92150000D03*
D11*
X116900000Y-99770000D03*
D12*
X139300000Y-92150000D03*
D13*
X139300000Y-94690000D03*
X139300000Y-97230000D03*
D14*
G36*
X131160078Y-101201548D02*
X131191280Y-101206176D01*
X131221878Y-101213841D01*
X131251578Y-101224467D01*
X131280093Y-101237954D01*
X131307148Y-101254170D01*
X131332484Y-101272961D01*
X131355856Y-101294144D01*
X131377039Y-101317516D01*
X131395830Y-101342852D01*
X131412046Y-101369907D01*
X131425533Y-101398422D01*
X131436159Y-101428122D01*
X131443824Y-101458720D01*
X131448452Y-101489922D01*
X131450000Y-101521427D01*
X131450000Y-103078573D01*
X131448452Y-103110078D01*
X131443824Y-103141280D01*
X131436159Y-103171878D01*
X131425533Y-103201578D01*
X131412046Y-103230093D01*
X131395830Y-103257148D01*
X131377039Y-103282484D01*
X131355856Y-103305856D01*
X131332484Y-103327039D01*
X131307148Y-103345830D01*
X131280093Y-103362046D01*
X131251578Y-103375533D01*
X131221878Y-103386159D01*
X131191280Y-103393824D01*
X131160078Y-103398452D01*
X131128573Y-103400000D01*
X129971427Y-103400000D01*
X129939922Y-103398452D01*
X129908720Y-103393824D01*
X129878122Y-103386159D01*
X129848422Y-103375533D01*
X129819907Y-103362046D01*
X129792852Y-103345830D01*
X129767516Y-103327039D01*
X129744144Y-103305856D01*
X129722961Y-103282484D01*
X129704170Y-103257148D01*
X129687954Y-103230093D01*
X129674467Y-103201578D01*
X129663841Y-103171878D01*
X129656176Y-103141280D01*
X129651548Y-103110078D01*
X129650000Y-103078573D01*
X129650000Y-101521427D01*
X129651548Y-101489922D01*
X129656176Y-101458720D01*
X129663841Y-101428122D01*
X129674467Y-101398422D01*
X129687954Y-101369907D01*
X129704170Y-101342852D01*
X129722961Y-101317516D01*
X129744144Y-101294144D01*
X129767516Y-101272961D01*
X129792852Y-101254170D01*
X129819907Y-101237954D01*
X129848422Y-101224467D01*
X129878122Y-101213841D01*
X129908720Y-101206176D01*
X129939922Y-101201548D01*
X129971427Y-101200000D01*
X131128573Y-101200000D01*
X131160078Y-101201548D01*
X131160078Y-101201548D01*
G37*
D15*
X130550000Y-102300000D03*
D14*
G36*
X127160078Y-101201548D02*
X127191280Y-101206176D01*
X127221878Y-101213841D01*
X127251578Y-101224467D01*
X127280093Y-101237954D01*
X127307148Y-101254170D01*
X127332484Y-101272961D01*
X127355856Y-101294144D01*
X127377039Y-101317516D01*
X127395830Y-101342852D01*
X127412046Y-101369907D01*
X127425533Y-101398422D01*
X127436159Y-101428122D01*
X127443824Y-101458720D01*
X127448452Y-101489922D01*
X127450000Y-101521427D01*
X127450000Y-103078573D01*
X127448452Y-103110078D01*
X127443824Y-103141280D01*
X127436159Y-103171878D01*
X127425533Y-103201578D01*
X127412046Y-103230093D01*
X127395830Y-103257148D01*
X127377039Y-103282484D01*
X127355856Y-103305856D01*
X127332484Y-103327039D01*
X127307148Y-103345830D01*
X127280093Y-103362046D01*
X127251578Y-103375533D01*
X127221878Y-103386159D01*
X127191280Y-103393824D01*
X127160078Y-103398452D01*
X127128573Y-103400000D01*
X125971427Y-103400000D01*
X125939922Y-103398452D01*
X125908720Y-103393824D01*
X125878122Y-103386159D01*
X125848422Y-103375533D01*
X125819907Y-103362046D01*
X125792852Y-103345830D01*
X125767516Y-103327039D01*
X125744144Y-103305856D01*
X125722961Y-103282484D01*
X125704170Y-103257148D01*
X125687954Y-103230093D01*
X125674467Y-103201578D01*
X125663841Y-103171878D01*
X125656176Y-103141280D01*
X125651548Y-103110078D01*
X125650000Y-103078573D01*
X125650000Y-101521427D01*
X125651548Y-101489922D01*
X125656176Y-101458720D01*
X125663841Y-101428122D01*
X125674467Y-101398422D01*
X125687954Y-101369907D01*
X125704170Y-101342852D01*
X125722961Y-101317516D01*
X125744144Y-101294144D01*
X125767516Y-101272961D01*
X125792852Y-101254170D01*
X125819907Y-101237954D01*
X125848422Y-101224467D01*
X125878122Y-101213841D01*
X125908720Y-101206176D01*
X125939922Y-101201548D01*
X125971427Y-101200000D01*
X127128573Y-101200000D01*
X127160078Y-101201548D01*
X127160078Y-101201548D01*
G37*
D15*
X126550000Y-102300000D03*
D14*
G36*
X122260078Y-85801548D02*
X122291280Y-85806176D01*
X122321878Y-85813841D01*
X122351578Y-85824467D01*
X122380093Y-85837954D01*
X122407148Y-85854170D01*
X122432484Y-85872961D01*
X122455856Y-85894144D01*
X122477039Y-85917516D01*
X122495830Y-85942852D01*
X122512046Y-85969907D01*
X122525533Y-85998422D01*
X122536159Y-86028122D01*
X122543824Y-86058720D01*
X122548452Y-86089922D01*
X122550000Y-86121427D01*
X122550000Y-87678573D01*
X122548452Y-87710078D01*
X122543824Y-87741280D01*
X122536159Y-87771878D01*
X122525533Y-87801578D01*
X122512046Y-87830093D01*
X122495830Y-87857148D01*
X122477039Y-87882484D01*
X122455856Y-87905856D01*
X122432484Y-87927039D01*
X122407148Y-87945830D01*
X122380093Y-87962046D01*
X122351578Y-87975533D01*
X122321878Y-87986159D01*
X122291280Y-87993824D01*
X122260078Y-87998452D01*
X122228573Y-88000000D01*
X121071427Y-88000000D01*
X121039922Y-87998452D01*
X121008720Y-87993824D01*
X120978122Y-87986159D01*
X120948422Y-87975533D01*
X120919907Y-87962046D01*
X120892852Y-87945830D01*
X120867516Y-87927039D01*
X120844144Y-87905856D01*
X120822961Y-87882484D01*
X120804170Y-87857148D01*
X120787954Y-87830093D01*
X120774467Y-87801578D01*
X120763841Y-87771878D01*
X120756176Y-87741280D01*
X120751548Y-87710078D01*
X120750000Y-87678573D01*
X120750000Y-86121427D01*
X120751548Y-86089922D01*
X120756176Y-86058720D01*
X120763841Y-86028122D01*
X120774467Y-85998422D01*
X120787954Y-85969907D01*
X120804170Y-85942852D01*
X120822961Y-85917516D01*
X120844144Y-85894144D01*
X120867516Y-85872961D01*
X120892852Y-85854170D01*
X120919907Y-85837954D01*
X120948422Y-85824467D01*
X120978122Y-85813841D01*
X121008720Y-85806176D01*
X121039922Y-85801548D01*
X121071427Y-85800000D01*
X122228573Y-85800000D01*
X122260078Y-85801548D01*
X122260078Y-85801548D01*
G37*
D15*
X121650000Y-86900000D03*
D14*
G36*
X126260078Y-85801548D02*
X126291280Y-85806176D01*
X126321878Y-85813841D01*
X126351578Y-85824467D01*
X126380093Y-85837954D01*
X126407148Y-85854170D01*
X126432484Y-85872961D01*
X126455856Y-85894144D01*
X126477039Y-85917516D01*
X126495830Y-85942852D01*
X126512046Y-85969907D01*
X126525533Y-85998422D01*
X126536159Y-86028122D01*
X126543824Y-86058720D01*
X126548452Y-86089922D01*
X126550000Y-86121427D01*
X126550000Y-87678573D01*
X126548452Y-87710078D01*
X126543824Y-87741280D01*
X126536159Y-87771878D01*
X126525533Y-87801578D01*
X126512046Y-87830093D01*
X126495830Y-87857148D01*
X126477039Y-87882484D01*
X126455856Y-87905856D01*
X126432484Y-87927039D01*
X126407148Y-87945830D01*
X126380093Y-87962046D01*
X126351578Y-87975533D01*
X126321878Y-87986159D01*
X126291280Y-87993824D01*
X126260078Y-87998452D01*
X126228573Y-88000000D01*
X125071427Y-88000000D01*
X125039922Y-87998452D01*
X125008720Y-87993824D01*
X124978122Y-87986159D01*
X124948422Y-87975533D01*
X124919907Y-87962046D01*
X124892852Y-87945830D01*
X124867516Y-87927039D01*
X124844144Y-87905856D01*
X124822961Y-87882484D01*
X124804170Y-87857148D01*
X124787954Y-87830093D01*
X124774467Y-87801578D01*
X124763841Y-87771878D01*
X124756176Y-87741280D01*
X124751548Y-87710078D01*
X124750000Y-87678573D01*
X124750000Y-86121427D01*
X124751548Y-86089922D01*
X124756176Y-86058720D01*
X124763841Y-86028122D01*
X124774467Y-85998422D01*
X124787954Y-85969907D01*
X124804170Y-85942852D01*
X124822961Y-85917516D01*
X124844144Y-85894144D01*
X124867516Y-85872961D01*
X124892852Y-85854170D01*
X124919907Y-85837954D01*
X124948422Y-85824467D01*
X124978122Y-85813841D01*
X125008720Y-85806176D01*
X125039922Y-85801548D01*
X125071427Y-85800000D01*
X126228573Y-85800000D01*
X126260078Y-85801548D01*
X126260078Y-85801548D01*
G37*
D15*
X125650000Y-86900000D03*
D14*
G36*
X133360078Y-85751548D02*
X133391280Y-85756176D01*
X133421878Y-85763841D01*
X133451578Y-85774467D01*
X133480093Y-85787954D01*
X133507148Y-85804170D01*
X133532484Y-85822961D01*
X133555856Y-85844144D01*
X133577039Y-85867516D01*
X133595830Y-85892852D01*
X133612046Y-85919907D01*
X133625533Y-85948422D01*
X133636159Y-85978122D01*
X133643824Y-86008720D01*
X133648452Y-86039922D01*
X133650000Y-86071427D01*
X133650000Y-87628573D01*
X133648452Y-87660078D01*
X133643824Y-87691280D01*
X133636159Y-87721878D01*
X133625533Y-87751578D01*
X133612046Y-87780093D01*
X133595830Y-87807148D01*
X133577039Y-87832484D01*
X133555856Y-87855856D01*
X133532484Y-87877039D01*
X133507148Y-87895830D01*
X133480093Y-87912046D01*
X133451578Y-87925533D01*
X133421878Y-87936159D01*
X133391280Y-87943824D01*
X133360078Y-87948452D01*
X133328573Y-87950000D01*
X132171427Y-87950000D01*
X132139922Y-87948452D01*
X132108720Y-87943824D01*
X132078122Y-87936159D01*
X132048422Y-87925533D01*
X132019907Y-87912046D01*
X131992852Y-87895830D01*
X131967516Y-87877039D01*
X131944144Y-87855856D01*
X131922961Y-87832484D01*
X131904170Y-87807148D01*
X131887954Y-87780093D01*
X131874467Y-87751578D01*
X131863841Y-87721878D01*
X131856176Y-87691280D01*
X131851548Y-87660078D01*
X131850000Y-87628573D01*
X131850000Y-86071427D01*
X131851548Y-86039922D01*
X131856176Y-86008720D01*
X131863841Y-85978122D01*
X131874467Y-85948422D01*
X131887954Y-85919907D01*
X131904170Y-85892852D01*
X131922961Y-85867516D01*
X131944144Y-85844144D01*
X131967516Y-85822961D01*
X131992852Y-85804170D01*
X132019907Y-85787954D01*
X132048422Y-85774467D01*
X132078122Y-85763841D01*
X132108720Y-85756176D01*
X132139922Y-85751548D01*
X132171427Y-85750000D01*
X133328573Y-85750000D01*
X133360078Y-85751548D01*
X133360078Y-85751548D01*
G37*
D15*
X132750000Y-86850000D03*
D14*
G36*
X129360078Y-85751548D02*
X129391280Y-85756176D01*
X129421878Y-85763841D01*
X129451578Y-85774467D01*
X129480093Y-85787954D01*
X129507148Y-85804170D01*
X129532484Y-85822961D01*
X129555856Y-85844144D01*
X129577039Y-85867516D01*
X129595830Y-85892852D01*
X129612046Y-85919907D01*
X129625533Y-85948422D01*
X129636159Y-85978122D01*
X129643824Y-86008720D01*
X129648452Y-86039922D01*
X129650000Y-86071427D01*
X129650000Y-87628573D01*
X129648452Y-87660078D01*
X129643824Y-87691280D01*
X129636159Y-87721878D01*
X129625533Y-87751578D01*
X129612046Y-87780093D01*
X129595830Y-87807148D01*
X129577039Y-87832484D01*
X129555856Y-87855856D01*
X129532484Y-87877039D01*
X129507148Y-87895830D01*
X129480093Y-87912046D01*
X129451578Y-87925533D01*
X129421878Y-87936159D01*
X129391280Y-87943824D01*
X129360078Y-87948452D01*
X129328573Y-87950000D01*
X128171427Y-87950000D01*
X128139922Y-87948452D01*
X128108720Y-87943824D01*
X128078122Y-87936159D01*
X128048422Y-87925533D01*
X128019907Y-87912046D01*
X127992852Y-87895830D01*
X127967516Y-87877039D01*
X127944144Y-87855856D01*
X127922961Y-87832484D01*
X127904170Y-87807148D01*
X127887954Y-87780093D01*
X127874467Y-87751578D01*
X127863841Y-87721878D01*
X127856176Y-87691280D01*
X127851548Y-87660078D01*
X127850000Y-87628573D01*
X127850000Y-86071427D01*
X127851548Y-86039922D01*
X127856176Y-86008720D01*
X127863841Y-85978122D01*
X127874467Y-85948422D01*
X127887954Y-85919907D01*
X127904170Y-85892852D01*
X127922961Y-85867516D01*
X127944144Y-85844144D01*
X127967516Y-85822961D01*
X127992852Y-85804170D01*
X128019907Y-85787954D01*
X128048422Y-85774467D01*
X128078122Y-85763841D01*
X128108720Y-85756176D01*
X128139922Y-85751548D01*
X128171427Y-85750000D01*
X129328573Y-85750000D01*
X129360078Y-85751548D01*
X129360078Y-85751548D01*
G37*
D15*
X128750000Y-86850000D03*
D16*
X124090000Y-98710000D03*
X131710000Y-91090000D03*
X126630000Y-98710000D03*
X129170000Y-91090000D03*
X129170000Y-98710000D03*
X126630000Y-91090000D03*
X131710000Y-98710000D03*
X124090000Y-91090000D03*
M02*
