M48
;DRILL file {KiCad (5.0.0)} date 10/04/18 13:43:55
;FORMAT={-:-/ absolute / metric / decimal}
FMAT,2
METRIC,TZ
T1C0.400
T2C0.700
T3C0.762
T4C0.800
T5C0.900
T6C1.020
%
G90
G05
M71
T1
X115.8Y-74.575
X121.75Y-75.925
X157.5Y-108.45
X172.9Y-111.25
T2
X116.575Y-85.35
X116.575Y-90.43
X115.7Y-71.1
X120.78Y-71.1
T3
X106.5Y-74.55
X106.5Y-79.05
X113.Y-74.55
X113.Y-79.05
T4
X124.625Y-69.675
X124.625Y-72.215
X124.625Y-74.755
X124.625Y-77.295
X124.625Y-79.835
X124.625Y-82.375
X124.625Y-84.915
X124.625Y-87.455
X124.625Y-89.995
X124.625Y-92.535
X124.625Y-95.075
X124.625Y-97.615
X124.625Y-100.155
X124.625Y-102.695
X132.245Y-69.675
X132.245Y-72.215
X132.245Y-74.755
X132.245Y-77.295
X132.245Y-79.835
X132.245Y-82.375
X132.245Y-84.915
X132.245Y-87.455
X132.245Y-89.995
X132.245Y-92.535
X132.245Y-95.075
X132.245Y-97.615
X132.245Y-100.155
X132.245Y-102.695
T5
X116.9Y-78.95
X119.44Y-78.95
T6
X178.4Y-111.
X178.4Y-113.54
X178.4Y-116.08
X107.3Y-87.15
X107.3Y-89.69
X107.3Y-92.23
T0
M30
