%TF.GenerationSoftware,KiCad,Pcbnew,(5.0.0)*%
%TF.CreationDate,2018-10-04T13:43:41-06:00*%
%TF.ProjectId,contador,636F6E7461646F722E6B696361645F70,rev?*%
%TF.SameCoordinates,Original*%
%TF.FileFunction,Legend,Bot*%
%TF.FilePolarity,Positive*%
%FSLAX46Y46*%
G04 Gerber Fmt 4.6, Leading zero omitted, Abs format (unit mm)*
G04 Created by KiCad (PCBNEW (5.0.0)) date 10/04/18 13:43:41*
%MOMM*%
%LPD*%
G01*
G04 APERTURE LIST*
%ADD10R,2.200000X2.200000*%
%ADD11C,2.200000*%
%ADD12R,2.430000X2.130000*%
%ADD13O,2.430000X2.130000*%
%ADD14O,1.800000X1.800000*%
%ADD15C,1.800000*%
%ADD16C,1.924000*%
%ADD17R,2.000000X2.000000*%
%ADD18O,2.000000X2.000000*%
G04 APERTURE END LIST*
%LPC*%
D10*
X116900000Y-78950000D03*
D11*
X119440000Y-78950000D03*
D12*
X107300000Y-87150000D03*
D13*
X107300000Y-89690000D03*
X107300000Y-92230000D03*
X178400000Y-116080000D03*
X178400000Y-113540000D03*
D12*
X178400000Y-111000000D03*
D14*
X116575000Y-90430000D03*
D15*
X116575000Y-85350000D03*
X115700000Y-71100000D03*
D14*
X120780000Y-71100000D03*
D16*
X113000000Y-79050000D03*
X106500000Y-79050000D03*
X106500000Y-74550000D03*
X113000000Y-74550000D03*
D17*
X124625001Y-69675001D03*
D18*
X132245001Y-102695001D03*
X124625001Y-72215001D03*
X132245001Y-100155001D03*
X124625001Y-74755001D03*
X132245001Y-97615001D03*
X124625001Y-77295001D03*
X132245001Y-95075001D03*
X124625001Y-79835001D03*
X132245001Y-92535001D03*
X124625001Y-82375001D03*
X132245001Y-89995001D03*
X124625001Y-84915001D03*
X132245001Y-87455001D03*
X124625001Y-87455001D03*
X132245001Y-84915001D03*
X124625001Y-89995001D03*
X132245001Y-82375001D03*
X124625001Y-92535001D03*
X132245001Y-79835001D03*
X124625001Y-95075001D03*
X132245001Y-77295001D03*
X124625001Y-97615001D03*
X132245001Y-74755001D03*
X124625001Y-100155001D03*
X132245001Y-72215001D03*
X124625001Y-102695001D03*
X132245001Y-69675001D03*
M02*
