%TF.GenerationSoftware,KiCad,Pcbnew,(5.0.0)*%
%TF.CreationDate,2018-10-04T13:43:41-06:00*%
%TF.ProjectId,contador,636F6E7461646F722E6B696361645F70,rev?*%
%TF.SameCoordinates,Original*%
%TF.FileFunction,Soldermask,Top*%
%TF.FilePolarity,Negative*%
%FSLAX46Y46*%
G04 Gerber Fmt 4.6, Leading zero omitted, Abs format (unit mm)*
G04 Created by KiCad (PCBNEW (5.0.0)) date 10/04/18 13:43:41*
%MOMM*%
%LPD*%
G01*
G04 APERTURE LIST*
%ADD10C,0.150000*%
%ADD11C,1.375000*%
%ADD12R,2.200000X2.200000*%
%ADD13C,2.200000*%
%ADD14R,2.430000X2.130000*%
%ADD15O,2.430000X2.130000*%
%ADD16O,1.800000X1.800000*%
%ADD17C,1.800000*%
%ADD18C,1.924000*%
%ADD19R,2.000000X0.950000*%
%ADD20R,0.950000X2.000000*%
%ADD21R,2.000000X2.000000*%
%ADD22O,2.000000X2.000000*%
G04 APERTURE END LIST*
D10*
G36*
X171652443Y-118301655D02*
X171685812Y-118306605D01*
X171718535Y-118314802D01*
X171750297Y-118326166D01*
X171780793Y-118340590D01*
X171809727Y-118357932D01*
X171836823Y-118378028D01*
X171861818Y-118400682D01*
X171884472Y-118425677D01*
X171904568Y-118452773D01*
X171921910Y-118481707D01*
X171936334Y-118512203D01*
X171947698Y-118543965D01*
X171955895Y-118576688D01*
X171960845Y-118610057D01*
X171962500Y-118643750D01*
X171962500Y-119756250D01*
X171960845Y-119789943D01*
X171955895Y-119823312D01*
X171947698Y-119856035D01*
X171936334Y-119887797D01*
X171921910Y-119918293D01*
X171904568Y-119947227D01*
X171884472Y-119974323D01*
X171861818Y-119999318D01*
X171836823Y-120021972D01*
X171809727Y-120042068D01*
X171780793Y-120059410D01*
X171750297Y-120073834D01*
X171718535Y-120085198D01*
X171685812Y-120093395D01*
X171652443Y-120098345D01*
X171618750Y-120100000D01*
X170931250Y-120100000D01*
X170897557Y-120098345D01*
X170864188Y-120093395D01*
X170831465Y-120085198D01*
X170799703Y-120073834D01*
X170769207Y-120059410D01*
X170740273Y-120042068D01*
X170713177Y-120021972D01*
X170688182Y-119999318D01*
X170665528Y-119974323D01*
X170645432Y-119947227D01*
X170628090Y-119918293D01*
X170613666Y-119887797D01*
X170602302Y-119856035D01*
X170594105Y-119823312D01*
X170589155Y-119789943D01*
X170587500Y-119756250D01*
X170587500Y-118643750D01*
X170589155Y-118610057D01*
X170594105Y-118576688D01*
X170602302Y-118543965D01*
X170613666Y-118512203D01*
X170628090Y-118481707D01*
X170645432Y-118452773D01*
X170665528Y-118425677D01*
X170688182Y-118400682D01*
X170713177Y-118378028D01*
X170740273Y-118357932D01*
X170769207Y-118340590D01*
X170799703Y-118326166D01*
X170831465Y-118314802D01*
X170864188Y-118306605D01*
X170897557Y-118301655D01*
X170931250Y-118300000D01*
X171618750Y-118300000D01*
X171652443Y-118301655D01*
X171652443Y-118301655D01*
G37*
D11*
X171275000Y-119200000D03*
D10*
G36*
X169777443Y-118301655D02*
X169810812Y-118306605D01*
X169843535Y-118314802D01*
X169875297Y-118326166D01*
X169905793Y-118340590D01*
X169934727Y-118357932D01*
X169961823Y-118378028D01*
X169986818Y-118400682D01*
X170009472Y-118425677D01*
X170029568Y-118452773D01*
X170046910Y-118481707D01*
X170061334Y-118512203D01*
X170072698Y-118543965D01*
X170080895Y-118576688D01*
X170085845Y-118610057D01*
X170087500Y-118643750D01*
X170087500Y-119756250D01*
X170085845Y-119789943D01*
X170080895Y-119823312D01*
X170072698Y-119856035D01*
X170061334Y-119887797D01*
X170046910Y-119918293D01*
X170029568Y-119947227D01*
X170009472Y-119974323D01*
X169986818Y-119999318D01*
X169961823Y-120021972D01*
X169934727Y-120042068D01*
X169905793Y-120059410D01*
X169875297Y-120073834D01*
X169843535Y-120085198D01*
X169810812Y-120093395D01*
X169777443Y-120098345D01*
X169743750Y-120100000D01*
X169056250Y-120100000D01*
X169022557Y-120098345D01*
X168989188Y-120093395D01*
X168956465Y-120085198D01*
X168924703Y-120073834D01*
X168894207Y-120059410D01*
X168865273Y-120042068D01*
X168838177Y-120021972D01*
X168813182Y-119999318D01*
X168790528Y-119974323D01*
X168770432Y-119947227D01*
X168753090Y-119918293D01*
X168738666Y-119887797D01*
X168727302Y-119856035D01*
X168719105Y-119823312D01*
X168714155Y-119789943D01*
X168712500Y-119756250D01*
X168712500Y-118643750D01*
X168714155Y-118610057D01*
X168719105Y-118576688D01*
X168727302Y-118543965D01*
X168738666Y-118512203D01*
X168753090Y-118481707D01*
X168770432Y-118452773D01*
X168790528Y-118425677D01*
X168813182Y-118400682D01*
X168838177Y-118378028D01*
X168865273Y-118357932D01*
X168894207Y-118340590D01*
X168924703Y-118326166D01*
X168956465Y-118314802D01*
X168989188Y-118306605D01*
X169022557Y-118301655D01*
X169056250Y-118300000D01*
X169743750Y-118300000D01*
X169777443Y-118301655D01*
X169777443Y-118301655D01*
G37*
D11*
X169400000Y-119200000D03*
D12*
X116900000Y-78950000D03*
D13*
X119440000Y-78950000D03*
D14*
X107300000Y-87150000D03*
D15*
X107300000Y-89690000D03*
X107300000Y-92230000D03*
X178400000Y-116080000D03*
X178400000Y-113540000D03*
D14*
X178400000Y-111000000D03*
D10*
G36*
X165114943Y-118601655D02*
X165148312Y-118606605D01*
X165181035Y-118614802D01*
X165212797Y-118626166D01*
X165243293Y-118640590D01*
X165272227Y-118657932D01*
X165299323Y-118678028D01*
X165324318Y-118700682D01*
X165346972Y-118725677D01*
X165367068Y-118752773D01*
X165384410Y-118781707D01*
X165398834Y-118812203D01*
X165410198Y-118843965D01*
X165418395Y-118876688D01*
X165423345Y-118910057D01*
X165425000Y-118943750D01*
X165425000Y-120056250D01*
X165423345Y-120089943D01*
X165418395Y-120123312D01*
X165410198Y-120156035D01*
X165398834Y-120187797D01*
X165384410Y-120218293D01*
X165367068Y-120247227D01*
X165346972Y-120274323D01*
X165324318Y-120299318D01*
X165299323Y-120321972D01*
X165272227Y-120342068D01*
X165243293Y-120359410D01*
X165212797Y-120373834D01*
X165181035Y-120385198D01*
X165148312Y-120393395D01*
X165114943Y-120398345D01*
X165081250Y-120400000D01*
X164393750Y-120400000D01*
X164360057Y-120398345D01*
X164326688Y-120393395D01*
X164293965Y-120385198D01*
X164262203Y-120373834D01*
X164231707Y-120359410D01*
X164202773Y-120342068D01*
X164175677Y-120321972D01*
X164150682Y-120299318D01*
X164128028Y-120274323D01*
X164107932Y-120247227D01*
X164090590Y-120218293D01*
X164076166Y-120187797D01*
X164064802Y-120156035D01*
X164056605Y-120123312D01*
X164051655Y-120089943D01*
X164050000Y-120056250D01*
X164050000Y-118943750D01*
X164051655Y-118910057D01*
X164056605Y-118876688D01*
X164064802Y-118843965D01*
X164076166Y-118812203D01*
X164090590Y-118781707D01*
X164107932Y-118752773D01*
X164128028Y-118725677D01*
X164150682Y-118700682D01*
X164175677Y-118678028D01*
X164202773Y-118657932D01*
X164231707Y-118640590D01*
X164262203Y-118626166D01*
X164293965Y-118614802D01*
X164326688Y-118606605D01*
X164360057Y-118601655D01*
X164393750Y-118600000D01*
X165081250Y-118600000D01*
X165114943Y-118601655D01*
X165114943Y-118601655D01*
G37*
D11*
X164737500Y-119500000D03*
D10*
G36*
X163239943Y-118601655D02*
X163273312Y-118606605D01*
X163306035Y-118614802D01*
X163337797Y-118626166D01*
X163368293Y-118640590D01*
X163397227Y-118657932D01*
X163424323Y-118678028D01*
X163449318Y-118700682D01*
X163471972Y-118725677D01*
X163492068Y-118752773D01*
X163509410Y-118781707D01*
X163523834Y-118812203D01*
X163535198Y-118843965D01*
X163543395Y-118876688D01*
X163548345Y-118910057D01*
X163550000Y-118943750D01*
X163550000Y-120056250D01*
X163548345Y-120089943D01*
X163543395Y-120123312D01*
X163535198Y-120156035D01*
X163523834Y-120187797D01*
X163509410Y-120218293D01*
X163492068Y-120247227D01*
X163471972Y-120274323D01*
X163449318Y-120299318D01*
X163424323Y-120321972D01*
X163397227Y-120342068D01*
X163368293Y-120359410D01*
X163337797Y-120373834D01*
X163306035Y-120385198D01*
X163273312Y-120393395D01*
X163239943Y-120398345D01*
X163206250Y-120400000D01*
X162518750Y-120400000D01*
X162485057Y-120398345D01*
X162451688Y-120393395D01*
X162418965Y-120385198D01*
X162387203Y-120373834D01*
X162356707Y-120359410D01*
X162327773Y-120342068D01*
X162300677Y-120321972D01*
X162275682Y-120299318D01*
X162253028Y-120274323D01*
X162232932Y-120247227D01*
X162215590Y-120218293D01*
X162201166Y-120187797D01*
X162189802Y-120156035D01*
X162181605Y-120123312D01*
X162176655Y-120089943D01*
X162175000Y-120056250D01*
X162175000Y-118943750D01*
X162176655Y-118910057D01*
X162181605Y-118876688D01*
X162189802Y-118843965D01*
X162201166Y-118812203D01*
X162215590Y-118781707D01*
X162232932Y-118752773D01*
X162253028Y-118725677D01*
X162275682Y-118700682D01*
X162300677Y-118678028D01*
X162327773Y-118657932D01*
X162356707Y-118640590D01*
X162387203Y-118626166D01*
X162418965Y-118614802D01*
X162451688Y-118606605D01*
X162485057Y-118601655D01*
X162518750Y-118600000D01*
X163206250Y-118600000D01*
X163239943Y-118601655D01*
X163239943Y-118601655D01*
G37*
D11*
X162862500Y-119500000D03*
D16*
X116575000Y-90430000D03*
D17*
X116575000Y-85350000D03*
X115700000Y-71100000D03*
D16*
X120780000Y-71100000D03*
D18*
X113000000Y-79050000D03*
X106500000Y-79050000D03*
X106500000Y-74550000D03*
X113000000Y-74550000D03*
D19*
X160350000Y-104000000D03*
X160350000Y-104800000D03*
X160350000Y-105600000D03*
X160350000Y-106400000D03*
X160350000Y-107200000D03*
X160350000Y-108000000D03*
X160350000Y-108800000D03*
X160350000Y-109600000D03*
D20*
X161800000Y-111050000D03*
X162600000Y-111050000D03*
X163400000Y-111050000D03*
X164200000Y-111050000D03*
X165000000Y-111050000D03*
X165800000Y-111050000D03*
X166600000Y-111050000D03*
X167400000Y-111050000D03*
D19*
X168850000Y-109600000D03*
X168850000Y-108800000D03*
X168850000Y-108000000D03*
X168850000Y-107200000D03*
X168850000Y-106400000D03*
X168850000Y-105600000D03*
X168850000Y-104800000D03*
X168850000Y-104000000D03*
D20*
X167400000Y-102550000D03*
X166600000Y-102550000D03*
X165800000Y-102550000D03*
X165000000Y-102550000D03*
X164200000Y-102550000D03*
X163400000Y-102550000D03*
X162600000Y-102550000D03*
X161800000Y-102550000D03*
D21*
X124625001Y-69675001D03*
D22*
X132245001Y-102695001D03*
X124625001Y-72215001D03*
X132245001Y-100155001D03*
X124625001Y-74755001D03*
X132245001Y-97615001D03*
X124625001Y-77295001D03*
X132245001Y-95075001D03*
X124625001Y-79835001D03*
X132245001Y-92535001D03*
X124625001Y-82375001D03*
X132245001Y-89995001D03*
X124625001Y-84915001D03*
X132245001Y-87455001D03*
X124625001Y-87455001D03*
X132245001Y-84915001D03*
X124625001Y-89995001D03*
X132245001Y-82375001D03*
X124625001Y-92535001D03*
X132245001Y-79835001D03*
X124625001Y-95075001D03*
X132245001Y-77295001D03*
X124625001Y-97615001D03*
X132245001Y-74755001D03*
X124625001Y-100155001D03*
X132245001Y-72215001D03*
X124625001Y-102695001D03*
X132245001Y-69675001D03*
M02*
