%TF.GenerationSoftware,KiCad,Pcbnew,(5.0.0)*%
%TF.CreationDate,2018-10-04T13:43:41-06:00*%
%TF.ProjectId,contador,636F6E7461646F722E6B696361645F70,rev?*%
%TF.SameCoordinates,Original*%
%TF.FileFunction,Copper,L1,Top,Signal*%
%TF.FilePolarity,Positive*%
%FSLAX46Y46*%
G04 Gerber Fmt 4.6, Leading zero omitted, Abs format (unit mm)*
G04 Created by KiCad (PCBNEW (5.0.0)) date 10/04/18 13:43:41*
%MOMM*%
%LPD*%
G01*
G04 APERTURE LIST*
%ADD10C,0.150000*%
%ADD11C,0.975000*%
%ADD12R,1.800000X1.800000*%
%ADD13C,1.800000*%
%ADD14R,2.030000X1.730000*%
%ADD15O,2.030000X1.730000*%
%ADD16O,1.400000X1.400000*%
%ADD17C,1.400000*%
%ADD18C,1.524000*%
%ADD19R,1.600000X0.550000*%
%ADD20R,0.550000X1.600000*%
%ADD21R,1.600000X1.600000*%
%ADD22O,1.600000X1.600000*%
%ADD23C,0.800000*%
%ADD24C,0.500000*%
%ADD25C,0.254000*%
G04 APERTURE END LIST*
D10*
G36*
X171542642Y-118501174D02*
X171566303Y-118504684D01*
X171589507Y-118510496D01*
X171612029Y-118518554D01*
X171633653Y-118528782D01*
X171654170Y-118541079D01*
X171673383Y-118555329D01*
X171691107Y-118571393D01*
X171707171Y-118589117D01*
X171721421Y-118608330D01*
X171733718Y-118628847D01*
X171743946Y-118650471D01*
X171752004Y-118672993D01*
X171757816Y-118696197D01*
X171761326Y-118719858D01*
X171762500Y-118743750D01*
X171762500Y-119656250D01*
X171761326Y-119680142D01*
X171757816Y-119703803D01*
X171752004Y-119727007D01*
X171743946Y-119749529D01*
X171733718Y-119771153D01*
X171721421Y-119791670D01*
X171707171Y-119810883D01*
X171691107Y-119828607D01*
X171673383Y-119844671D01*
X171654170Y-119858921D01*
X171633653Y-119871218D01*
X171612029Y-119881446D01*
X171589507Y-119889504D01*
X171566303Y-119895316D01*
X171542642Y-119898826D01*
X171518750Y-119900000D01*
X171031250Y-119900000D01*
X171007358Y-119898826D01*
X170983697Y-119895316D01*
X170960493Y-119889504D01*
X170937971Y-119881446D01*
X170916347Y-119871218D01*
X170895830Y-119858921D01*
X170876617Y-119844671D01*
X170858893Y-119828607D01*
X170842829Y-119810883D01*
X170828579Y-119791670D01*
X170816282Y-119771153D01*
X170806054Y-119749529D01*
X170797996Y-119727007D01*
X170792184Y-119703803D01*
X170788674Y-119680142D01*
X170787500Y-119656250D01*
X170787500Y-118743750D01*
X170788674Y-118719858D01*
X170792184Y-118696197D01*
X170797996Y-118672993D01*
X170806054Y-118650471D01*
X170816282Y-118628847D01*
X170828579Y-118608330D01*
X170842829Y-118589117D01*
X170858893Y-118571393D01*
X170876617Y-118555329D01*
X170895830Y-118541079D01*
X170916347Y-118528782D01*
X170937971Y-118518554D01*
X170960493Y-118510496D01*
X170983697Y-118504684D01*
X171007358Y-118501174D01*
X171031250Y-118500000D01*
X171518750Y-118500000D01*
X171542642Y-118501174D01*
X171542642Y-118501174D01*
G37*
D11*
X171275000Y-119200000D03*
D10*
G36*
X169667642Y-118501174D02*
X169691303Y-118504684D01*
X169714507Y-118510496D01*
X169737029Y-118518554D01*
X169758653Y-118528782D01*
X169779170Y-118541079D01*
X169798383Y-118555329D01*
X169816107Y-118571393D01*
X169832171Y-118589117D01*
X169846421Y-118608330D01*
X169858718Y-118628847D01*
X169868946Y-118650471D01*
X169877004Y-118672993D01*
X169882816Y-118696197D01*
X169886326Y-118719858D01*
X169887500Y-118743750D01*
X169887500Y-119656250D01*
X169886326Y-119680142D01*
X169882816Y-119703803D01*
X169877004Y-119727007D01*
X169868946Y-119749529D01*
X169858718Y-119771153D01*
X169846421Y-119791670D01*
X169832171Y-119810883D01*
X169816107Y-119828607D01*
X169798383Y-119844671D01*
X169779170Y-119858921D01*
X169758653Y-119871218D01*
X169737029Y-119881446D01*
X169714507Y-119889504D01*
X169691303Y-119895316D01*
X169667642Y-119898826D01*
X169643750Y-119900000D01*
X169156250Y-119900000D01*
X169132358Y-119898826D01*
X169108697Y-119895316D01*
X169085493Y-119889504D01*
X169062971Y-119881446D01*
X169041347Y-119871218D01*
X169020830Y-119858921D01*
X169001617Y-119844671D01*
X168983893Y-119828607D01*
X168967829Y-119810883D01*
X168953579Y-119791670D01*
X168941282Y-119771153D01*
X168931054Y-119749529D01*
X168922996Y-119727007D01*
X168917184Y-119703803D01*
X168913674Y-119680142D01*
X168912500Y-119656250D01*
X168912500Y-118743750D01*
X168913674Y-118719858D01*
X168917184Y-118696197D01*
X168922996Y-118672993D01*
X168931054Y-118650471D01*
X168941282Y-118628847D01*
X168953579Y-118608330D01*
X168967829Y-118589117D01*
X168983893Y-118571393D01*
X169001617Y-118555329D01*
X169020830Y-118541079D01*
X169041347Y-118528782D01*
X169062971Y-118518554D01*
X169085493Y-118510496D01*
X169108697Y-118504684D01*
X169132358Y-118501174D01*
X169156250Y-118500000D01*
X169643750Y-118500000D01*
X169667642Y-118501174D01*
X169667642Y-118501174D01*
G37*
D11*
X169400000Y-119200000D03*
D12*
X116900000Y-78950000D03*
D13*
X119440000Y-78950000D03*
D14*
X107300000Y-87150000D03*
D15*
X107300000Y-89690000D03*
X107300000Y-92230000D03*
X178400000Y-116080000D03*
X178400000Y-113540000D03*
D14*
X178400000Y-111000000D03*
D10*
G36*
X165005142Y-118801174D02*
X165028803Y-118804684D01*
X165052007Y-118810496D01*
X165074529Y-118818554D01*
X165096153Y-118828782D01*
X165116670Y-118841079D01*
X165135883Y-118855329D01*
X165153607Y-118871393D01*
X165169671Y-118889117D01*
X165183921Y-118908330D01*
X165196218Y-118928847D01*
X165206446Y-118950471D01*
X165214504Y-118972993D01*
X165220316Y-118996197D01*
X165223826Y-119019858D01*
X165225000Y-119043750D01*
X165225000Y-119956250D01*
X165223826Y-119980142D01*
X165220316Y-120003803D01*
X165214504Y-120027007D01*
X165206446Y-120049529D01*
X165196218Y-120071153D01*
X165183921Y-120091670D01*
X165169671Y-120110883D01*
X165153607Y-120128607D01*
X165135883Y-120144671D01*
X165116670Y-120158921D01*
X165096153Y-120171218D01*
X165074529Y-120181446D01*
X165052007Y-120189504D01*
X165028803Y-120195316D01*
X165005142Y-120198826D01*
X164981250Y-120200000D01*
X164493750Y-120200000D01*
X164469858Y-120198826D01*
X164446197Y-120195316D01*
X164422993Y-120189504D01*
X164400471Y-120181446D01*
X164378847Y-120171218D01*
X164358330Y-120158921D01*
X164339117Y-120144671D01*
X164321393Y-120128607D01*
X164305329Y-120110883D01*
X164291079Y-120091670D01*
X164278782Y-120071153D01*
X164268554Y-120049529D01*
X164260496Y-120027007D01*
X164254684Y-120003803D01*
X164251174Y-119980142D01*
X164250000Y-119956250D01*
X164250000Y-119043750D01*
X164251174Y-119019858D01*
X164254684Y-118996197D01*
X164260496Y-118972993D01*
X164268554Y-118950471D01*
X164278782Y-118928847D01*
X164291079Y-118908330D01*
X164305329Y-118889117D01*
X164321393Y-118871393D01*
X164339117Y-118855329D01*
X164358330Y-118841079D01*
X164378847Y-118828782D01*
X164400471Y-118818554D01*
X164422993Y-118810496D01*
X164446197Y-118804684D01*
X164469858Y-118801174D01*
X164493750Y-118800000D01*
X164981250Y-118800000D01*
X165005142Y-118801174D01*
X165005142Y-118801174D01*
G37*
D11*
X164737500Y-119500000D03*
D10*
G36*
X163130142Y-118801174D02*
X163153803Y-118804684D01*
X163177007Y-118810496D01*
X163199529Y-118818554D01*
X163221153Y-118828782D01*
X163241670Y-118841079D01*
X163260883Y-118855329D01*
X163278607Y-118871393D01*
X163294671Y-118889117D01*
X163308921Y-118908330D01*
X163321218Y-118928847D01*
X163331446Y-118950471D01*
X163339504Y-118972993D01*
X163345316Y-118996197D01*
X163348826Y-119019858D01*
X163350000Y-119043750D01*
X163350000Y-119956250D01*
X163348826Y-119980142D01*
X163345316Y-120003803D01*
X163339504Y-120027007D01*
X163331446Y-120049529D01*
X163321218Y-120071153D01*
X163308921Y-120091670D01*
X163294671Y-120110883D01*
X163278607Y-120128607D01*
X163260883Y-120144671D01*
X163241670Y-120158921D01*
X163221153Y-120171218D01*
X163199529Y-120181446D01*
X163177007Y-120189504D01*
X163153803Y-120195316D01*
X163130142Y-120198826D01*
X163106250Y-120200000D01*
X162618750Y-120200000D01*
X162594858Y-120198826D01*
X162571197Y-120195316D01*
X162547993Y-120189504D01*
X162525471Y-120181446D01*
X162503847Y-120171218D01*
X162483330Y-120158921D01*
X162464117Y-120144671D01*
X162446393Y-120128607D01*
X162430329Y-120110883D01*
X162416079Y-120091670D01*
X162403782Y-120071153D01*
X162393554Y-120049529D01*
X162385496Y-120027007D01*
X162379684Y-120003803D01*
X162376174Y-119980142D01*
X162375000Y-119956250D01*
X162375000Y-119043750D01*
X162376174Y-119019858D01*
X162379684Y-118996197D01*
X162385496Y-118972993D01*
X162393554Y-118950471D01*
X162403782Y-118928847D01*
X162416079Y-118908330D01*
X162430329Y-118889117D01*
X162446393Y-118871393D01*
X162464117Y-118855329D01*
X162483330Y-118841079D01*
X162503847Y-118828782D01*
X162525471Y-118818554D01*
X162547993Y-118810496D01*
X162571197Y-118804684D01*
X162594858Y-118801174D01*
X162618750Y-118800000D01*
X163106250Y-118800000D01*
X163130142Y-118801174D01*
X163130142Y-118801174D01*
G37*
D11*
X162862500Y-119500000D03*
D16*
X116575000Y-90430000D03*
D17*
X116575000Y-85350000D03*
X115700000Y-71100000D03*
D16*
X120780000Y-71100000D03*
D18*
X113000000Y-79050000D03*
X106500000Y-79050000D03*
X106500000Y-74550000D03*
X113000000Y-74550000D03*
D19*
X160350000Y-104000000D03*
X160350000Y-104800000D03*
X160350000Y-105600000D03*
X160350000Y-106400000D03*
X160350000Y-107200000D03*
X160350000Y-108000000D03*
X160350000Y-108800000D03*
X160350000Y-109600000D03*
D20*
X161800000Y-111050000D03*
X162600000Y-111050000D03*
X163400000Y-111050000D03*
X164200000Y-111050000D03*
X165000000Y-111050000D03*
X165800000Y-111050000D03*
X166600000Y-111050000D03*
X167400000Y-111050000D03*
D19*
X168850000Y-109600000D03*
X168850000Y-108800000D03*
X168850000Y-108000000D03*
X168850000Y-107200000D03*
X168850000Y-106400000D03*
X168850000Y-105600000D03*
X168850000Y-104800000D03*
X168850000Y-104000000D03*
D20*
X167400000Y-102550000D03*
X166600000Y-102550000D03*
X165800000Y-102550000D03*
X165000000Y-102550000D03*
X164200000Y-102550000D03*
X163400000Y-102550000D03*
X162600000Y-102550000D03*
X161800000Y-102550000D03*
D21*
X124625001Y-69675001D03*
D22*
X132245001Y-102695001D03*
X124625001Y-72215001D03*
X132245001Y-100155001D03*
X124625001Y-74755001D03*
X132245001Y-97615001D03*
X124625001Y-77295001D03*
X132245001Y-95075001D03*
X124625001Y-79835001D03*
X132245001Y-92535001D03*
X124625001Y-82375001D03*
X132245001Y-89995001D03*
X124625001Y-84915001D03*
X132245001Y-87455001D03*
X124625001Y-87455001D03*
X132245001Y-84915001D03*
X124625001Y-89995001D03*
X132245001Y-82375001D03*
X124625001Y-92535001D03*
X132245001Y-79835001D03*
X124625001Y-95075001D03*
X132245001Y-77295001D03*
X124625001Y-97615001D03*
X132245001Y-74755001D03*
X124625001Y-100155001D03*
X132245001Y-72215001D03*
X124625001Y-102695001D03*
X132245001Y-69675001D03*
D23*
X172900000Y-111250000D03*
X157500000Y-108450000D03*
X121750000Y-75925000D03*
X115800000Y-74575000D03*
D24*
X172900000Y-111250000D02*
X172800000Y-111150000D01*
X172800000Y-111150000D02*
X172800000Y-107400000D01*
X171800000Y-106400000D02*
X168850000Y-106400000D01*
X172800000Y-107400000D02*
X171800000Y-106400000D01*
X168850000Y-106400000D02*
X165250000Y-106400000D01*
X164450000Y-105600000D02*
X160350000Y-105600000D01*
X165250000Y-106400000D02*
X164450000Y-105600000D01*
X160350000Y-105600000D02*
X158000000Y-105600000D01*
X158000000Y-105600000D02*
X157900000Y-105700000D01*
X157900000Y-105700000D02*
X157900000Y-107000000D01*
X158100000Y-107200000D02*
X160350000Y-107200000D01*
X157900000Y-107000000D02*
X158100000Y-107200000D01*
X171275000Y-112875000D02*
X172900000Y-111250000D01*
X171275000Y-119200000D02*
X171275000Y-112875000D01*
X169100000Y-119500000D02*
X169400000Y-119200000D01*
X164737500Y-119500000D02*
X169100000Y-119500000D01*
X157500000Y-108450000D02*
X157500000Y-108300000D01*
X157800000Y-108000000D02*
X160350000Y-108000000D01*
X157500000Y-108300000D02*
X157800000Y-108000000D01*
X160350000Y-108000000D02*
X162700000Y-108000000D01*
X162700000Y-108000000D02*
X163200000Y-107500000D01*
X163200000Y-107500000D02*
X163200000Y-106650000D01*
X162950000Y-106400000D02*
X160350000Y-106400000D01*
X163200000Y-106650000D02*
X162950000Y-106400000D01*
X162862500Y-119500000D02*
X162862500Y-115787500D01*
X163400000Y-115250000D02*
X163400000Y-111050000D01*
X162862500Y-115787500D02*
X163400000Y-115250000D01*
X121750000Y-75925000D02*
X117150000Y-75925000D01*
X117150000Y-75925000D02*
X115800000Y-74575000D01*
D25*
G36*
X186721912Y-126422791D02*
X156277434Y-126373207D01*
X156339413Y-108244126D01*
X156465000Y-108244126D01*
X156465000Y-108655874D01*
X156622569Y-109036280D01*
X156913720Y-109327431D01*
X157294126Y-109485000D01*
X157705874Y-109485000D01*
X158086280Y-109327431D01*
X158377431Y-109036280D01*
X158440093Y-108885000D01*
X158902560Y-108885000D01*
X158902560Y-109075000D01*
X158927424Y-109200000D01*
X158902560Y-109325000D01*
X158902560Y-109875000D01*
X158951843Y-110122765D01*
X159092191Y-110332809D01*
X159302235Y-110473157D01*
X159550000Y-110522440D01*
X160877560Y-110522440D01*
X160877560Y-111850000D01*
X160926843Y-112097765D01*
X161067191Y-112307809D01*
X161277235Y-112448157D01*
X161525000Y-112497440D01*
X162075000Y-112497440D01*
X162200000Y-112472576D01*
X162325000Y-112497440D01*
X162515001Y-112497440D01*
X162515000Y-114883422D01*
X162298345Y-115100077D01*
X162224452Y-115149451D01*
X162175078Y-115223344D01*
X162175076Y-115223346D01*
X162028848Y-115442191D01*
X161960163Y-115787500D01*
X161977501Y-115874665D01*
X161977500Y-118430172D01*
X161795398Y-118702706D01*
X161727560Y-119043750D01*
X161727560Y-119956250D01*
X161795398Y-120297294D01*
X161988584Y-120586416D01*
X162277706Y-120779602D01*
X162618750Y-120847440D01*
X163106250Y-120847440D01*
X163447294Y-120779602D01*
X163736416Y-120586416D01*
X163800000Y-120491256D01*
X163863584Y-120586416D01*
X164152706Y-120779602D01*
X164493750Y-120847440D01*
X164981250Y-120847440D01*
X165322294Y-120779602D01*
X165611416Y-120586416D01*
X165745998Y-120385000D01*
X168673625Y-120385000D01*
X168815206Y-120479602D01*
X169156250Y-120547440D01*
X169643750Y-120547440D01*
X169984794Y-120479602D01*
X170273916Y-120286416D01*
X170274707Y-120285233D01*
X170427802Y-120438327D01*
X170661191Y-120535000D01*
X170989250Y-120535000D01*
X171148000Y-120376250D01*
X171148000Y-119327000D01*
X171402000Y-119327000D01*
X171402000Y-120376250D01*
X171560750Y-120535000D01*
X171888809Y-120535000D01*
X172122198Y-120438327D01*
X172300827Y-120259699D01*
X172397500Y-120026310D01*
X172397500Y-119485750D01*
X172238750Y-119327000D01*
X171402000Y-119327000D01*
X171148000Y-119327000D01*
X171128000Y-119327000D01*
X171128000Y-119073000D01*
X171148000Y-119073000D01*
X171148000Y-118023750D01*
X171402000Y-118023750D01*
X171402000Y-119073000D01*
X172238750Y-119073000D01*
X172397500Y-118914250D01*
X172397500Y-118373690D01*
X172300827Y-118140301D01*
X172122198Y-117961673D01*
X171888809Y-117865000D01*
X171560750Y-117865000D01*
X171402000Y-118023750D01*
X171148000Y-118023750D01*
X170989250Y-117865000D01*
X170661191Y-117865000D01*
X170427802Y-117961673D01*
X170274707Y-118114767D01*
X170273916Y-118113584D01*
X169984794Y-117920398D01*
X169643750Y-117852560D01*
X169156250Y-117852560D01*
X168815206Y-117920398D01*
X168526084Y-118113584D01*
X168332898Y-118402706D01*
X168290670Y-118615000D01*
X165745998Y-118615000D01*
X165611416Y-118413584D01*
X165322294Y-118220398D01*
X164981250Y-118152560D01*
X164493750Y-118152560D01*
X164152706Y-118220398D01*
X163863584Y-118413584D01*
X163800000Y-118508744D01*
X163747500Y-118430172D01*
X163747500Y-116154078D01*
X163964154Y-115937424D01*
X164038049Y-115888049D01*
X164233652Y-115595310D01*
X164285000Y-115337165D01*
X164285000Y-115337161D01*
X164302337Y-115250000D01*
X164285000Y-115162839D01*
X164285000Y-113540000D01*
X176720614Y-113540000D01*
X176837032Y-114125271D01*
X177168561Y-114621439D01*
X177450762Y-114810000D01*
X177168561Y-114998561D01*
X176837032Y-115494729D01*
X176720614Y-116080000D01*
X176837032Y-116665271D01*
X177168561Y-117161439D01*
X177664729Y-117492968D01*
X178102267Y-117580000D01*
X178697733Y-117580000D01*
X179135271Y-117492968D01*
X179631439Y-117161439D01*
X179962968Y-116665271D01*
X180079386Y-116080000D01*
X179962968Y-115494729D01*
X179631439Y-114998561D01*
X179349238Y-114810000D01*
X179631439Y-114621439D01*
X179962968Y-114125271D01*
X180079386Y-113540000D01*
X179962968Y-112954729D01*
X179633588Y-112461777D01*
X179774698Y-112403327D01*
X179953327Y-112224699D01*
X180050000Y-111991310D01*
X180050000Y-111285750D01*
X179891250Y-111127000D01*
X178527000Y-111127000D01*
X178527000Y-111147000D01*
X178273000Y-111147000D01*
X178273000Y-111127000D01*
X176908750Y-111127000D01*
X176750000Y-111285750D01*
X176750000Y-111991310D01*
X176846673Y-112224699D01*
X177025302Y-112403327D01*
X177166412Y-112461777D01*
X176837032Y-112954729D01*
X176720614Y-113540000D01*
X164285000Y-113540000D01*
X164285000Y-112497440D01*
X164475000Y-112497440D01*
X164600000Y-112472576D01*
X164725000Y-112497440D01*
X165275000Y-112497440D01*
X165400000Y-112472576D01*
X165525000Y-112497440D01*
X166075000Y-112497440D01*
X166200000Y-112472576D01*
X166325000Y-112497440D01*
X166875000Y-112497440D01*
X167000000Y-112472576D01*
X167125000Y-112497440D01*
X167675000Y-112497440D01*
X167922765Y-112448157D01*
X168132809Y-112307809D01*
X168273157Y-112097765D01*
X168322440Y-111850000D01*
X168322440Y-110522440D01*
X169650000Y-110522440D01*
X169897765Y-110473157D01*
X170107809Y-110332809D01*
X170248157Y-110122765D01*
X170270847Y-110008690D01*
X176750000Y-110008690D01*
X176750000Y-110714250D01*
X176908750Y-110873000D01*
X178273000Y-110873000D01*
X178273000Y-109658750D01*
X178527000Y-109658750D01*
X178527000Y-110873000D01*
X179891250Y-110873000D01*
X180050000Y-110714250D01*
X180050000Y-110008690D01*
X179953327Y-109775301D01*
X179774698Y-109596673D01*
X179541309Y-109500000D01*
X178685750Y-109500000D01*
X178527000Y-109658750D01*
X178273000Y-109658750D01*
X178114250Y-109500000D01*
X177258691Y-109500000D01*
X177025302Y-109596673D01*
X176846673Y-109775301D01*
X176750000Y-110008690D01*
X170270847Y-110008690D01*
X170297440Y-109875000D01*
X170297440Y-109325000D01*
X170272576Y-109200000D01*
X170297440Y-109075000D01*
X170297440Y-108525000D01*
X170272576Y-108400000D01*
X170297440Y-108275000D01*
X170297440Y-107725000D01*
X170272576Y-107600000D01*
X170297440Y-107475000D01*
X170297440Y-106925000D01*
X170276783Y-106821148D01*
X170285000Y-106801310D01*
X170285000Y-106685750D01*
X170191112Y-106591862D01*
X170107809Y-106467191D01*
X170007251Y-106400000D01*
X170107809Y-106332809D01*
X170191112Y-106208138D01*
X170285000Y-106114250D01*
X170285000Y-105998690D01*
X170276783Y-105978852D01*
X170297440Y-105875000D01*
X170297440Y-105325000D01*
X170272576Y-105200000D01*
X170297440Y-105075000D01*
X170297440Y-104525000D01*
X170272576Y-104400000D01*
X170297440Y-104275000D01*
X170297440Y-103725000D01*
X170248157Y-103477235D01*
X170107809Y-103267191D01*
X169897765Y-103126843D01*
X169650000Y-103077560D01*
X168322440Y-103077560D01*
X168322440Y-101750000D01*
X168273157Y-101502235D01*
X168132809Y-101292191D01*
X167922765Y-101151843D01*
X167675000Y-101102560D01*
X167125000Y-101102560D01*
X167000000Y-101127424D01*
X166875000Y-101102560D01*
X166325000Y-101102560D01*
X166200000Y-101127424D01*
X166075000Y-101102560D01*
X165525000Y-101102560D01*
X165400000Y-101127424D01*
X165275000Y-101102560D01*
X164725000Y-101102560D01*
X164600000Y-101127424D01*
X164475000Y-101102560D01*
X163925000Y-101102560D01*
X163800000Y-101127424D01*
X163675000Y-101102560D01*
X163125000Y-101102560D01*
X163000000Y-101127424D01*
X162875000Y-101102560D01*
X162325000Y-101102560D01*
X162200000Y-101127424D01*
X162075000Y-101102560D01*
X161525000Y-101102560D01*
X161277235Y-101151843D01*
X161067191Y-101292191D01*
X160926843Y-101502235D01*
X160877560Y-101750000D01*
X160877560Y-103077560D01*
X159550000Y-103077560D01*
X159302235Y-103126843D01*
X159092191Y-103267191D01*
X158951843Y-103477235D01*
X158902560Y-103725000D01*
X158902560Y-104275000D01*
X158927424Y-104400000D01*
X158902560Y-104525000D01*
X158902560Y-105075000D01*
X158923217Y-105178852D01*
X158915000Y-105198690D01*
X158915000Y-105314250D01*
X159008888Y-105408138D01*
X159092191Y-105532809D01*
X159192749Y-105600000D01*
X159092191Y-105667191D01*
X159008888Y-105791862D01*
X158915000Y-105885750D01*
X158915000Y-106001310D01*
X158923217Y-106021148D01*
X158902560Y-106125000D01*
X158902560Y-106675000D01*
X158923217Y-106778852D01*
X158915000Y-106798690D01*
X158915000Y-106914250D01*
X159008888Y-107008138D01*
X159052226Y-107072998D01*
X158915000Y-107072998D01*
X158915000Y-107115000D01*
X157887159Y-107115000D01*
X157799999Y-107097663D01*
X157712840Y-107115000D01*
X157712835Y-107115000D01*
X157454690Y-107166348D01*
X157161951Y-107361951D01*
X157112576Y-107435846D01*
X157019788Y-107528634D01*
X156913720Y-107572569D01*
X156622569Y-107863720D01*
X156465000Y-108244126D01*
X156339413Y-108244126D01*
X156376567Y-97376792D01*
X186474079Y-97327208D01*
X186721912Y-126422791D01*
X186721912Y-126422791D01*
G37*
X186721912Y-126422791D02*
X156277434Y-126373207D01*
X156339413Y-108244126D01*
X156465000Y-108244126D01*
X156465000Y-108655874D01*
X156622569Y-109036280D01*
X156913720Y-109327431D01*
X157294126Y-109485000D01*
X157705874Y-109485000D01*
X158086280Y-109327431D01*
X158377431Y-109036280D01*
X158440093Y-108885000D01*
X158902560Y-108885000D01*
X158902560Y-109075000D01*
X158927424Y-109200000D01*
X158902560Y-109325000D01*
X158902560Y-109875000D01*
X158951843Y-110122765D01*
X159092191Y-110332809D01*
X159302235Y-110473157D01*
X159550000Y-110522440D01*
X160877560Y-110522440D01*
X160877560Y-111850000D01*
X160926843Y-112097765D01*
X161067191Y-112307809D01*
X161277235Y-112448157D01*
X161525000Y-112497440D01*
X162075000Y-112497440D01*
X162200000Y-112472576D01*
X162325000Y-112497440D01*
X162515001Y-112497440D01*
X162515000Y-114883422D01*
X162298345Y-115100077D01*
X162224452Y-115149451D01*
X162175078Y-115223344D01*
X162175076Y-115223346D01*
X162028848Y-115442191D01*
X161960163Y-115787500D01*
X161977501Y-115874665D01*
X161977500Y-118430172D01*
X161795398Y-118702706D01*
X161727560Y-119043750D01*
X161727560Y-119956250D01*
X161795398Y-120297294D01*
X161988584Y-120586416D01*
X162277706Y-120779602D01*
X162618750Y-120847440D01*
X163106250Y-120847440D01*
X163447294Y-120779602D01*
X163736416Y-120586416D01*
X163800000Y-120491256D01*
X163863584Y-120586416D01*
X164152706Y-120779602D01*
X164493750Y-120847440D01*
X164981250Y-120847440D01*
X165322294Y-120779602D01*
X165611416Y-120586416D01*
X165745998Y-120385000D01*
X168673625Y-120385000D01*
X168815206Y-120479602D01*
X169156250Y-120547440D01*
X169643750Y-120547440D01*
X169984794Y-120479602D01*
X170273916Y-120286416D01*
X170274707Y-120285233D01*
X170427802Y-120438327D01*
X170661191Y-120535000D01*
X170989250Y-120535000D01*
X171148000Y-120376250D01*
X171148000Y-119327000D01*
X171402000Y-119327000D01*
X171402000Y-120376250D01*
X171560750Y-120535000D01*
X171888809Y-120535000D01*
X172122198Y-120438327D01*
X172300827Y-120259699D01*
X172397500Y-120026310D01*
X172397500Y-119485750D01*
X172238750Y-119327000D01*
X171402000Y-119327000D01*
X171148000Y-119327000D01*
X171128000Y-119327000D01*
X171128000Y-119073000D01*
X171148000Y-119073000D01*
X171148000Y-118023750D01*
X171402000Y-118023750D01*
X171402000Y-119073000D01*
X172238750Y-119073000D01*
X172397500Y-118914250D01*
X172397500Y-118373690D01*
X172300827Y-118140301D01*
X172122198Y-117961673D01*
X171888809Y-117865000D01*
X171560750Y-117865000D01*
X171402000Y-118023750D01*
X171148000Y-118023750D01*
X170989250Y-117865000D01*
X170661191Y-117865000D01*
X170427802Y-117961673D01*
X170274707Y-118114767D01*
X170273916Y-118113584D01*
X169984794Y-117920398D01*
X169643750Y-117852560D01*
X169156250Y-117852560D01*
X168815206Y-117920398D01*
X168526084Y-118113584D01*
X168332898Y-118402706D01*
X168290670Y-118615000D01*
X165745998Y-118615000D01*
X165611416Y-118413584D01*
X165322294Y-118220398D01*
X164981250Y-118152560D01*
X164493750Y-118152560D01*
X164152706Y-118220398D01*
X163863584Y-118413584D01*
X163800000Y-118508744D01*
X163747500Y-118430172D01*
X163747500Y-116154078D01*
X163964154Y-115937424D01*
X164038049Y-115888049D01*
X164233652Y-115595310D01*
X164285000Y-115337165D01*
X164285000Y-115337161D01*
X164302337Y-115250000D01*
X164285000Y-115162839D01*
X164285000Y-113540000D01*
X176720614Y-113540000D01*
X176837032Y-114125271D01*
X177168561Y-114621439D01*
X177450762Y-114810000D01*
X177168561Y-114998561D01*
X176837032Y-115494729D01*
X176720614Y-116080000D01*
X176837032Y-116665271D01*
X177168561Y-117161439D01*
X177664729Y-117492968D01*
X178102267Y-117580000D01*
X178697733Y-117580000D01*
X179135271Y-117492968D01*
X179631439Y-117161439D01*
X179962968Y-116665271D01*
X180079386Y-116080000D01*
X179962968Y-115494729D01*
X179631439Y-114998561D01*
X179349238Y-114810000D01*
X179631439Y-114621439D01*
X179962968Y-114125271D01*
X180079386Y-113540000D01*
X179962968Y-112954729D01*
X179633588Y-112461777D01*
X179774698Y-112403327D01*
X179953327Y-112224699D01*
X180050000Y-111991310D01*
X180050000Y-111285750D01*
X179891250Y-111127000D01*
X178527000Y-111127000D01*
X178527000Y-111147000D01*
X178273000Y-111147000D01*
X178273000Y-111127000D01*
X176908750Y-111127000D01*
X176750000Y-111285750D01*
X176750000Y-111991310D01*
X176846673Y-112224699D01*
X177025302Y-112403327D01*
X177166412Y-112461777D01*
X176837032Y-112954729D01*
X176720614Y-113540000D01*
X164285000Y-113540000D01*
X164285000Y-112497440D01*
X164475000Y-112497440D01*
X164600000Y-112472576D01*
X164725000Y-112497440D01*
X165275000Y-112497440D01*
X165400000Y-112472576D01*
X165525000Y-112497440D01*
X166075000Y-112497440D01*
X166200000Y-112472576D01*
X166325000Y-112497440D01*
X166875000Y-112497440D01*
X167000000Y-112472576D01*
X167125000Y-112497440D01*
X167675000Y-112497440D01*
X167922765Y-112448157D01*
X168132809Y-112307809D01*
X168273157Y-112097765D01*
X168322440Y-111850000D01*
X168322440Y-110522440D01*
X169650000Y-110522440D01*
X169897765Y-110473157D01*
X170107809Y-110332809D01*
X170248157Y-110122765D01*
X170270847Y-110008690D01*
X176750000Y-110008690D01*
X176750000Y-110714250D01*
X176908750Y-110873000D01*
X178273000Y-110873000D01*
X178273000Y-109658750D01*
X178527000Y-109658750D01*
X178527000Y-110873000D01*
X179891250Y-110873000D01*
X180050000Y-110714250D01*
X180050000Y-110008690D01*
X179953327Y-109775301D01*
X179774698Y-109596673D01*
X179541309Y-109500000D01*
X178685750Y-109500000D01*
X178527000Y-109658750D01*
X178273000Y-109658750D01*
X178114250Y-109500000D01*
X177258691Y-109500000D01*
X177025302Y-109596673D01*
X176846673Y-109775301D01*
X176750000Y-110008690D01*
X170270847Y-110008690D01*
X170297440Y-109875000D01*
X170297440Y-109325000D01*
X170272576Y-109200000D01*
X170297440Y-109075000D01*
X170297440Y-108525000D01*
X170272576Y-108400000D01*
X170297440Y-108275000D01*
X170297440Y-107725000D01*
X170272576Y-107600000D01*
X170297440Y-107475000D01*
X170297440Y-106925000D01*
X170276783Y-106821148D01*
X170285000Y-106801310D01*
X170285000Y-106685750D01*
X170191112Y-106591862D01*
X170107809Y-106467191D01*
X170007251Y-106400000D01*
X170107809Y-106332809D01*
X170191112Y-106208138D01*
X170285000Y-106114250D01*
X170285000Y-105998690D01*
X170276783Y-105978852D01*
X170297440Y-105875000D01*
X170297440Y-105325000D01*
X170272576Y-105200000D01*
X170297440Y-105075000D01*
X170297440Y-104525000D01*
X170272576Y-104400000D01*
X170297440Y-104275000D01*
X170297440Y-103725000D01*
X170248157Y-103477235D01*
X170107809Y-103267191D01*
X169897765Y-103126843D01*
X169650000Y-103077560D01*
X168322440Y-103077560D01*
X168322440Y-101750000D01*
X168273157Y-101502235D01*
X168132809Y-101292191D01*
X167922765Y-101151843D01*
X167675000Y-101102560D01*
X167125000Y-101102560D01*
X167000000Y-101127424D01*
X166875000Y-101102560D01*
X166325000Y-101102560D01*
X166200000Y-101127424D01*
X166075000Y-101102560D01*
X165525000Y-101102560D01*
X165400000Y-101127424D01*
X165275000Y-101102560D01*
X164725000Y-101102560D01*
X164600000Y-101127424D01*
X164475000Y-101102560D01*
X163925000Y-101102560D01*
X163800000Y-101127424D01*
X163675000Y-101102560D01*
X163125000Y-101102560D01*
X163000000Y-101127424D01*
X162875000Y-101102560D01*
X162325000Y-101102560D01*
X162200000Y-101127424D01*
X162075000Y-101102560D01*
X161525000Y-101102560D01*
X161277235Y-101151843D01*
X161067191Y-101292191D01*
X160926843Y-101502235D01*
X160877560Y-101750000D01*
X160877560Y-103077560D01*
X159550000Y-103077560D01*
X159302235Y-103126843D01*
X159092191Y-103267191D01*
X158951843Y-103477235D01*
X158902560Y-103725000D01*
X158902560Y-104275000D01*
X158927424Y-104400000D01*
X158902560Y-104525000D01*
X158902560Y-105075000D01*
X158923217Y-105178852D01*
X158915000Y-105198690D01*
X158915000Y-105314250D01*
X159008888Y-105408138D01*
X159092191Y-105532809D01*
X159192749Y-105600000D01*
X159092191Y-105667191D01*
X159008888Y-105791862D01*
X158915000Y-105885750D01*
X158915000Y-106001310D01*
X158923217Y-106021148D01*
X158902560Y-106125000D01*
X158902560Y-106675000D01*
X158923217Y-106778852D01*
X158915000Y-106798690D01*
X158915000Y-106914250D01*
X159008888Y-107008138D01*
X159052226Y-107072998D01*
X158915000Y-107072998D01*
X158915000Y-107115000D01*
X157887159Y-107115000D01*
X157799999Y-107097663D01*
X157712840Y-107115000D01*
X157712835Y-107115000D01*
X157454690Y-107166348D01*
X157161951Y-107361951D01*
X157112576Y-107435846D01*
X157019788Y-107528634D01*
X156913720Y-107572569D01*
X156622569Y-107863720D01*
X156465000Y-108244126D01*
X156339413Y-108244126D01*
X156376567Y-97376792D01*
X186474079Y-97327208D01*
X186721912Y-126422791D01*
G36*
X167125000Y-103997440D02*
X167402560Y-103997440D01*
X167402560Y-104275000D01*
X167427424Y-104400000D01*
X167402560Y-104525000D01*
X167402560Y-105075000D01*
X167427424Y-105200000D01*
X167402560Y-105325000D01*
X167402560Y-105875000D01*
X167423217Y-105978852D01*
X167415000Y-105998690D01*
X167415000Y-106114250D01*
X167508888Y-106208138D01*
X167592191Y-106332809D01*
X167692749Y-106400000D01*
X167592191Y-106467191D01*
X167508888Y-106591862D01*
X167415000Y-106685750D01*
X167415000Y-106801310D01*
X167423217Y-106821148D01*
X167402560Y-106925000D01*
X167402560Y-107475000D01*
X167427424Y-107600000D01*
X167402560Y-107725000D01*
X167402560Y-108275000D01*
X167427424Y-108400000D01*
X167402560Y-108525000D01*
X167402560Y-109075000D01*
X167427424Y-109200000D01*
X167402560Y-109325000D01*
X167402560Y-109602560D01*
X167125000Y-109602560D01*
X167000000Y-109627424D01*
X166875000Y-109602560D01*
X166325000Y-109602560D01*
X166200000Y-109627424D01*
X166075000Y-109602560D01*
X165525000Y-109602560D01*
X165400000Y-109627424D01*
X165275000Y-109602560D01*
X164725000Y-109602560D01*
X164600000Y-109627424D01*
X164475000Y-109602560D01*
X163925000Y-109602560D01*
X163800000Y-109627424D01*
X163675000Y-109602560D01*
X163125000Y-109602560D01*
X163000000Y-109627424D01*
X162875000Y-109602560D01*
X162325000Y-109602560D01*
X162200000Y-109627424D01*
X162075000Y-109602560D01*
X161797440Y-109602560D01*
X161797440Y-109325000D01*
X161772576Y-109200000D01*
X161797440Y-109075000D01*
X161797440Y-108885000D01*
X162612839Y-108885000D01*
X162700000Y-108902337D01*
X162787161Y-108885000D01*
X162787165Y-108885000D01*
X163045310Y-108833652D01*
X163338049Y-108638049D01*
X163387425Y-108564153D01*
X163764154Y-108187424D01*
X163838049Y-108138049D01*
X164033652Y-107845310D01*
X164085000Y-107587165D01*
X164085000Y-107587161D01*
X164102337Y-107500000D01*
X164085000Y-107412839D01*
X164085000Y-106737159D01*
X164102337Y-106649999D01*
X164085000Y-106562840D01*
X164085000Y-106562835D01*
X164033652Y-106304690D01*
X163838049Y-106011951D01*
X163764153Y-105962575D01*
X163637425Y-105835847D01*
X163588049Y-105761951D01*
X163295310Y-105566348D01*
X163037165Y-105515000D01*
X163037161Y-105515000D01*
X162950000Y-105497663D01*
X162862839Y-105515000D01*
X161785000Y-105515000D01*
X161785000Y-105472998D01*
X161647774Y-105472998D01*
X161691112Y-105408138D01*
X161785000Y-105314250D01*
X161785000Y-105198690D01*
X161776783Y-105178852D01*
X161797440Y-105075000D01*
X161797440Y-104525000D01*
X161772576Y-104400000D01*
X161797440Y-104275000D01*
X161797440Y-103997440D01*
X162075000Y-103997440D01*
X162200000Y-103972576D01*
X162325000Y-103997440D01*
X162875000Y-103997440D01*
X163000000Y-103972576D01*
X163125000Y-103997440D01*
X163675000Y-103997440D01*
X163800000Y-103972576D01*
X163925000Y-103997440D01*
X164475000Y-103997440D01*
X164600000Y-103972576D01*
X164725000Y-103997440D01*
X165275000Y-103997440D01*
X165400000Y-103972576D01*
X165525000Y-103997440D01*
X166075000Y-103997440D01*
X166200000Y-103972576D01*
X166325000Y-103997440D01*
X166875000Y-103997440D01*
X167000000Y-103972576D01*
X167125000Y-103997440D01*
X167125000Y-103997440D01*
G37*
X167125000Y-103997440D02*
X167402560Y-103997440D01*
X167402560Y-104275000D01*
X167427424Y-104400000D01*
X167402560Y-104525000D01*
X167402560Y-105075000D01*
X167427424Y-105200000D01*
X167402560Y-105325000D01*
X167402560Y-105875000D01*
X167423217Y-105978852D01*
X167415000Y-105998690D01*
X167415000Y-106114250D01*
X167508888Y-106208138D01*
X167592191Y-106332809D01*
X167692749Y-106400000D01*
X167592191Y-106467191D01*
X167508888Y-106591862D01*
X167415000Y-106685750D01*
X167415000Y-106801310D01*
X167423217Y-106821148D01*
X167402560Y-106925000D01*
X167402560Y-107475000D01*
X167427424Y-107600000D01*
X167402560Y-107725000D01*
X167402560Y-108275000D01*
X167427424Y-108400000D01*
X167402560Y-108525000D01*
X167402560Y-109075000D01*
X167427424Y-109200000D01*
X167402560Y-109325000D01*
X167402560Y-109602560D01*
X167125000Y-109602560D01*
X167000000Y-109627424D01*
X166875000Y-109602560D01*
X166325000Y-109602560D01*
X166200000Y-109627424D01*
X166075000Y-109602560D01*
X165525000Y-109602560D01*
X165400000Y-109627424D01*
X165275000Y-109602560D01*
X164725000Y-109602560D01*
X164600000Y-109627424D01*
X164475000Y-109602560D01*
X163925000Y-109602560D01*
X163800000Y-109627424D01*
X163675000Y-109602560D01*
X163125000Y-109602560D01*
X163000000Y-109627424D01*
X162875000Y-109602560D01*
X162325000Y-109602560D01*
X162200000Y-109627424D01*
X162075000Y-109602560D01*
X161797440Y-109602560D01*
X161797440Y-109325000D01*
X161772576Y-109200000D01*
X161797440Y-109075000D01*
X161797440Y-108885000D01*
X162612839Y-108885000D01*
X162700000Y-108902337D01*
X162787161Y-108885000D01*
X162787165Y-108885000D01*
X163045310Y-108833652D01*
X163338049Y-108638049D01*
X163387425Y-108564153D01*
X163764154Y-108187424D01*
X163838049Y-108138049D01*
X164033652Y-107845310D01*
X164085000Y-107587165D01*
X164085000Y-107587161D01*
X164102337Y-107500000D01*
X164085000Y-107412839D01*
X164085000Y-106737159D01*
X164102337Y-106649999D01*
X164085000Y-106562840D01*
X164085000Y-106562835D01*
X164033652Y-106304690D01*
X163838049Y-106011951D01*
X163764153Y-105962575D01*
X163637425Y-105835847D01*
X163588049Y-105761951D01*
X163295310Y-105566348D01*
X163037165Y-105515000D01*
X163037161Y-105515000D01*
X162950000Y-105497663D01*
X162862839Y-105515000D01*
X161785000Y-105515000D01*
X161785000Y-105472998D01*
X161647774Y-105472998D01*
X161691112Y-105408138D01*
X161785000Y-105314250D01*
X161785000Y-105198690D01*
X161776783Y-105178852D01*
X161797440Y-105075000D01*
X161797440Y-104525000D01*
X161772576Y-104400000D01*
X161797440Y-104275000D01*
X161797440Y-103997440D01*
X162075000Y-103997440D01*
X162200000Y-103972576D01*
X162325000Y-103997440D01*
X162875000Y-103997440D01*
X163000000Y-103972576D01*
X163125000Y-103997440D01*
X163675000Y-103997440D01*
X163800000Y-103972576D01*
X163925000Y-103997440D01*
X164475000Y-103997440D01*
X164600000Y-103972576D01*
X164725000Y-103997440D01*
X165275000Y-103997440D01*
X165400000Y-103972576D01*
X165525000Y-103997440D01*
X166075000Y-103997440D01*
X166200000Y-103972576D01*
X166325000Y-103997440D01*
X166875000Y-103997440D01*
X167000000Y-103972576D01*
X167125000Y-103997440D01*
G36*
X137973294Y-107148171D02*
X101227297Y-107197828D01*
X101268036Y-89690000D01*
X105620614Y-89690000D01*
X105737032Y-90275271D01*
X106068561Y-90771439D01*
X106350762Y-90960000D01*
X106068561Y-91148561D01*
X105737032Y-91644729D01*
X105620614Y-92230000D01*
X105737032Y-92815271D01*
X106068561Y-93311439D01*
X106564729Y-93642968D01*
X107002267Y-93730000D01*
X107597733Y-93730000D01*
X108035271Y-93642968D01*
X108531439Y-93311439D01*
X108862968Y-92815271D01*
X108979386Y-92230000D01*
X108862968Y-91644729D01*
X108531439Y-91148561D01*
X108249238Y-90960000D01*
X108531439Y-90771439D01*
X108536856Y-90763331D01*
X115282273Y-90763331D01*
X115508236Y-91232663D01*
X115896604Y-91579797D01*
X116241671Y-91722716D01*
X116448000Y-91599374D01*
X116448000Y-90557000D01*
X116702000Y-90557000D01*
X116702000Y-91599374D01*
X116908329Y-91722716D01*
X117253396Y-91579797D01*
X117641764Y-91232663D01*
X117867727Y-90763331D01*
X117745206Y-90557000D01*
X116702000Y-90557000D01*
X116448000Y-90557000D01*
X115404794Y-90557000D01*
X115282273Y-90763331D01*
X108536856Y-90763331D01*
X108862968Y-90275271D01*
X108898494Y-90096669D01*
X115282273Y-90096669D01*
X115404794Y-90303000D01*
X116448000Y-90303000D01*
X116448000Y-89260626D01*
X116702000Y-89260626D01*
X116702000Y-90303000D01*
X117745206Y-90303000D01*
X117867727Y-90096669D01*
X117818779Y-89995001D01*
X123161888Y-89995001D01*
X123273261Y-90554910D01*
X123590424Y-91029578D01*
X123942759Y-91265001D01*
X123590424Y-91500424D01*
X123273261Y-91975092D01*
X123161888Y-92535001D01*
X123273261Y-93094910D01*
X123590424Y-93569578D01*
X123942759Y-93805001D01*
X123590424Y-94040424D01*
X123273261Y-94515092D01*
X123161888Y-95075001D01*
X123273261Y-95634910D01*
X123590424Y-96109578D01*
X123942759Y-96345001D01*
X123590424Y-96580424D01*
X123273261Y-97055092D01*
X123161888Y-97615001D01*
X123273261Y-98174910D01*
X123590424Y-98649578D01*
X123942759Y-98885001D01*
X123590424Y-99120424D01*
X123273261Y-99595092D01*
X123161888Y-100155001D01*
X123273261Y-100714910D01*
X123590424Y-101189578D01*
X123942759Y-101425001D01*
X123590424Y-101660424D01*
X123273261Y-102135092D01*
X123161888Y-102695001D01*
X123273261Y-103254910D01*
X123590424Y-103729578D01*
X124065092Y-104046741D01*
X124483668Y-104130001D01*
X124766334Y-104130001D01*
X125184910Y-104046741D01*
X125659578Y-103729578D01*
X125976741Y-103254910D01*
X126088114Y-102695001D01*
X125976741Y-102135092D01*
X125659578Y-101660424D01*
X125307243Y-101425001D01*
X125659578Y-101189578D01*
X125976741Y-100714910D01*
X126088114Y-100155001D01*
X125976741Y-99595092D01*
X125659578Y-99120424D01*
X125307243Y-98885001D01*
X125659578Y-98649578D01*
X125976741Y-98174910D01*
X126088114Y-97615001D01*
X125976741Y-97055092D01*
X125659578Y-96580424D01*
X125307243Y-96345001D01*
X125659578Y-96109578D01*
X125976741Y-95634910D01*
X126088114Y-95075001D01*
X125976741Y-94515092D01*
X125659578Y-94040424D01*
X125307243Y-93805001D01*
X125659578Y-93569578D01*
X125976741Y-93094910D01*
X126088114Y-92535001D01*
X125976741Y-91975092D01*
X125659578Y-91500424D01*
X125307243Y-91265001D01*
X125659578Y-91029578D01*
X125976741Y-90554910D01*
X126088114Y-89995001D01*
X125976741Y-89435092D01*
X125659578Y-88960424D01*
X125275893Y-88704054D01*
X125480135Y-88607390D01*
X125856042Y-88192424D01*
X126016905Y-87804040D01*
X125894916Y-87582001D01*
X124752001Y-87582001D01*
X124752001Y-87602001D01*
X124498001Y-87602001D01*
X124498001Y-87582001D01*
X123355086Y-87582001D01*
X123233097Y-87804040D01*
X123393960Y-88192424D01*
X123769867Y-88607390D01*
X123974109Y-88704054D01*
X123590424Y-88960424D01*
X123273261Y-89435092D01*
X123161888Y-89995001D01*
X117818779Y-89995001D01*
X117641764Y-89627337D01*
X117253396Y-89280203D01*
X116908329Y-89137284D01*
X116702000Y-89260626D01*
X116448000Y-89260626D01*
X116241671Y-89137284D01*
X115896604Y-89280203D01*
X115508236Y-89627337D01*
X115282273Y-90096669D01*
X108898494Y-90096669D01*
X108979386Y-89690000D01*
X108862968Y-89104729D01*
X108533588Y-88611777D01*
X108674698Y-88553327D01*
X108853327Y-88374699D01*
X108950000Y-88141310D01*
X108950000Y-87455001D01*
X130781888Y-87455001D01*
X130893261Y-88014910D01*
X131210424Y-88489578D01*
X131562759Y-88725001D01*
X131210424Y-88960424D01*
X130893261Y-89435092D01*
X130781888Y-89995001D01*
X130893261Y-90554910D01*
X131210424Y-91029578D01*
X131562759Y-91265001D01*
X131210424Y-91500424D01*
X130893261Y-91975092D01*
X130781888Y-92535001D01*
X130893261Y-93094910D01*
X131210424Y-93569578D01*
X131562759Y-93805001D01*
X131210424Y-94040424D01*
X130893261Y-94515092D01*
X130781888Y-95075001D01*
X130893261Y-95634910D01*
X131210424Y-96109578D01*
X131562759Y-96345001D01*
X131210424Y-96580424D01*
X130893261Y-97055092D01*
X130781888Y-97615001D01*
X130893261Y-98174910D01*
X131210424Y-98649578D01*
X131562759Y-98885001D01*
X131210424Y-99120424D01*
X130893261Y-99595092D01*
X130781888Y-100155001D01*
X130893261Y-100714910D01*
X131210424Y-101189578D01*
X131562759Y-101425001D01*
X131210424Y-101660424D01*
X130893261Y-102135092D01*
X130781888Y-102695001D01*
X130893261Y-103254910D01*
X131210424Y-103729578D01*
X131685092Y-104046741D01*
X132103668Y-104130001D01*
X132386334Y-104130001D01*
X132804910Y-104046741D01*
X133279578Y-103729578D01*
X133596741Y-103254910D01*
X133708114Y-102695001D01*
X133596741Y-102135092D01*
X133279578Y-101660424D01*
X132927243Y-101425001D01*
X133279578Y-101189578D01*
X133596741Y-100714910D01*
X133708114Y-100155001D01*
X133596741Y-99595092D01*
X133279578Y-99120424D01*
X132927243Y-98885001D01*
X133279578Y-98649578D01*
X133596741Y-98174910D01*
X133708114Y-97615001D01*
X133596741Y-97055092D01*
X133279578Y-96580424D01*
X132927243Y-96345001D01*
X133279578Y-96109578D01*
X133596741Y-95634910D01*
X133708114Y-95075001D01*
X133596741Y-94515092D01*
X133279578Y-94040424D01*
X132927243Y-93805001D01*
X133279578Y-93569578D01*
X133596741Y-93094910D01*
X133708114Y-92535001D01*
X133596741Y-91975092D01*
X133279578Y-91500424D01*
X132927243Y-91265001D01*
X133279578Y-91029578D01*
X133596741Y-90554910D01*
X133708114Y-89995001D01*
X133596741Y-89435092D01*
X133279578Y-88960424D01*
X132927243Y-88725001D01*
X133279578Y-88489578D01*
X133596741Y-88014910D01*
X133708114Y-87455001D01*
X133596741Y-86895092D01*
X133279578Y-86420424D01*
X132895893Y-86164054D01*
X133100135Y-86067390D01*
X133476042Y-85652424D01*
X133636905Y-85264040D01*
X133514916Y-85042001D01*
X132372001Y-85042001D01*
X132372001Y-85062001D01*
X132118001Y-85062001D01*
X132118001Y-85042001D01*
X130975086Y-85042001D01*
X130853097Y-85264040D01*
X131013960Y-85652424D01*
X131389867Y-86067390D01*
X131594109Y-86164054D01*
X131210424Y-86420424D01*
X130893261Y-86895092D01*
X130781888Y-87455001D01*
X108950000Y-87455001D01*
X108950000Y-87435750D01*
X108791250Y-87277000D01*
X107427000Y-87277000D01*
X107427000Y-87297000D01*
X107173000Y-87297000D01*
X107173000Y-87277000D01*
X105808750Y-87277000D01*
X105650000Y-87435750D01*
X105650000Y-88141310D01*
X105746673Y-88374699D01*
X105925302Y-88553327D01*
X106066412Y-88611777D01*
X105737032Y-89104729D01*
X105620614Y-89690000D01*
X101268036Y-89690000D01*
X101276253Y-86158690D01*
X105650000Y-86158690D01*
X105650000Y-86864250D01*
X105808750Y-87023000D01*
X107173000Y-87023000D01*
X107173000Y-85808750D01*
X107427000Y-85808750D01*
X107427000Y-87023000D01*
X108791250Y-87023000D01*
X108950000Y-86864250D01*
X108950000Y-86158690D01*
X108853327Y-85925301D01*
X108674698Y-85746673D01*
X108441309Y-85650000D01*
X107585750Y-85650000D01*
X107427000Y-85808750D01*
X107173000Y-85808750D01*
X107014250Y-85650000D01*
X106158691Y-85650000D01*
X105925302Y-85746673D01*
X105746673Y-85925301D01*
X105650000Y-86158690D01*
X101276253Y-86158690D01*
X101278752Y-85084452D01*
X115240000Y-85084452D01*
X115240000Y-85615548D01*
X115443242Y-86106217D01*
X115818783Y-86481758D01*
X116309452Y-86685000D01*
X116840548Y-86685000D01*
X117331217Y-86481758D01*
X117706758Y-86106217D01*
X117910000Y-85615548D01*
X117910000Y-85084452D01*
X117706758Y-84593783D01*
X117331217Y-84218242D01*
X116840548Y-84015000D01*
X116309452Y-84015000D01*
X115818783Y-84218242D01*
X115443242Y-84593783D01*
X115240000Y-85084452D01*
X101278752Y-85084452D01*
X101290513Y-80030213D01*
X105699392Y-80030213D01*
X105768857Y-80272397D01*
X106292302Y-80459144D01*
X106847368Y-80431362D01*
X107231143Y-80272397D01*
X107300608Y-80030213D01*
X112199392Y-80030213D01*
X112268857Y-80272397D01*
X112792302Y-80459144D01*
X113347368Y-80431362D01*
X113731143Y-80272397D01*
X113800608Y-80030213D01*
X113000000Y-79229605D01*
X112199392Y-80030213D01*
X107300608Y-80030213D01*
X106500000Y-79229605D01*
X105699392Y-80030213D01*
X101290513Y-80030213D01*
X101293278Y-78842302D01*
X105090856Y-78842302D01*
X105118638Y-79397368D01*
X105277603Y-79781143D01*
X105519787Y-79850608D01*
X106320395Y-79050000D01*
X106679605Y-79050000D01*
X107480213Y-79850608D01*
X107722397Y-79781143D01*
X107909144Y-79257698D01*
X107888353Y-78842302D01*
X111590856Y-78842302D01*
X111618638Y-79397368D01*
X111777603Y-79781143D01*
X112019787Y-79850608D01*
X112820395Y-79050000D01*
X113179605Y-79050000D01*
X113980213Y-79850608D01*
X114222397Y-79781143D01*
X114409144Y-79257698D01*
X114381362Y-78702632D01*
X114222397Y-78318857D01*
X113980213Y-78249392D01*
X113179605Y-79050000D01*
X112820395Y-79050000D01*
X112019787Y-78249392D01*
X111777603Y-78318857D01*
X111590856Y-78842302D01*
X107888353Y-78842302D01*
X107881362Y-78702632D01*
X107722397Y-78318857D01*
X107480213Y-78249392D01*
X106679605Y-79050000D01*
X106320395Y-79050000D01*
X105519787Y-78249392D01*
X105277603Y-78318857D01*
X105090856Y-78842302D01*
X101293278Y-78842302D01*
X101295075Y-78069787D01*
X105699392Y-78069787D01*
X106500000Y-78870395D01*
X107300608Y-78069787D01*
X112199392Y-78069787D01*
X113000000Y-78870395D01*
X113800608Y-78069787D01*
X113794933Y-78050000D01*
X115352560Y-78050000D01*
X115352560Y-79850000D01*
X115401843Y-80097765D01*
X115542191Y-80307809D01*
X115752235Y-80448157D01*
X116000000Y-80497440D01*
X117800000Y-80497440D01*
X118047765Y-80448157D01*
X118257809Y-80307809D01*
X118398157Y-80097765D01*
X118401275Y-80082092D01*
X118570493Y-80251310D01*
X119134670Y-80485000D01*
X119745330Y-80485000D01*
X120309507Y-80251310D01*
X120741310Y-79819507D01*
X120975000Y-79255330D01*
X120975000Y-78644670D01*
X120741310Y-78080493D01*
X120309507Y-77648690D01*
X119745330Y-77415000D01*
X119134670Y-77415000D01*
X118570493Y-77648690D01*
X118401275Y-77817908D01*
X118398157Y-77802235D01*
X118257809Y-77592191D01*
X118047765Y-77451843D01*
X117800000Y-77402560D01*
X116000000Y-77402560D01*
X115752235Y-77451843D01*
X115542191Y-77592191D01*
X115401843Y-77802235D01*
X115352560Y-78050000D01*
X113794933Y-78050000D01*
X113731143Y-77827603D01*
X113207698Y-77640856D01*
X112652632Y-77668638D01*
X112268857Y-77827603D01*
X112199392Y-78069787D01*
X107300608Y-78069787D01*
X107231143Y-77827603D01*
X106707698Y-77640856D01*
X106152632Y-77668638D01*
X105768857Y-77827603D01*
X105699392Y-78069787D01*
X101295075Y-78069787D01*
X101303912Y-74272119D01*
X105103000Y-74272119D01*
X105103000Y-74827881D01*
X105315680Y-75341337D01*
X105708663Y-75734320D01*
X106222119Y-75947000D01*
X106777881Y-75947000D01*
X107291337Y-75734320D01*
X107684320Y-75341337D01*
X107897000Y-74827881D01*
X107897000Y-74272119D01*
X111603000Y-74272119D01*
X111603000Y-74827881D01*
X111815680Y-75341337D01*
X112208663Y-75734320D01*
X112722119Y-75947000D01*
X113277881Y-75947000D01*
X113791337Y-75734320D01*
X114184320Y-75341337D01*
X114397000Y-74827881D01*
X114397000Y-74369126D01*
X114765000Y-74369126D01*
X114765000Y-74780874D01*
X114922569Y-75161280D01*
X115213720Y-75452431D01*
X115575853Y-75602431D01*
X116462577Y-76489156D01*
X116511951Y-76563049D01*
X116585844Y-76612423D01*
X116585845Y-76612424D01*
X116696880Y-76686615D01*
X116804690Y-76758652D01*
X117062835Y-76810000D01*
X117062839Y-76810000D01*
X117149999Y-76827337D01*
X117237159Y-76810000D01*
X121181993Y-76810000D01*
X121544126Y-76960000D01*
X121955874Y-76960000D01*
X122336280Y-76802431D01*
X122627431Y-76511280D01*
X122785000Y-76130874D01*
X122785000Y-75719126D01*
X122627431Y-75338720D01*
X122336280Y-75047569D01*
X121955874Y-74890000D01*
X121544126Y-74890000D01*
X121181993Y-75040000D01*
X117516579Y-75040000D01*
X116827431Y-74350853D01*
X116677431Y-73988720D01*
X116386280Y-73697569D01*
X116005874Y-73540000D01*
X115594126Y-73540000D01*
X115213720Y-73697569D01*
X114922569Y-73988720D01*
X114765000Y-74369126D01*
X114397000Y-74369126D01*
X114397000Y-74272119D01*
X114184320Y-73758663D01*
X113791337Y-73365680D01*
X113277881Y-73153000D01*
X112722119Y-73153000D01*
X112208663Y-73365680D01*
X111815680Y-73758663D01*
X111603000Y-74272119D01*
X107897000Y-74272119D01*
X107684320Y-73758663D01*
X107291337Y-73365680D01*
X106777881Y-73153000D01*
X106222119Y-73153000D01*
X105708663Y-73365680D01*
X105315680Y-73758663D01*
X105103000Y-74272119D01*
X101303912Y-74272119D01*
X101311911Y-70834452D01*
X114365000Y-70834452D01*
X114365000Y-71365548D01*
X114568242Y-71856217D01*
X114943783Y-72231758D01*
X115434452Y-72435000D01*
X115965548Y-72435000D01*
X116456217Y-72231758D01*
X116831758Y-71856217D01*
X117035000Y-71365548D01*
X117035000Y-71100000D01*
X119418846Y-71100000D01*
X119522458Y-71620891D01*
X119817519Y-72062481D01*
X120259109Y-72357542D01*
X120648515Y-72435000D01*
X120911485Y-72435000D01*
X121300891Y-72357542D01*
X121514218Y-72215001D01*
X123161888Y-72215001D01*
X123273261Y-72774910D01*
X123590424Y-73249578D01*
X123942759Y-73485001D01*
X123590424Y-73720424D01*
X123273261Y-74195092D01*
X123161888Y-74755001D01*
X123273261Y-75314910D01*
X123590424Y-75789578D01*
X123942759Y-76025001D01*
X123590424Y-76260424D01*
X123273261Y-76735092D01*
X123161888Y-77295001D01*
X123273261Y-77854910D01*
X123590424Y-78329578D01*
X123942759Y-78565001D01*
X123590424Y-78800424D01*
X123273261Y-79275092D01*
X123161888Y-79835001D01*
X123273261Y-80394910D01*
X123590424Y-80869578D01*
X123942759Y-81105001D01*
X123590424Y-81340424D01*
X123273261Y-81815092D01*
X123161888Y-82375001D01*
X123273261Y-82934910D01*
X123590424Y-83409578D01*
X123942759Y-83645001D01*
X123590424Y-83880424D01*
X123273261Y-84355092D01*
X123161888Y-84915001D01*
X123273261Y-85474910D01*
X123590424Y-85949578D01*
X123974109Y-86205948D01*
X123769867Y-86302612D01*
X123393960Y-86717578D01*
X123233097Y-87105962D01*
X123355086Y-87328001D01*
X124498001Y-87328001D01*
X124498001Y-87308001D01*
X124752001Y-87308001D01*
X124752001Y-87328001D01*
X125894916Y-87328001D01*
X126016905Y-87105962D01*
X125856042Y-86717578D01*
X125480135Y-86302612D01*
X125275893Y-86205948D01*
X125659578Y-85949578D01*
X125976741Y-85474910D01*
X126088114Y-84915001D01*
X125976741Y-84355092D01*
X125659578Y-83880424D01*
X125307243Y-83645001D01*
X125659578Y-83409578D01*
X125976741Y-82934910D01*
X126088114Y-82375001D01*
X125976741Y-81815092D01*
X125659578Y-81340424D01*
X125307243Y-81105001D01*
X125659578Y-80869578D01*
X125976741Y-80394910D01*
X126088114Y-79835001D01*
X125976741Y-79275092D01*
X125659578Y-78800424D01*
X125307243Y-78565001D01*
X125659578Y-78329578D01*
X125976741Y-77854910D01*
X126088114Y-77295001D01*
X125976741Y-76735092D01*
X125659578Y-76260424D01*
X125307243Y-76025001D01*
X125659578Y-75789578D01*
X125976741Y-75314910D01*
X126088114Y-74755001D01*
X125976741Y-74195092D01*
X125659578Y-73720424D01*
X125307243Y-73485001D01*
X125659578Y-73249578D01*
X125976741Y-72774910D01*
X126088114Y-72215001D01*
X125976741Y-71655092D01*
X125659578Y-71180424D01*
X125538895Y-71099786D01*
X125672766Y-71073158D01*
X125882810Y-70932810D01*
X126023158Y-70722766D01*
X126072441Y-70475001D01*
X126072441Y-69675001D01*
X130781888Y-69675001D01*
X130893261Y-70234910D01*
X131210424Y-70709578D01*
X131562759Y-70945001D01*
X131210424Y-71180424D01*
X130893261Y-71655092D01*
X130781888Y-72215001D01*
X130893261Y-72774910D01*
X131210424Y-73249578D01*
X131562759Y-73485001D01*
X131210424Y-73720424D01*
X130893261Y-74195092D01*
X130781888Y-74755001D01*
X130893261Y-75314910D01*
X131210424Y-75789578D01*
X131562759Y-76025001D01*
X131210424Y-76260424D01*
X130893261Y-76735092D01*
X130781888Y-77295001D01*
X130893261Y-77854910D01*
X131210424Y-78329578D01*
X131562759Y-78565001D01*
X131210424Y-78800424D01*
X130893261Y-79275092D01*
X130781888Y-79835001D01*
X130893261Y-80394910D01*
X131210424Y-80869578D01*
X131562759Y-81105001D01*
X131210424Y-81340424D01*
X130893261Y-81815092D01*
X130781888Y-82375001D01*
X130893261Y-82934910D01*
X131210424Y-83409578D01*
X131594109Y-83665948D01*
X131389867Y-83762612D01*
X131013960Y-84177578D01*
X130853097Y-84565962D01*
X130975086Y-84788001D01*
X132118001Y-84788001D01*
X132118001Y-84768001D01*
X132372001Y-84768001D01*
X132372001Y-84788001D01*
X133514916Y-84788001D01*
X133636905Y-84565962D01*
X133476042Y-84177578D01*
X133100135Y-83762612D01*
X132895893Y-83665948D01*
X133279578Y-83409578D01*
X133596741Y-82934910D01*
X133708114Y-82375001D01*
X133596741Y-81815092D01*
X133279578Y-81340424D01*
X132927243Y-81105001D01*
X133279578Y-80869578D01*
X133596741Y-80394910D01*
X133708114Y-79835001D01*
X133596741Y-79275092D01*
X133279578Y-78800424D01*
X132927243Y-78565001D01*
X133279578Y-78329578D01*
X133596741Y-77854910D01*
X133708114Y-77295001D01*
X133596741Y-76735092D01*
X133279578Y-76260424D01*
X132927243Y-76025001D01*
X133279578Y-75789578D01*
X133596741Y-75314910D01*
X133708114Y-74755001D01*
X133596741Y-74195092D01*
X133279578Y-73720424D01*
X132927243Y-73485001D01*
X133279578Y-73249578D01*
X133596741Y-72774910D01*
X133708114Y-72215001D01*
X133596741Y-71655092D01*
X133279578Y-71180424D01*
X132927243Y-70945001D01*
X133279578Y-70709578D01*
X133596741Y-70234910D01*
X133708114Y-69675001D01*
X133596741Y-69115092D01*
X133279578Y-68640424D01*
X132804910Y-68323261D01*
X132386334Y-68240001D01*
X132103668Y-68240001D01*
X131685092Y-68323261D01*
X131210424Y-68640424D01*
X130893261Y-69115092D01*
X130781888Y-69675001D01*
X126072441Y-69675001D01*
X126072441Y-68875001D01*
X126023158Y-68627236D01*
X125882810Y-68417192D01*
X125672766Y-68276844D01*
X125425001Y-68227561D01*
X123825001Y-68227561D01*
X123577236Y-68276844D01*
X123367192Y-68417192D01*
X123226844Y-68627236D01*
X123177561Y-68875001D01*
X123177561Y-70475001D01*
X123226844Y-70722766D01*
X123367192Y-70932810D01*
X123577236Y-71073158D01*
X123711107Y-71099786D01*
X123590424Y-71180424D01*
X123273261Y-71655092D01*
X123161888Y-72215001D01*
X121514218Y-72215001D01*
X121742481Y-72062481D01*
X122037542Y-71620891D01*
X122141154Y-71100000D01*
X122037542Y-70579109D01*
X121742481Y-70137519D01*
X121300891Y-69842458D01*
X120911485Y-69765000D01*
X120648515Y-69765000D01*
X120259109Y-69842458D01*
X119817519Y-70137519D01*
X119522458Y-70579109D01*
X119418846Y-71100000D01*
X117035000Y-71100000D01*
X117035000Y-70834452D01*
X116831758Y-70343783D01*
X116456217Y-69968242D01*
X115965548Y-69765000D01*
X115434452Y-69765000D01*
X114943783Y-69968242D01*
X114568242Y-70343783D01*
X114365000Y-70834452D01*
X101311911Y-70834452D01*
X101326706Y-64476829D01*
X138072703Y-64427172D01*
X137973294Y-107148171D01*
X137973294Y-107148171D01*
G37*
X137973294Y-107148171D02*
X101227297Y-107197828D01*
X101268036Y-89690000D01*
X105620614Y-89690000D01*
X105737032Y-90275271D01*
X106068561Y-90771439D01*
X106350762Y-90960000D01*
X106068561Y-91148561D01*
X105737032Y-91644729D01*
X105620614Y-92230000D01*
X105737032Y-92815271D01*
X106068561Y-93311439D01*
X106564729Y-93642968D01*
X107002267Y-93730000D01*
X107597733Y-93730000D01*
X108035271Y-93642968D01*
X108531439Y-93311439D01*
X108862968Y-92815271D01*
X108979386Y-92230000D01*
X108862968Y-91644729D01*
X108531439Y-91148561D01*
X108249238Y-90960000D01*
X108531439Y-90771439D01*
X108536856Y-90763331D01*
X115282273Y-90763331D01*
X115508236Y-91232663D01*
X115896604Y-91579797D01*
X116241671Y-91722716D01*
X116448000Y-91599374D01*
X116448000Y-90557000D01*
X116702000Y-90557000D01*
X116702000Y-91599374D01*
X116908329Y-91722716D01*
X117253396Y-91579797D01*
X117641764Y-91232663D01*
X117867727Y-90763331D01*
X117745206Y-90557000D01*
X116702000Y-90557000D01*
X116448000Y-90557000D01*
X115404794Y-90557000D01*
X115282273Y-90763331D01*
X108536856Y-90763331D01*
X108862968Y-90275271D01*
X108898494Y-90096669D01*
X115282273Y-90096669D01*
X115404794Y-90303000D01*
X116448000Y-90303000D01*
X116448000Y-89260626D01*
X116702000Y-89260626D01*
X116702000Y-90303000D01*
X117745206Y-90303000D01*
X117867727Y-90096669D01*
X117818779Y-89995001D01*
X123161888Y-89995001D01*
X123273261Y-90554910D01*
X123590424Y-91029578D01*
X123942759Y-91265001D01*
X123590424Y-91500424D01*
X123273261Y-91975092D01*
X123161888Y-92535001D01*
X123273261Y-93094910D01*
X123590424Y-93569578D01*
X123942759Y-93805001D01*
X123590424Y-94040424D01*
X123273261Y-94515092D01*
X123161888Y-95075001D01*
X123273261Y-95634910D01*
X123590424Y-96109578D01*
X123942759Y-96345001D01*
X123590424Y-96580424D01*
X123273261Y-97055092D01*
X123161888Y-97615001D01*
X123273261Y-98174910D01*
X123590424Y-98649578D01*
X123942759Y-98885001D01*
X123590424Y-99120424D01*
X123273261Y-99595092D01*
X123161888Y-100155001D01*
X123273261Y-100714910D01*
X123590424Y-101189578D01*
X123942759Y-101425001D01*
X123590424Y-101660424D01*
X123273261Y-102135092D01*
X123161888Y-102695001D01*
X123273261Y-103254910D01*
X123590424Y-103729578D01*
X124065092Y-104046741D01*
X124483668Y-104130001D01*
X124766334Y-104130001D01*
X125184910Y-104046741D01*
X125659578Y-103729578D01*
X125976741Y-103254910D01*
X126088114Y-102695001D01*
X125976741Y-102135092D01*
X125659578Y-101660424D01*
X125307243Y-101425001D01*
X125659578Y-101189578D01*
X125976741Y-100714910D01*
X126088114Y-100155001D01*
X125976741Y-99595092D01*
X125659578Y-99120424D01*
X125307243Y-98885001D01*
X125659578Y-98649578D01*
X125976741Y-98174910D01*
X126088114Y-97615001D01*
X125976741Y-97055092D01*
X125659578Y-96580424D01*
X125307243Y-96345001D01*
X125659578Y-96109578D01*
X125976741Y-95634910D01*
X126088114Y-95075001D01*
X125976741Y-94515092D01*
X125659578Y-94040424D01*
X125307243Y-93805001D01*
X125659578Y-93569578D01*
X125976741Y-93094910D01*
X126088114Y-92535001D01*
X125976741Y-91975092D01*
X125659578Y-91500424D01*
X125307243Y-91265001D01*
X125659578Y-91029578D01*
X125976741Y-90554910D01*
X126088114Y-89995001D01*
X125976741Y-89435092D01*
X125659578Y-88960424D01*
X125275893Y-88704054D01*
X125480135Y-88607390D01*
X125856042Y-88192424D01*
X126016905Y-87804040D01*
X125894916Y-87582001D01*
X124752001Y-87582001D01*
X124752001Y-87602001D01*
X124498001Y-87602001D01*
X124498001Y-87582001D01*
X123355086Y-87582001D01*
X123233097Y-87804040D01*
X123393960Y-88192424D01*
X123769867Y-88607390D01*
X123974109Y-88704054D01*
X123590424Y-88960424D01*
X123273261Y-89435092D01*
X123161888Y-89995001D01*
X117818779Y-89995001D01*
X117641764Y-89627337D01*
X117253396Y-89280203D01*
X116908329Y-89137284D01*
X116702000Y-89260626D01*
X116448000Y-89260626D01*
X116241671Y-89137284D01*
X115896604Y-89280203D01*
X115508236Y-89627337D01*
X115282273Y-90096669D01*
X108898494Y-90096669D01*
X108979386Y-89690000D01*
X108862968Y-89104729D01*
X108533588Y-88611777D01*
X108674698Y-88553327D01*
X108853327Y-88374699D01*
X108950000Y-88141310D01*
X108950000Y-87455001D01*
X130781888Y-87455001D01*
X130893261Y-88014910D01*
X131210424Y-88489578D01*
X131562759Y-88725001D01*
X131210424Y-88960424D01*
X130893261Y-89435092D01*
X130781888Y-89995001D01*
X130893261Y-90554910D01*
X131210424Y-91029578D01*
X131562759Y-91265001D01*
X131210424Y-91500424D01*
X130893261Y-91975092D01*
X130781888Y-92535001D01*
X130893261Y-93094910D01*
X131210424Y-93569578D01*
X131562759Y-93805001D01*
X131210424Y-94040424D01*
X130893261Y-94515092D01*
X130781888Y-95075001D01*
X130893261Y-95634910D01*
X131210424Y-96109578D01*
X131562759Y-96345001D01*
X131210424Y-96580424D01*
X130893261Y-97055092D01*
X130781888Y-97615001D01*
X130893261Y-98174910D01*
X131210424Y-98649578D01*
X131562759Y-98885001D01*
X131210424Y-99120424D01*
X130893261Y-99595092D01*
X130781888Y-100155001D01*
X130893261Y-100714910D01*
X131210424Y-101189578D01*
X131562759Y-101425001D01*
X131210424Y-101660424D01*
X130893261Y-102135092D01*
X130781888Y-102695001D01*
X130893261Y-103254910D01*
X131210424Y-103729578D01*
X131685092Y-104046741D01*
X132103668Y-104130001D01*
X132386334Y-104130001D01*
X132804910Y-104046741D01*
X133279578Y-103729578D01*
X133596741Y-103254910D01*
X133708114Y-102695001D01*
X133596741Y-102135092D01*
X133279578Y-101660424D01*
X132927243Y-101425001D01*
X133279578Y-101189578D01*
X133596741Y-100714910D01*
X133708114Y-100155001D01*
X133596741Y-99595092D01*
X133279578Y-99120424D01*
X132927243Y-98885001D01*
X133279578Y-98649578D01*
X133596741Y-98174910D01*
X133708114Y-97615001D01*
X133596741Y-97055092D01*
X133279578Y-96580424D01*
X132927243Y-96345001D01*
X133279578Y-96109578D01*
X133596741Y-95634910D01*
X133708114Y-95075001D01*
X133596741Y-94515092D01*
X133279578Y-94040424D01*
X132927243Y-93805001D01*
X133279578Y-93569578D01*
X133596741Y-93094910D01*
X133708114Y-92535001D01*
X133596741Y-91975092D01*
X133279578Y-91500424D01*
X132927243Y-91265001D01*
X133279578Y-91029578D01*
X133596741Y-90554910D01*
X133708114Y-89995001D01*
X133596741Y-89435092D01*
X133279578Y-88960424D01*
X132927243Y-88725001D01*
X133279578Y-88489578D01*
X133596741Y-88014910D01*
X133708114Y-87455001D01*
X133596741Y-86895092D01*
X133279578Y-86420424D01*
X132895893Y-86164054D01*
X133100135Y-86067390D01*
X133476042Y-85652424D01*
X133636905Y-85264040D01*
X133514916Y-85042001D01*
X132372001Y-85042001D01*
X132372001Y-85062001D01*
X132118001Y-85062001D01*
X132118001Y-85042001D01*
X130975086Y-85042001D01*
X130853097Y-85264040D01*
X131013960Y-85652424D01*
X131389867Y-86067390D01*
X131594109Y-86164054D01*
X131210424Y-86420424D01*
X130893261Y-86895092D01*
X130781888Y-87455001D01*
X108950000Y-87455001D01*
X108950000Y-87435750D01*
X108791250Y-87277000D01*
X107427000Y-87277000D01*
X107427000Y-87297000D01*
X107173000Y-87297000D01*
X107173000Y-87277000D01*
X105808750Y-87277000D01*
X105650000Y-87435750D01*
X105650000Y-88141310D01*
X105746673Y-88374699D01*
X105925302Y-88553327D01*
X106066412Y-88611777D01*
X105737032Y-89104729D01*
X105620614Y-89690000D01*
X101268036Y-89690000D01*
X101276253Y-86158690D01*
X105650000Y-86158690D01*
X105650000Y-86864250D01*
X105808750Y-87023000D01*
X107173000Y-87023000D01*
X107173000Y-85808750D01*
X107427000Y-85808750D01*
X107427000Y-87023000D01*
X108791250Y-87023000D01*
X108950000Y-86864250D01*
X108950000Y-86158690D01*
X108853327Y-85925301D01*
X108674698Y-85746673D01*
X108441309Y-85650000D01*
X107585750Y-85650000D01*
X107427000Y-85808750D01*
X107173000Y-85808750D01*
X107014250Y-85650000D01*
X106158691Y-85650000D01*
X105925302Y-85746673D01*
X105746673Y-85925301D01*
X105650000Y-86158690D01*
X101276253Y-86158690D01*
X101278752Y-85084452D01*
X115240000Y-85084452D01*
X115240000Y-85615548D01*
X115443242Y-86106217D01*
X115818783Y-86481758D01*
X116309452Y-86685000D01*
X116840548Y-86685000D01*
X117331217Y-86481758D01*
X117706758Y-86106217D01*
X117910000Y-85615548D01*
X117910000Y-85084452D01*
X117706758Y-84593783D01*
X117331217Y-84218242D01*
X116840548Y-84015000D01*
X116309452Y-84015000D01*
X115818783Y-84218242D01*
X115443242Y-84593783D01*
X115240000Y-85084452D01*
X101278752Y-85084452D01*
X101290513Y-80030213D01*
X105699392Y-80030213D01*
X105768857Y-80272397D01*
X106292302Y-80459144D01*
X106847368Y-80431362D01*
X107231143Y-80272397D01*
X107300608Y-80030213D01*
X112199392Y-80030213D01*
X112268857Y-80272397D01*
X112792302Y-80459144D01*
X113347368Y-80431362D01*
X113731143Y-80272397D01*
X113800608Y-80030213D01*
X113000000Y-79229605D01*
X112199392Y-80030213D01*
X107300608Y-80030213D01*
X106500000Y-79229605D01*
X105699392Y-80030213D01*
X101290513Y-80030213D01*
X101293278Y-78842302D01*
X105090856Y-78842302D01*
X105118638Y-79397368D01*
X105277603Y-79781143D01*
X105519787Y-79850608D01*
X106320395Y-79050000D01*
X106679605Y-79050000D01*
X107480213Y-79850608D01*
X107722397Y-79781143D01*
X107909144Y-79257698D01*
X107888353Y-78842302D01*
X111590856Y-78842302D01*
X111618638Y-79397368D01*
X111777603Y-79781143D01*
X112019787Y-79850608D01*
X112820395Y-79050000D01*
X113179605Y-79050000D01*
X113980213Y-79850608D01*
X114222397Y-79781143D01*
X114409144Y-79257698D01*
X114381362Y-78702632D01*
X114222397Y-78318857D01*
X113980213Y-78249392D01*
X113179605Y-79050000D01*
X112820395Y-79050000D01*
X112019787Y-78249392D01*
X111777603Y-78318857D01*
X111590856Y-78842302D01*
X107888353Y-78842302D01*
X107881362Y-78702632D01*
X107722397Y-78318857D01*
X107480213Y-78249392D01*
X106679605Y-79050000D01*
X106320395Y-79050000D01*
X105519787Y-78249392D01*
X105277603Y-78318857D01*
X105090856Y-78842302D01*
X101293278Y-78842302D01*
X101295075Y-78069787D01*
X105699392Y-78069787D01*
X106500000Y-78870395D01*
X107300608Y-78069787D01*
X112199392Y-78069787D01*
X113000000Y-78870395D01*
X113800608Y-78069787D01*
X113794933Y-78050000D01*
X115352560Y-78050000D01*
X115352560Y-79850000D01*
X115401843Y-80097765D01*
X115542191Y-80307809D01*
X115752235Y-80448157D01*
X116000000Y-80497440D01*
X117800000Y-80497440D01*
X118047765Y-80448157D01*
X118257809Y-80307809D01*
X118398157Y-80097765D01*
X118401275Y-80082092D01*
X118570493Y-80251310D01*
X119134670Y-80485000D01*
X119745330Y-80485000D01*
X120309507Y-80251310D01*
X120741310Y-79819507D01*
X120975000Y-79255330D01*
X120975000Y-78644670D01*
X120741310Y-78080493D01*
X120309507Y-77648690D01*
X119745330Y-77415000D01*
X119134670Y-77415000D01*
X118570493Y-77648690D01*
X118401275Y-77817908D01*
X118398157Y-77802235D01*
X118257809Y-77592191D01*
X118047765Y-77451843D01*
X117800000Y-77402560D01*
X116000000Y-77402560D01*
X115752235Y-77451843D01*
X115542191Y-77592191D01*
X115401843Y-77802235D01*
X115352560Y-78050000D01*
X113794933Y-78050000D01*
X113731143Y-77827603D01*
X113207698Y-77640856D01*
X112652632Y-77668638D01*
X112268857Y-77827603D01*
X112199392Y-78069787D01*
X107300608Y-78069787D01*
X107231143Y-77827603D01*
X106707698Y-77640856D01*
X106152632Y-77668638D01*
X105768857Y-77827603D01*
X105699392Y-78069787D01*
X101295075Y-78069787D01*
X101303912Y-74272119D01*
X105103000Y-74272119D01*
X105103000Y-74827881D01*
X105315680Y-75341337D01*
X105708663Y-75734320D01*
X106222119Y-75947000D01*
X106777881Y-75947000D01*
X107291337Y-75734320D01*
X107684320Y-75341337D01*
X107897000Y-74827881D01*
X107897000Y-74272119D01*
X111603000Y-74272119D01*
X111603000Y-74827881D01*
X111815680Y-75341337D01*
X112208663Y-75734320D01*
X112722119Y-75947000D01*
X113277881Y-75947000D01*
X113791337Y-75734320D01*
X114184320Y-75341337D01*
X114397000Y-74827881D01*
X114397000Y-74369126D01*
X114765000Y-74369126D01*
X114765000Y-74780874D01*
X114922569Y-75161280D01*
X115213720Y-75452431D01*
X115575853Y-75602431D01*
X116462577Y-76489156D01*
X116511951Y-76563049D01*
X116585844Y-76612423D01*
X116585845Y-76612424D01*
X116696880Y-76686615D01*
X116804690Y-76758652D01*
X117062835Y-76810000D01*
X117062839Y-76810000D01*
X117149999Y-76827337D01*
X117237159Y-76810000D01*
X121181993Y-76810000D01*
X121544126Y-76960000D01*
X121955874Y-76960000D01*
X122336280Y-76802431D01*
X122627431Y-76511280D01*
X122785000Y-76130874D01*
X122785000Y-75719126D01*
X122627431Y-75338720D01*
X122336280Y-75047569D01*
X121955874Y-74890000D01*
X121544126Y-74890000D01*
X121181993Y-75040000D01*
X117516579Y-75040000D01*
X116827431Y-74350853D01*
X116677431Y-73988720D01*
X116386280Y-73697569D01*
X116005874Y-73540000D01*
X115594126Y-73540000D01*
X115213720Y-73697569D01*
X114922569Y-73988720D01*
X114765000Y-74369126D01*
X114397000Y-74369126D01*
X114397000Y-74272119D01*
X114184320Y-73758663D01*
X113791337Y-73365680D01*
X113277881Y-73153000D01*
X112722119Y-73153000D01*
X112208663Y-73365680D01*
X111815680Y-73758663D01*
X111603000Y-74272119D01*
X107897000Y-74272119D01*
X107684320Y-73758663D01*
X107291337Y-73365680D01*
X106777881Y-73153000D01*
X106222119Y-73153000D01*
X105708663Y-73365680D01*
X105315680Y-73758663D01*
X105103000Y-74272119D01*
X101303912Y-74272119D01*
X101311911Y-70834452D01*
X114365000Y-70834452D01*
X114365000Y-71365548D01*
X114568242Y-71856217D01*
X114943783Y-72231758D01*
X115434452Y-72435000D01*
X115965548Y-72435000D01*
X116456217Y-72231758D01*
X116831758Y-71856217D01*
X117035000Y-71365548D01*
X117035000Y-71100000D01*
X119418846Y-71100000D01*
X119522458Y-71620891D01*
X119817519Y-72062481D01*
X120259109Y-72357542D01*
X120648515Y-72435000D01*
X120911485Y-72435000D01*
X121300891Y-72357542D01*
X121514218Y-72215001D01*
X123161888Y-72215001D01*
X123273261Y-72774910D01*
X123590424Y-73249578D01*
X123942759Y-73485001D01*
X123590424Y-73720424D01*
X123273261Y-74195092D01*
X123161888Y-74755001D01*
X123273261Y-75314910D01*
X123590424Y-75789578D01*
X123942759Y-76025001D01*
X123590424Y-76260424D01*
X123273261Y-76735092D01*
X123161888Y-77295001D01*
X123273261Y-77854910D01*
X123590424Y-78329578D01*
X123942759Y-78565001D01*
X123590424Y-78800424D01*
X123273261Y-79275092D01*
X123161888Y-79835001D01*
X123273261Y-80394910D01*
X123590424Y-80869578D01*
X123942759Y-81105001D01*
X123590424Y-81340424D01*
X123273261Y-81815092D01*
X123161888Y-82375001D01*
X123273261Y-82934910D01*
X123590424Y-83409578D01*
X123942759Y-83645001D01*
X123590424Y-83880424D01*
X123273261Y-84355092D01*
X123161888Y-84915001D01*
X123273261Y-85474910D01*
X123590424Y-85949578D01*
X123974109Y-86205948D01*
X123769867Y-86302612D01*
X123393960Y-86717578D01*
X123233097Y-87105962D01*
X123355086Y-87328001D01*
X124498001Y-87328001D01*
X124498001Y-87308001D01*
X124752001Y-87308001D01*
X124752001Y-87328001D01*
X125894916Y-87328001D01*
X126016905Y-87105962D01*
X125856042Y-86717578D01*
X125480135Y-86302612D01*
X125275893Y-86205948D01*
X125659578Y-85949578D01*
X125976741Y-85474910D01*
X126088114Y-84915001D01*
X125976741Y-84355092D01*
X125659578Y-83880424D01*
X125307243Y-83645001D01*
X125659578Y-83409578D01*
X125976741Y-82934910D01*
X126088114Y-82375001D01*
X125976741Y-81815092D01*
X125659578Y-81340424D01*
X125307243Y-81105001D01*
X125659578Y-80869578D01*
X125976741Y-80394910D01*
X126088114Y-79835001D01*
X125976741Y-79275092D01*
X125659578Y-78800424D01*
X125307243Y-78565001D01*
X125659578Y-78329578D01*
X125976741Y-77854910D01*
X126088114Y-77295001D01*
X125976741Y-76735092D01*
X125659578Y-76260424D01*
X125307243Y-76025001D01*
X125659578Y-75789578D01*
X125976741Y-75314910D01*
X126088114Y-74755001D01*
X125976741Y-74195092D01*
X125659578Y-73720424D01*
X125307243Y-73485001D01*
X125659578Y-73249578D01*
X125976741Y-72774910D01*
X126088114Y-72215001D01*
X125976741Y-71655092D01*
X125659578Y-71180424D01*
X125538895Y-71099786D01*
X125672766Y-71073158D01*
X125882810Y-70932810D01*
X126023158Y-70722766D01*
X126072441Y-70475001D01*
X126072441Y-69675001D01*
X130781888Y-69675001D01*
X130893261Y-70234910D01*
X131210424Y-70709578D01*
X131562759Y-70945001D01*
X131210424Y-71180424D01*
X130893261Y-71655092D01*
X130781888Y-72215001D01*
X130893261Y-72774910D01*
X131210424Y-73249578D01*
X131562759Y-73485001D01*
X131210424Y-73720424D01*
X130893261Y-74195092D01*
X130781888Y-74755001D01*
X130893261Y-75314910D01*
X131210424Y-75789578D01*
X131562759Y-76025001D01*
X131210424Y-76260424D01*
X130893261Y-76735092D01*
X130781888Y-77295001D01*
X130893261Y-77854910D01*
X131210424Y-78329578D01*
X131562759Y-78565001D01*
X131210424Y-78800424D01*
X130893261Y-79275092D01*
X130781888Y-79835001D01*
X130893261Y-80394910D01*
X131210424Y-80869578D01*
X131562759Y-81105001D01*
X131210424Y-81340424D01*
X130893261Y-81815092D01*
X130781888Y-82375001D01*
X130893261Y-82934910D01*
X131210424Y-83409578D01*
X131594109Y-83665948D01*
X131389867Y-83762612D01*
X131013960Y-84177578D01*
X130853097Y-84565962D01*
X130975086Y-84788001D01*
X132118001Y-84788001D01*
X132118001Y-84768001D01*
X132372001Y-84768001D01*
X132372001Y-84788001D01*
X133514916Y-84788001D01*
X133636905Y-84565962D01*
X133476042Y-84177578D01*
X133100135Y-83762612D01*
X132895893Y-83665948D01*
X133279578Y-83409578D01*
X133596741Y-82934910D01*
X133708114Y-82375001D01*
X133596741Y-81815092D01*
X133279578Y-81340424D01*
X132927243Y-81105001D01*
X133279578Y-80869578D01*
X133596741Y-80394910D01*
X133708114Y-79835001D01*
X133596741Y-79275092D01*
X133279578Y-78800424D01*
X132927243Y-78565001D01*
X133279578Y-78329578D01*
X133596741Y-77854910D01*
X133708114Y-77295001D01*
X133596741Y-76735092D01*
X133279578Y-76260424D01*
X132927243Y-76025001D01*
X133279578Y-75789578D01*
X133596741Y-75314910D01*
X133708114Y-74755001D01*
X133596741Y-74195092D01*
X133279578Y-73720424D01*
X132927243Y-73485001D01*
X133279578Y-73249578D01*
X133596741Y-72774910D01*
X133708114Y-72215001D01*
X133596741Y-71655092D01*
X133279578Y-71180424D01*
X132927243Y-70945001D01*
X133279578Y-70709578D01*
X133596741Y-70234910D01*
X133708114Y-69675001D01*
X133596741Y-69115092D01*
X133279578Y-68640424D01*
X132804910Y-68323261D01*
X132386334Y-68240001D01*
X132103668Y-68240001D01*
X131685092Y-68323261D01*
X131210424Y-68640424D01*
X130893261Y-69115092D01*
X130781888Y-69675001D01*
X126072441Y-69675001D01*
X126072441Y-68875001D01*
X126023158Y-68627236D01*
X125882810Y-68417192D01*
X125672766Y-68276844D01*
X125425001Y-68227561D01*
X123825001Y-68227561D01*
X123577236Y-68276844D01*
X123367192Y-68417192D01*
X123226844Y-68627236D01*
X123177561Y-68875001D01*
X123177561Y-70475001D01*
X123226844Y-70722766D01*
X123367192Y-70932810D01*
X123577236Y-71073158D01*
X123711107Y-71099786D01*
X123590424Y-71180424D01*
X123273261Y-71655092D01*
X123161888Y-72215001D01*
X121514218Y-72215001D01*
X121742481Y-72062481D01*
X122037542Y-71620891D01*
X122141154Y-71100000D01*
X122037542Y-70579109D01*
X121742481Y-70137519D01*
X121300891Y-69842458D01*
X120911485Y-69765000D01*
X120648515Y-69765000D01*
X120259109Y-69842458D01*
X119817519Y-70137519D01*
X119522458Y-70579109D01*
X119418846Y-71100000D01*
X117035000Y-71100000D01*
X117035000Y-70834452D01*
X116831758Y-70343783D01*
X116456217Y-69968242D01*
X115965548Y-69765000D01*
X115434452Y-69765000D01*
X114943783Y-69968242D01*
X114568242Y-70343783D01*
X114365000Y-70834452D01*
X101311911Y-70834452D01*
X101326706Y-64476829D01*
X138072703Y-64427172D01*
X137973294Y-107148171D01*
M02*
