%TF.GenerationSoftware,KiCad,Pcbnew,(5.0.0)*%
%TF.CreationDate,2018-10-04T13:43:41-06:00*%
%TF.ProjectId,contador,636F6E7461646F722E6B696361645F70,rev?*%
%TF.SameCoordinates,Original*%
%TF.FileFunction,Paste,Top*%
%TF.FilePolarity,Positive*%
%FSLAX46Y46*%
G04 Gerber Fmt 4.6, Leading zero omitted, Abs format (unit mm)*
G04 Created by KiCad (PCBNEW (5.0.0)) date 10/04/18 13:43:41*
%MOMM*%
%LPD*%
G01*
G04 APERTURE LIST*
%ADD10C,0.150000*%
%ADD11C,0.975000*%
%ADD12R,1.600000X0.550000*%
%ADD13R,0.550000X1.600000*%
G04 APERTURE END LIST*
D10*
G36*
X171542642Y-118501174D02*
X171566303Y-118504684D01*
X171589507Y-118510496D01*
X171612029Y-118518554D01*
X171633653Y-118528782D01*
X171654170Y-118541079D01*
X171673383Y-118555329D01*
X171691107Y-118571393D01*
X171707171Y-118589117D01*
X171721421Y-118608330D01*
X171733718Y-118628847D01*
X171743946Y-118650471D01*
X171752004Y-118672993D01*
X171757816Y-118696197D01*
X171761326Y-118719858D01*
X171762500Y-118743750D01*
X171762500Y-119656250D01*
X171761326Y-119680142D01*
X171757816Y-119703803D01*
X171752004Y-119727007D01*
X171743946Y-119749529D01*
X171733718Y-119771153D01*
X171721421Y-119791670D01*
X171707171Y-119810883D01*
X171691107Y-119828607D01*
X171673383Y-119844671D01*
X171654170Y-119858921D01*
X171633653Y-119871218D01*
X171612029Y-119881446D01*
X171589507Y-119889504D01*
X171566303Y-119895316D01*
X171542642Y-119898826D01*
X171518750Y-119900000D01*
X171031250Y-119900000D01*
X171007358Y-119898826D01*
X170983697Y-119895316D01*
X170960493Y-119889504D01*
X170937971Y-119881446D01*
X170916347Y-119871218D01*
X170895830Y-119858921D01*
X170876617Y-119844671D01*
X170858893Y-119828607D01*
X170842829Y-119810883D01*
X170828579Y-119791670D01*
X170816282Y-119771153D01*
X170806054Y-119749529D01*
X170797996Y-119727007D01*
X170792184Y-119703803D01*
X170788674Y-119680142D01*
X170787500Y-119656250D01*
X170787500Y-118743750D01*
X170788674Y-118719858D01*
X170792184Y-118696197D01*
X170797996Y-118672993D01*
X170806054Y-118650471D01*
X170816282Y-118628847D01*
X170828579Y-118608330D01*
X170842829Y-118589117D01*
X170858893Y-118571393D01*
X170876617Y-118555329D01*
X170895830Y-118541079D01*
X170916347Y-118528782D01*
X170937971Y-118518554D01*
X170960493Y-118510496D01*
X170983697Y-118504684D01*
X171007358Y-118501174D01*
X171031250Y-118500000D01*
X171518750Y-118500000D01*
X171542642Y-118501174D01*
X171542642Y-118501174D01*
G37*
D11*
X171275000Y-119200000D03*
D10*
G36*
X169667642Y-118501174D02*
X169691303Y-118504684D01*
X169714507Y-118510496D01*
X169737029Y-118518554D01*
X169758653Y-118528782D01*
X169779170Y-118541079D01*
X169798383Y-118555329D01*
X169816107Y-118571393D01*
X169832171Y-118589117D01*
X169846421Y-118608330D01*
X169858718Y-118628847D01*
X169868946Y-118650471D01*
X169877004Y-118672993D01*
X169882816Y-118696197D01*
X169886326Y-118719858D01*
X169887500Y-118743750D01*
X169887500Y-119656250D01*
X169886326Y-119680142D01*
X169882816Y-119703803D01*
X169877004Y-119727007D01*
X169868946Y-119749529D01*
X169858718Y-119771153D01*
X169846421Y-119791670D01*
X169832171Y-119810883D01*
X169816107Y-119828607D01*
X169798383Y-119844671D01*
X169779170Y-119858921D01*
X169758653Y-119871218D01*
X169737029Y-119881446D01*
X169714507Y-119889504D01*
X169691303Y-119895316D01*
X169667642Y-119898826D01*
X169643750Y-119900000D01*
X169156250Y-119900000D01*
X169132358Y-119898826D01*
X169108697Y-119895316D01*
X169085493Y-119889504D01*
X169062971Y-119881446D01*
X169041347Y-119871218D01*
X169020830Y-119858921D01*
X169001617Y-119844671D01*
X168983893Y-119828607D01*
X168967829Y-119810883D01*
X168953579Y-119791670D01*
X168941282Y-119771153D01*
X168931054Y-119749529D01*
X168922996Y-119727007D01*
X168917184Y-119703803D01*
X168913674Y-119680142D01*
X168912500Y-119656250D01*
X168912500Y-118743750D01*
X168913674Y-118719858D01*
X168917184Y-118696197D01*
X168922996Y-118672993D01*
X168931054Y-118650471D01*
X168941282Y-118628847D01*
X168953579Y-118608330D01*
X168967829Y-118589117D01*
X168983893Y-118571393D01*
X169001617Y-118555329D01*
X169020830Y-118541079D01*
X169041347Y-118528782D01*
X169062971Y-118518554D01*
X169085493Y-118510496D01*
X169108697Y-118504684D01*
X169132358Y-118501174D01*
X169156250Y-118500000D01*
X169643750Y-118500000D01*
X169667642Y-118501174D01*
X169667642Y-118501174D01*
G37*
D11*
X169400000Y-119200000D03*
D10*
G36*
X165005142Y-118801174D02*
X165028803Y-118804684D01*
X165052007Y-118810496D01*
X165074529Y-118818554D01*
X165096153Y-118828782D01*
X165116670Y-118841079D01*
X165135883Y-118855329D01*
X165153607Y-118871393D01*
X165169671Y-118889117D01*
X165183921Y-118908330D01*
X165196218Y-118928847D01*
X165206446Y-118950471D01*
X165214504Y-118972993D01*
X165220316Y-118996197D01*
X165223826Y-119019858D01*
X165225000Y-119043750D01*
X165225000Y-119956250D01*
X165223826Y-119980142D01*
X165220316Y-120003803D01*
X165214504Y-120027007D01*
X165206446Y-120049529D01*
X165196218Y-120071153D01*
X165183921Y-120091670D01*
X165169671Y-120110883D01*
X165153607Y-120128607D01*
X165135883Y-120144671D01*
X165116670Y-120158921D01*
X165096153Y-120171218D01*
X165074529Y-120181446D01*
X165052007Y-120189504D01*
X165028803Y-120195316D01*
X165005142Y-120198826D01*
X164981250Y-120200000D01*
X164493750Y-120200000D01*
X164469858Y-120198826D01*
X164446197Y-120195316D01*
X164422993Y-120189504D01*
X164400471Y-120181446D01*
X164378847Y-120171218D01*
X164358330Y-120158921D01*
X164339117Y-120144671D01*
X164321393Y-120128607D01*
X164305329Y-120110883D01*
X164291079Y-120091670D01*
X164278782Y-120071153D01*
X164268554Y-120049529D01*
X164260496Y-120027007D01*
X164254684Y-120003803D01*
X164251174Y-119980142D01*
X164250000Y-119956250D01*
X164250000Y-119043750D01*
X164251174Y-119019858D01*
X164254684Y-118996197D01*
X164260496Y-118972993D01*
X164268554Y-118950471D01*
X164278782Y-118928847D01*
X164291079Y-118908330D01*
X164305329Y-118889117D01*
X164321393Y-118871393D01*
X164339117Y-118855329D01*
X164358330Y-118841079D01*
X164378847Y-118828782D01*
X164400471Y-118818554D01*
X164422993Y-118810496D01*
X164446197Y-118804684D01*
X164469858Y-118801174D01*
X164493750Y-118800000D01*
X164981250Y-118800000D01*
X165005142Y-118801174D01*
X165005142Y-118801174D01*
G37*
D11*
X164737500Y-119500000D03*
D10*
G36*
X163130142Y-118801174D02*
X163153803Y-118804684D01*
X163177007Y-118810496D01*
X163199529Y-118818554D01*
X163221153Y-118828782D01*
X163241670Y-118841079D01*
X163260883Y-118855329D01*
X163278607Y-118871393D01*
X163294671Y-118889117D01*
X163308921Y-118908330D01*
X163321218Y-118928847D01*
X163331446Y-118950471D01*
X163339504Y-118972993D01*
X163345316Y-118996197D01*
X163348826Y-119019858D01*
X163350000Y-119043750D01*
X163350000Y-119956250D01*
X163348826Y-119980142D01*
X163345316Y-120003803D01*
X163339504Y-120027007D01*
X163331446Y-120049529D01*
X163321218Y-120071153D01*
X163308921Y-120091670D01*
X163294671Y-120110883D01*
X163278607Y-120128607D01*
X163260883Y-120144671D01*
X163241670Y-120158921D01*
X163221153Y-120171218D01*
X163199529Y-120181446D01*
X163177007Y-120189504D01*
X163153803Y-120195316D01*
X163130142Y-120198826D01*
X163106250Y-120200000D01*
X162618750Y-120200000D01*
X162594858Y-120198826D01*
X162571197Y-120195316D01*
X162547993Y-120189504D01*
X162525471Y-120181446D01*
X162503847Y-120171218D01*
X162483330Y-120158921D01*
X162464117Y-120144671D01*
X162446393Y-120128607D01*
X162430329Y-120110883D01*
X162416079Y-120091670D01*
X162403782Y-120071153D01*
X162393554Y-120049529D01*
X162385496Y-120027007D01*
X162379684Y-120003803D01*
X162376174Y-119980142D01*
X162375000Y-119956250D01*
X162375000Y-119043750D01*
X162376174Y-119019858D01*
X162379684Y-118996197D01*
X162385496Y-118972993D01*
X162393554Y-118950471D01*
X162403782Y-118928847D01*
X162416079Y-118908330D01*
X162430329Y-118889117D01*
X162446393Y-118871393D01*
X162464117Y-118855329D01*
X162483330Y-118841079D01*
X162503847Y-118828782D01*
X162525471Y-118818554D01*
X162547993Y-118810496D01*
X162571197Y-118804684D01*
X162594858Y-118801174D01*
X162618750Y-118800000D01*
X163106250Y-118800000D01*
X163130142Y-118801174D01*
X163130142Y-118801174D01*
G37*
D11*
X162862500Y-119500000D03*
D12*
X160350000Y-104000000D03*
X160350000Y-104800000D03*
X160350000Y-105600000D03*
X160350000Y-106400000D03*
X160350000Y-107200000D03*
X160350000Y-108000000D03*
X160350000Y-108800000D03*
X160350000Y-109600000D03*
D13*
X161800000Y-111050000D03*
X162600000Y-111050000D03*
X163400000Y-111050000D03*
X164200000Y-111050000D03*
X165000000Y-111050000D03*
X165800000Y-111050000D03*
X166600000Y-111050000D03*
X167400000Y-111050000D03*
D12*
X168850000Y-109600000D03*
X168850000Y-108800000D03*
X168850000Y-108000000D03*
X168850000Y-107200000D03*
X168850000Y-106400000D03*
X168850000Y-105600000D03*
X168850000Y-104800000D03*
X168850000Y-104000000D03*
D13*
X167400000Y-102550000D03*
X166600000Y-102550000D03*
X165800000Y-102550000D03*
X165000000Y-102550000D03*
X164200000Y-102550000D03*
X163400000Y-102550000D03*
X162600000Y-102550000D03*
X161800000Y-102550000D03*
M02*
